<svg width="20" height="20" viewBox="0 0 20 20" fill="none" xmlns="http://www.w3.org/2000/svg">
<path d="M16.875 12.5H16.25V11.25C16.25 10.7527 16.0525 10.2758 15.7008 9.92417C15.3492 9.57254 14.8723 9.375 14.375 9.375H10.625V7.5H11.25C11.7473 7.5 12.2242 7.30246 12.5758 6.95083C12.9275 6.59919 13.125 6.12228 13.125 5.625V3.125C13.125 2.62772 12.9275 2.15081 12.5758 1.79917C12.2242 1.44754 11.7473 1.25 11.25 1.25H8.75C8.25272 1.25 7.77581 1.44754 7.42417 1.79917C7.07254 2.15081 6.875 2.62772 6.875 3.125V5.625C6.875 6.12228 7.07254 6.59919 7.42417 6.95083C7.77581 7.30246 8.25272 7.5 8.75 7.5H9.375V9.375H5.625C5.12772 9.375 4.65081 9.57254 4.29917 9.92417C3.94754 10.2758 3.75 10.7527 3.75 11.25V12.5H3.125C2.62772 12.5 2.15081 12.6975 1.79917 13.0492C1.44754 13.4008 1.25 13.8777 1.25 14.375V16.875C1.25 17.3723 1.44754 17.8492 1.79917 18.2008C2.15081 18.5525 2.62772 18.75 3.125 18.75H5.625C6.12228 18.75 6.59919 18.5525 6.95083 18.2008C7.30246 17.8492 7.5 17.3723 7.5 16.875V14.375C7.5 13.8777 7.30246 13.4008 6.95083 13.0492C6.59919 12.6975 6.12228 12.5 5.625 12.5H5V11.25C5 11.0842 5.06585 10.9253 5.18306 10.8081C5.30027 10.6908 5.45924 10.625 5.625 10.625H14.375C14.5408 10.625 14.6997 10.6908 14.8169 10.8081C14.9342 10.9253 15 11.0842 15 11.25V12.5H14.375C13.8777 12.5 13.4008 12.6975 13.0492 13.0492C12.6975 13.4008 12.5 13.8777 12.5 14.375V16.875C12.5 17.3723 12.6975 17.8492 13.0492 18.2008C13.4008 18.5525 13.8777 18.75 14.375 18.75H16.875C17.3723 18.75 17.8492 18.5525 18.2008 18.2008C18.5525 17.8492 18.75 17.3723 18.75 16.875V14.375C18.75 13.8777 18.5525 13.4008 18.2008 13.0492C17.8492 12.6975 17.3723 12.5 16.875 12.5ZM8.75 6.25C8.58424 6.25 8.42527 6.18415 8.30806 6.06694C8.19085 5.94973 8.125 5.79076 8.125 5.625V3.125C8.125 2.95924 8.19085 2.80027 8.30806 2.68306C8.42527 2.56585 8.58424 2.5 8.75 2.5H11.25C11.4158 2.5 11.5747 2.56585 11.6919 2.68306C11.8092 2.80027 11.875 2.95924 11.875 3.125V5.625C11.875 5.79076 11.8092 5.94973 11.6919 6.06694C11.5747 6.18415 11.4158 6.25 11.25 6.25H8.75ZM6.25 14.375V16.875C6.25 17.0408 6.18415 17.1997 6.06694 17.3169C5.94973 17.4342 5.79076 17.5 5.625 17.5H3.125C2.95924 17.5 2.80027 17.4342 2.68306 17.3169C2.56585 17.1997 2.5 17.0408 2.5 16.875V14.375C2.5 14.2092 2.56585 14.0503 2.68306 13.9331C2.80027 13.8158 2.95924 13.75 3.125 13.75H5.625C5.79076 13.75 5.94973 13.8158 6.06694 13.9331C6.18415 14.0503 6.25 14.2092 6.25 14.375ZM17.5 16.875C17.5 17.0408 17.4342 17.1997 17.3169 17.3169C17.1997 17.4342 17.0408 17.5 16.875 17.5H14.375C14.2092 17.5 14.0503 17.4342 13.9331 17.3169C13.8158 17.1997 13.75 17.0408 13.75 16.875V14.375C13.75 14.2092 13.8158 14.0503 13.9331 13.9331C14.0503 13.8158 14.2092 13.75 14.375 13.75H16.875C17.0408 13.75 17.1997 13.8158 17.3169 13.9331C17.4342 14.0503 17.5 14.2092 17.5 14.375V16.875Z" fill="#696A70"/>
</svg>
