<svg width="20" height="20" viewBox="0 0 20 20" fill="none" xmlns="http://www.w3.org/2000/svg">
<path d="M10.625 6.25H9.375C8.87772 6.25 8.40081 6.44754 8.04917 6.79917C7.69754 7.15081 7.5 7.62772 7.5 8.125V15.625C7.5 16.1223 7.69754 16.5992 8.04917 16.9508C8.40081 17.3025 8.87772 17.5 9.375 17.5H10.625C11.1223 17.5 11.5992 17.3025 11.9508 16.9508C12.3025 16.5992 12.5 16.1223 12.5 15.625V8.125C12.5 7.62772 12.3025 7.15081 11.9508 6.79917C11.5992 6.44754 11.1223 6.25 10.625 6.25ZM11.25 15.625C11.25 15.7908 11.1842 15.9497 11.0669 16.0669C10.9497 16.1842 10.7908 16.25 10.625 16.25H9.375C9.20924 16.25 9.05027 16.1842 8.93306 16.0669C8.81585 15.9497 8.75 15.7908 8.75 15.625V8.125C8.75 7.95924 8.81585 7.80027 8.93306 7.68306C9.05027 7.56585 9.20924 7.5 9.375 7.5H10.625C10.7908 7.5 10.9497 7.56585 11.0669 7.68306C11.1842 7.80027 11.25 7.95924 11.25 8.125V15.625ZM16.875 2.5H15.625C15.1277 2.5 14.6508 2.69754 14.2992 3.04917C13.9475 3.40081 13.75 3.87772 13.75 4.375V15.625C13.75 16.1223 13.9475 16.5992 14.2992 16.9508C14.6508 17.3025 15.1277 17.5 15.625 17.5H16.875C17.3723 17.5 17.8492 17.3025 18.2008 16.9508C18.5525 16.5992 18.75 16.1223 18.75 15.625V4.375C18.75 3.87772 18.5525 3.40081 18.2008 3.04917C17.8492 2.69754 17.3723 2.5 16.875 2.5ZM17.5 15.625C17.5 15.7908 17.4342 15.9497 17.3169 16.0669C17.1997 16.1842 17.0408 16.25 16.875 16.25H15.625C15.4592 16.25 15.3003 16.1842 15.1831 16.0669C15.0658 15.9497 15 15.7908 15 15.625V4.375C15 4.20924 15.0658 4.05027 15.1831 3.93306C15.3003 3.81585 15.4592 3.75 15.625 3.75H16.875C17.0408 3.75 17.1997 3.81585 17.3169 3.93306C17.4342 4.05027 17.5 4.20924 17.5 4.375V15.625ZM4.375 8.75H3.125C2.62772 8.75 2.15081 8.94754 1.79917 9.29917C1.44754 9.65081 1.25 10.1277 1.25 10.625V15.625C1.25 16.1223 1.44754 16.5992 1.79917 16.9508C2.15081 17.3025 2.62772 17.5 3.125 17.5H4.375C4.87228 17.5 5.34919 17.3025 5.70083 16.9508C6.05246 16.5992 6.25 16.1223 6.25 15.625V10.625C6.25 10.1277 6.05246 9.65081 5.70083 9.29917C5.34919 8.94754 4.87228 8.75 4.375 8.75ZM5 15.625C5 15.7908 4.93415 15.9497 4.81694 16.0669C4.69973 16.1842 4.54076 16.25 4.375 16.25H3.125C2.95924 16.25 2.80027 16.1842 2.68306 16.0669C2.56585 15.9497 2.5 15.7908 2.5 15.625V10.625C2.5 10.4592 2.56585 10.3003 2.68306 10.1831C2.80027 10.0658 2.95924 10 3.125 10H4.375C4.54076 10 4.69973 10.0658 4.81694 10.1831C4.93415 10.3003 5 10.4592 5 10.625V15.625Z" fill="#696A70"/>
</svg>
