<svg width="20" height="20" viewBox="0 0 20 20" fill="none" xmlns="http://www.w3.org/2000/svg">
<mask id="mask0_127_1024" style="mask-type:alpha" maskUnits="userSpaceOnUse" x="0" y="0" width="20" height="20">
<rect width="20" height="20" fill="#D9D9D9"/>
</mask>
<g mask="url(#mask0_127_1024)">
<path d="M6.35055 16.6667C5.9627 16.6667 5.63137 16.536 5.35655 16.2746C5.08187 16.013 4.94453 15.6976 4.94453 15.3284V5.93205H4.16675V4.82156H7.66675V4.16675H12.3334V4.82156H15.8334V5.93205H15.0556V15.3284C15.0556 15.7024 14.9195 16.019 14.6473 16.2781C14.3751 16.5372 14.0425 16.6667 13.6496 16.6667H6.35055ZM13.889 5.93205H6.11119V15.3284C6.11119 15.3949 6.13362 15.4495 6.17847 15.4922C6.22332 15.5349 6.28068 15.5563 6.35055 15.5563H13.6496C13.7095 15.5563 13.7643 15.5325 13.8141 15.485C13.864 15.4376 13.889 15.3854 13.889 15.3284V5.93205ZM7.98097 14.0756H9.14744V7.4127H7.98097V14.0756ZM10.8527 14.0756H12.0192V7.4127H10.8527V14.0756Z" fill="#E94E4E"/>
</g>
</svg>
