<svg width="25" height="25" viewBox="0 0 25 25" fill="none" xmlns="http://www.w3.org/2000/svg">
<mask id="mask0_105_2124" style="mask-type:alpha" maskUnits="userSpaceOnUse" x="0" y="0" width="25" height="25">
<rect x="0.654663" y="0.543243" width="24" height="24" fill="#D9D9D9"/>
</mask>
<g mask="url(#mask0_105_2124)">
<path d="M15.7124 23.2355C15.2264 23.2355 14.8132 23.0653 14.4729 22.725C14.1326 22.3847 13.9624 21.9715 13.9624 21.4855C13.9624 21.1278 14.0557 20.8102 14.2422 20.5327C14.4287 20.2551 14.6687 20.0438 14.9624 19.899V14.047C14.6687 13.9022 14.4287 13.6952 14.2422 13.426C14.0557 13.1567 13.9624 12.8432 13.9624 12.4855C13.9624 11.9997 14.1326 11.5866 14.4729 11.2462C14.8132 10.9057 15.2264 10.7355 15.7124 10.7355C16.1982 10.7355 16.6113 10.9057 16.9517 11.2462C17.2922 11.5866 17.4624 11.9997 17.4624 12.4855C17.4624 12.8432 17.3691 13.1567 17.1824 13.426C16.9959 13.6952 16.7559 13.9022 16.4624 14.047V17.3355L20.6547 15.9432V14.047C20.361 13.9022 20.1209 13.6952 19.9344 13.426C19.7479 13.1567 19.6547 12.8432 19.6547 12.4855C19.6547 11.9997 19.8248 11.5866 20.1652 11.2462C20.5057 10.9057 20.9188 10.7355 21.4047 10.7355C21.8905 10.7355 22.3037 10.9057 22.6442 11.2462C22.9845 11.5866 23.1547 11.9997 23.1547 12.4855C23.1547 12.8432 23.0614 13.1567 22.8749 13.426C22.6882 13.6952 22.4482 13.9022 22.1547 14.047V17.0125L16.4624 18.9067V19.899C16.7559 20.0438 16.9959 20.2551 17.1824 20.5327C17.3691 20.8102 17.4624 21.1278 17.4624 21.4855C17.4624 21.9715 17.2922 22.3847 16.9517 22.725C16.6113 23.0653 16.1982 23.2355 15.7124 23.2355ZM4.96241 20.0432C4.45725 20.0432 4.02966 19.8682 3.67966 19.5182C3.32966 19.1682 3.15466 18.7407 3.15466 18.2355V6.85099C3.15466 6.34583 3.32966 5.91824 3.67966 5.56824C4.02966 5.21824 4.45725 5.04324 4.96241 5.04324H10.4527L12.4527 7.04324H20.6547C21.0637 7.04324 21.4159 7.19099 21.7114 7.48649C22.0069 7.78199 22.1547 8.13424 22.1547 8.54324H11.8392L9.83916 6.54324H4.96241C4.87258 6.54324 4.79883 6.57208 4.74116 6.62974C4.6835 6.68741 4.65466 6.76116 4.65466 6.85099V18.2355C4.65466 18.3253 4.6835 18.3991 4.74116 18.4567C4.79883 18.5144 4.87258 18.5432 4.96241 18.5432H11.7702V20.0432H4.96241Z" fill="white"/>
</g>
</svg>
