<svg width="25" height="25" viewBox="0 0 25 25" fill="none" xmlns="http://www.w3.org/2000/svg">
<mask id="mask0_105_2154" style="mask-type:alpha" maskUnits="userSpaceOnUse" x="0" y="0" width="25" height="25">
<rect x="0.583527" y="0.100006" width="24" height="24" fill="#D9D9D9"/>
</mask>
<g mask="url(#mask0_105_2154)">
<path d="M10.1835 15.3345L11.2373 14.25L9.08728 12.1L11.2373 9.95001L10.1835 8.86551L6.94903 12.1L10.1835 15.3345ZM14.9835 15.3345L18.218 12.1L14.9835 8.86551L13.9298 9.95001L16.0798 12.1L13.9298 14.25L14.9835 15.3345ZM5.89128 20.6C5.39261 20.6 4.96661 20.4234 4.61328 20.0703C4.26011 19.7169 4.08353 19.2909 4.08353 18.7923V5.40776C4.08353 4.90909 4.26011 4.48309 4.61328 4.12976C4.96661 3.77659 5.39261 3.60001 5.89128 3.60001H10.3413C10.4041 3.04484 10.6464 2.57276 11.0683 2.18376C11.4899 1.79459 11.995 1.60001 12.5835 1.60001C13.1784 1.60001 13.6867 1.79459 14.1085 2.18376C14.5304 2.57276 14.7694 3.04484 14.8258 3.60001H19.2758C19.7744 3.60001 20.2004 3.77659 20.5538 4.12976C20.9069 4.48309 21.0835 4.90909 21.0835 5.40776V18.7923C21.0835 19.2909 20.9069 19.7169 20.5538 20.0703C20.2004 20.4234 19.7744 20.6 19.2758 20.6H5.89128ZM5.89128 19.1H19.2758C19.3528 19.1 19.4233 19.0679 19.4873 19.0038C19.5514 18.9398 19.5835 18.8693 19.5835 18.7923V5.40776C19.5835 5.33076 19.5514 5.26026 19.4873 5.19626C19.4233 5.13209 19.3528 5.10001 19.2758 5.10001H5.89128C5.81428 5.10001 5.74378 5.13209 5.67978 5.19626C5.61561 5.26026 5.58353 5.33076 5.58353 5.40776V18.7923C5.58353 18.8693 5.61561 18.9398 5.67978 19.0038C5.74378 19.0679 5.81428 19.1 5.89128 19.1ZM12.5835 4.44626C12.8002 4.44626 12.9794 4.37542 13.121 4.23376C13.2627 4.09209 13.3335 3.91292 13.3335 3.69626C13.3335 3.47959 13.2627 3.30042 13.121 3.15876C12.9794 3.01709 12.8002 2.94626 12.5835 2.94626C12.3669 2.94626 12.1877 3.01709 12.046 3.15876C11.9044 3.30042 11.8335 3.47959 11.8335 3.69626C11.8335 3.91292 11.9044 4.09209 12.046 4.23376C12.1877 4.37542 12.3669 4.44626 12.5835 4.44626Z" fill="white"/>
</g>
</svg>
