<svg width="25" height="25" viewBox="0 0 25 25" fill="none" xmlns="http://www.w3.org/2000/svg">
<mask id="mask0_105_2148" style="mask-type:alpha" maskUnits="userSpaceOnUse" x="0" y="0" width="25" height="25">
<rect x="0.583527" y="0.100006" width="24" height="24" fill="#D9D9D9"/>
</mask>
<g mask="url(#mask0_105_2148)">
<path d="M8.83353 11.85V10.35H16.3335V11.85H8.83353ZM8.83353 7.85001V6.35001H16.3335V7.85001H8.83353ZM6.58353 14.35H14.0835C14.5284 14.35 14.9399 14.4462 15.318 14.6385C15.6964 14.8308 16.0175 15.1026 16.2815 15.4538L18.5835 18.454V4.40776C18.5835 4.31792 18.5547 4.24417 18.497 4.18651C18.4394 4.12884 18.3656 4.10001 18.2758 4.10001H6.89128C6.80144 4.10001 6.72769 4.12884 6.67003 4.18651C6.61236 4.24417 6.58353 4.31792 6.58353 4.40776V14.35ZM6.89128 20.1H17.9508L15.1008 16.3713C14.9751 16.2058 14.8254 16.0775 14.6518 15.9865C14.4781 15.8955 14.2887 15.85 14.0835 15.85H6.58353V19.7923C6.58353 19.8821 6.61236 19.9558 6.67003 20.0135C6.72769 20.0712 6.80144 20.1 6.89128 20.1ZM18.2758 21.6H6.89128C6.38611 21.6 5.95853 21.425 5.60853 21.075C5.25853 20.725 5.08353 20.2974 5.08353 19.7923V4.40776C5.08353 3.90259 5.25853 3.47501 5.60853 3.12501C5.95853 2.77501 6.38611 2.60001 6.89128 2.60001H18.2758C18.7809 2.60001 19.2085 2.77501 19.5585 3.12501C19.9085 3.47501 20.0835 3.90259 20.0835 4.40776V19.7923C20.0835 20.2974 19.9085 20.725 19.5585 21.075C19.2085 21.425 18.7809 21.6 18.2758 21.6Z" fill="white"/>
</g>
</svg>
