<svg width="25" height="25" viewBox="0 0 25 25" fill="none" xmlns="http://www.w3.org/2000/svg">
<mask id="mask0_105_2112" style="mask-type:alpha" maskUnits="userSpaceOnUse" x="0" y="0" width="25" height="25">
<rect x="0.431183" y="0.454224" width="24" height="24" fill="#D9D9D9"/>
</mask>
<g mask="url(#mask0_105_2112)">
<path d="M13.4312 14.2042H14.9312V11.2042H17.9312V9.70422H14.9312V6.70422H13.4312V9.70422H10.4312V11.2042H13.4312V14.2042ZM8.48893 17.9542C7.98377 17.9542 7.55618 17.7792 7.20618 17.4292C6.85618 17.0792 6.68118 16.6516 6.68118 16.1465V4.76197C6.68118 4.25681 6.85618 3.82922 7.20618 3.47922C7.55618 3.12922 7.98377 2.95422 8.48893 2.95422H19.8734C20.3786 2.95422 20.8062 3.12922 21.1562 3.47922C21.5062 3.82922 21.6812 4.25681 21.6812 4.76197V16.1465C21.6812 16.6516 21.5062 17.0792 21.1562 17.4292C20.8062 17.7792 20.3786 17.9542 19.8734 17.9542H8.48893ZM8.48893 16.4542H19.8734C19.9504 16.4542 20.0209 16.4221 20.0849 16.358C20.1491 16.294 20.1812 16.2235 20.1812 16.1465V4.76197C20.1812 4.68497 20.1491 4.61447 20.0849 4.55047C20.0209 4.48631 19.9504 4.45422 19.8734 4.45422H8.48893C8.41193 4.45422 8.34143 4.48631 8.27743 4.55047C8.21327 4.61447 8.18118 4.68497 8.18118 4.76197V16.1465C8.18118 16.2235 8.21327 16.294 8.27743 16.358C8.34143 16.4221 8.41193 16.4542 8.48893 16.4542ZM4.98893 21.4542C4.48377 21.4542 4.05618 21.2792 3.70618 20.9292C3.35618 20.5792 3.18118 20.1516 3.18118 19.6465V6.76197H4.68118V19.6465C4.68118 19.7235 4.71327 19.794 4.77743 19.858C4.84143 19.9221 4.91193 19.9542 4.98893 19.9542H17.8734V21.4542H4.98893Z" fill="white"/>
</g>
</svg>
