<svg width="25" height="25" viewBox="0 0 25 25" fill="none" xmlns="http://www.w3.org/2000/svg">
<mask id="mask0_105_2160" style="mask-type:alpha" maskUnits="userSpaceOnUse" x="0" y="0" width="25" height="25">
<rect x="0.583527" y="0.100006" width="24" height="24" fill="#D9D9D9"/>
</mask>
<g mask="url(#mask0_105_2160)">
<path d="M4.56427 9.33076V4.25376H6.06427V6.62301C6.87577 5.66534 7.84761 4.92209 8.97977 4.39326C10.1118 3.86442 11.3066 3.60001 12.5643 3.60001C14.9233 3.60001 16.9297 4.42692 18.5835 6.08076C20.2374 7.73459 21.0643 9.74101 21.0643 12.1V12.2348H19.5643V12.1C19.5643 10.15 18.8851 8.49584 17.5268 7.13751C16.1684 5.77917 14.5143 5.10001 12.5643 5.10001C11.4719 5.10001 10.4483 5.34267 9.49327 5.82801C8.53811 6.31317 7.71561 6.98076 7.02577 7.83076H9.64127V9.33076H4.56427ZM4.12402 13.1H5.65477C5.87394 14.6628 6.53061 15.9866 7.62477 17.0713C8.71911 18.1558 10.0291 18.8051 11.5548 19.0193L12.4663 20.6C10.3329 20.568 8.47011 19.8408 6.87777 18.4183C5.28544 16.9958 4.36752 15.223 4.12402 13.1ZM14.222 14.7828L11.8433 12.4038V7.10001H13.343V11.7963L15.0123 13.4655L14.222 14.7828ZM19.0393 23.85L18.797 22.4943C18.5394 22.4238 18.2958 22.3266 18.0663 22.2028C17.8368 22.0791 17.6208 21.9218 17.4183 21.7308L16.1125 22.1423L15.4008 20.9423L16.445 20.0673C16.3669 19.7994 16.3278 19.5251 16.3278 19.2443C16.3278 18.9634 16.3669 18.6827 16.445 18.402L15.3818 17.5078L16.1125 16.2885L17.4278 16.729C17.6303 16.5443 17.8431 16.3918 18.0663 16.2713C18.2893 16.1508 18.5329 16.052 18.797 15.975L19.0393 14.6193H20.4623L20.7048 15.975C20.9753 16.052 21.2278 16.1591 21.4623 16.2963C21.6969 16.4334 21.9073 16.5975 22.0933 16.7885L23.4278 16.3078L24.1393 17.577L23.0663 18.4713C23.1379 18.7519 23.1738 19.0211 23.1738 19.2788C23.1738 19.5366 23.1379 19.7898 23.0663 20.0385L24.1585 20.9423L23.447 22.1423L22.0933 21.7115C21.8971 21.9025 21.6843 22.0631 21.4548 22.1933C21.2253 22.3234 20.9753 22.4238 20.7048 22.4943L20.4623 23.85H19.0393ZM19.7508 21.3115C20.3201 21.3115 20.8086 21.1077 21.2163 20.7C21.6239 20.2923 21.8278 19.8039 21.8278 19.2348C21.8278 18.6654 21.6239 18.1769 21.2163 17.7693C20.8086 17.3616 20.3201 17.1578 19.7508 17.1578C19.1816 17.1578 18.6932 17.3616 18.2855 17.7693C17.8779 18.1769 17.674 18.6654 17.674 19.2348C17.674 19.8039 17.8779 20.2923 18.2855 20.7C18.6932 21.1077 19.1816 21.3115 19.7508 21.3115Z" fill="white"/>
</g>
</svg>
