<svg width="25" height="25" viewBox="0 0 25 25" fill="none" xmlns="http://www.w3.org/2000/svg">
<mask id="mask0_105_2142" style="mask-type:alpha" maskUnits="userSpaceOnUse" x="0" y="0" width="25" height="25">
<rect x="0.557709" y="0.293625" width="24" height="24" fill="#D9D9D9"/>
</mask>
<g mask="url(#mask0_105_2142)">
<path d="M3.90971 17.9474L2.85571 16.8936L7.98271 11.7666C8.52121 11.2346 9.17021 10.967 9.92971 10.9639C10.6894 10.9607 11.3385 11.2283 11.877 11.7666L13.027 12.9166C13.2783 13.168 13.575 13.292 13.9172 13.2889C14.2595 13.2857 14.5564 13.1616 14.8077 12.9166L19.6905 8.04362H16.7597V6.54362H22.2597V12.0436H20.7597V9.11288L15.8615 13.9859C15.3231 14.5179 14.6725 14.7855 13.9097 14.7889C13.1469 14.792 12.4995 14.5276 11.9675 13.9956L10.7925 12.8206C10.5513 12.5795 10.2586 12.4605 9.91446 12.4639C9.57013 12.467 9.27746 12.586 9.03646 12.8206L3.90971 17.9474Z" fill="white"/>
</g>
</svg>
