<svg width="16" height="16" viewBox="0 0 16 16" fill="none" xmlns="http://www.w3.org/2000/svg">
<mask id="mask0_105_783" style="mask-type:alpha" maskUnits="userSpaceOnUse" x="0" y="0" width="16" height="16">
<rect width="16" height="16" fill="#D9D9D9"/>
</mask>
<g mask="url(#mask0_105_783)">
<path d="M13.0281 13.718L8.84095 9.53067C8.50762 9.80589 8.12429 10.0213 7.69095 10.1768C7.25762 10.3324 6.80934 10.4102 6.34612 10.4102C5.20668 10.4102 4.24234 10.0157 3.45312 9.22667C2.6639 8.43767 2.26929 7.47356 2.26929 6.33433C2.26929 5.19522 2.66379 4.23078 3.45279 3.441C4.24179 2.65133 5.2059 2.2565 6.34512 2.2565C7.48423 2.2565 8.44868 2.65111 9.23845 3.44033C10.0281 4.22956 10.423 5.19389 10.423 6.33333C10.423 6.80944 10.3431 7.26417 10.1833 7.6975C10.0234 8.13083 9.81012 8.50772 9.54345 8.82817L13.7306 13.0153L13.0281 13.718ZM6.34612 9.41033C7.20512 9.41033 7.93268 9.11222 8.52879 8.516C9.12501 7.91989 9.42312 7.19233 9.42312 6.33333C9.42312 5.47433 9.12501 4.74678 8.52879 4.15067C7.93268 3.55444 7.20512 3.25633 6.34612 3.25633C5.48712 3.25633 4.75956 3.55444 4.16345 4.15067C3.56723 4.74678 3.26912 5.47433 3.26912 6.33333C3.26912 7.19233 3.56723 7.91989 4.16345 8.516C4.75956 9.11222 5.48712 9.41033 6.34612 9.41033Z" fill="#6C55B2"/>
</g>
</svg>
