<svg width="56" height="56" viewBox="0 0 56 56" fill="none" xmlns="http://www.w3.org/2000/svg">
<mask id="mask0_26_28" style="mask-type:alpha" maskUnits="userSpaceOnUse" x="0" y="0" width="56" height="56">
<rect width="56" height="56" fill="white"/>
</mask>
<g mask="url(#mask0_26_28)">
<path d="M14.0538 40.3485C16.0372 38.877 18.1978 37.7148 20.5358 36.8619C22.8734 36.0095 25.3616 35.5833 28.0002 35.5833C30.6388 35.5833 33.1269 36.0095 35.4645 36.8619C37.8025 37.7148 39.9632 38.877 41.9465 40.3485C43.3971 38.7541 44.5464 36.9084 45.3946 34.8115C46.2427 32.7146 46.6668 30.4441 46.6668 27.9999C46.6668 22.8277 44.8488 18.4235 41.2127 14.7874C37.5766 11.1513 33.1724 9.33327 28.0002 9.33327C22.8279 9.33327 18.4238 11.1513 14.7877 14.7874C11.1516 18.4235 9.3335 22.8277 9.3335 27.9999C9.3335 30.4441 9.75758 32.7146 10.6057 34.8115C11.4539 36.9084 12.6033 38.7541 14.0538 40.3485ZM28.0007 29.7499C25.8704 29.7499 24.0739 29.0188 22.6113 27.5566C21.1483 26.094 20.4168 24.2975 20.4168 22.1672C20.4168 20.0369 21.1479 18.2404 22.6102 16.7778C24.0728 15.3148 25.8692 14.5833 27.9996 14.5833C30.1299 14.5833 31.9264 15.3144 33.389 16.7766C34.852 18.2392 35.5835 20.0357 35.5835 22.166C35.5835 24.2963 34.8524 26.0928 33.3902 27.5554C31.9276 29.0184 30.1311 29.7499 28.0007 29.7499ZM28.0002 50.1666C24.9221 50.1666 22.0346 49.5877 19.3377 48.43C16.6407 47.2723 14.2947 45.6957 12.2997 43.7003C10.3044 41.7053 8.7278 39.3594 7.57008 36.6624C6.41236 33.9655 5.8335 31.078 5.8335 27.9999C5.8335 24.9219 6.41236 22.0344 7.57008 19.3374C8.7278 16.6405 10.3044 14.2945 12.2997 12.2995C14.2947 10.3041 16.6407 8.72757 19.3377 7.56985C22.0346 6.41213 24.9221 5.83327 28.0002 5.83327C31.0782 5.83327 33.9657 6.41213 36.6627 7.56985C39.3596 8.72757 41.7056 10.3041 43.7006 12.2995C45.696 14.2945 47.2725 16.6405 48.4302 19.3374C49.588 22.0344 50.1668 24.9219 50.1668 27.9999C50.1668 31.078 49.588 33.9655 48.4302 36.6624C47.2725 39.3594 45.696 41.7053 43.7006 43.7003C41.7056 45.6957 39.3596 47.2723 36.6627 48.43C33.9657 49.5877 31.0782 50.1666 28.0002 50.1666ZM28.0002 46.6666C30.106 46.6666 32.1364 46.3279 34.0913 45.6504C36.0463 44.9726 37.7821 44.0251 39.2987 42.8078C37.7821 41.635 36.0688 40.7211 34.159 40.0662C32.2488 39.4109 30.1958 39.0833 28.0002 39.0833C25.8045 39.0833 23.7479 39.407 21.8302 40.0545C19.9126 40.7024 18.2031 41.6202 16.7016 42.8078C18.2182 44.0251 19.9541 44.9726 21.909 45.6504C23.8639 46.3279 25.8943 46.6666 28.0002 46.6666ZM28.0002 26.2499C29.161 26.2499 30.1317 25.8595 30.9122 25.0786C31.6931 24.2981 32.0835 23.3274 32.0835 22.1666C32.0835 21.0058 31.6931 20.0351 30.9122 19.2546C30.1317 18.4737 29.161 18.0833 28.0002 18.0833C26.8393 18.0833 25.8687 18.4737 25.0882 19.2546C24.3073 20.0351 23.9168 21.0058 23.9168 22.1666C23.9168 23.3274 24.3073 24.2981 25.0882 25.0786C25.8687 25.8595 26.8393 26.2499 28.0002 26.2499Z" fill="white"/>
</g>
</svg>
