<svg width="25" height="25" viewBox="0 0 25 25" fill="none" xmlns="http://www.w3.org/2000/svg">
<mask id="mask0_720_5103" style="mask-type:alpha" maskUnits="userSpaceOnUse" x="0" y="0" width="25" height="25">
<rect x="0.583496" y="0.100006" width="24" height="24" fill="#D9D9D9"/>
</mask>
<g mask="url(#mask0_720_5103)">
<path d="M5.89125 20.6C5.39258 20.6 4.96658 20.4234 4.61325 20.0703C4.26008 19.7169 4.0835 19.2909 4.0835 18.7923V5.40776C4.0835 4.90909 4.26008 4.48309 4.61325 4.12976C4.96658 3.77659 5.39258 3.60001 5.89125 3.60001H19.2757C19.7744 3.60001 20.2004 3.77659 20.5537 4.12976C20.9069 4.48309 21.0835 4.90909 21.0835 5.40776V11.7328C20.8373 11.6276 20.5908 11.5385 20.344 11.4655C20.0972 11.3923 19.8437 11.334 19.5835 11.2905V5.40776C19.5835 5.33076 19.5514 5.26026 19.4872 5.19626C19.4232 5.13209 19.3527 5.10001 19.2757 5.10001H5.89125C5.81425 5.10001 5.74375 5.13209 5.67975 5.19626C5.61558 5.26026 5.5835 5.33076 5.5835 5.40776V18.7923C5.5835 18.8693 5.61558 18.9398 5.67975 19.0038C5.74375 19.0679 5.81425 19.1 5.89125 19.1H11.749C11.7862 19.3768 11.8412 19.6387 11.9142 19.8855C11.9874 20.1323 12.0765 20.3705 12.1815 20.6H5.89125ZM5.5835 19.1V5.10001V11.2905V11.2155V19.1ZM7.8335 16.7345H11.8507C11.8944 16.4743 11.9592 16.2208 12.045 15.974C12.131 15.7272 12.2246 15.4808 12.3257 15.2348H7.8335V16.7345ZM7.8335 12.85H14.174C14.6047 12.4847 15.0642 12.1786 15.5527 11.9318C16.0412 11.6849 16.5643 11.5096 17.122 11.4058V11.35H7.8335V12.85ZM7.8335 8.96526H17.3335V7.46551H7.8335V8.96526ZM18.5835 22.6578C17.3348 22.6578 16.2727 22.2199 15.397 21.3443C14.5213 20.4686 14.0835 19.4064 14.0835 18.1578C14.0835 16.9091 14.5213 15.8469 15.397 14.9713C16.2727 14.0956 17.3348 13.6578 18.5835 13.6578C19.8322 13.6578 20.8943 14.0956 21.77 14.9713C22.6457 15.8469 23.0835 16.9091 23.0835 18.1578C23.0835 19.4064 22.6457 20.4686 21.77 21.3443C20.8943 22.2199 19.8322 22.6578 18.5835 22.6578ZM18.1412 21.1H19.0257V18.6H21.5257V17.7155H19.0257V15.2155H18.1412V17.7155H15.6412V18.6H18.1412V21.1Z" fill="white"/>
</g>
</svg>
