<svg width="25" height="25" viewBox="0 0 25 25" fill="none" xmlns="http://www.w3.org/2000/svg">
<mask id="mask0_720_5094" style="mask-type:alpha" maskUnits="userSpaceOnUse" x="0" y="0" width="25" height="25">
<rect x="0.583496" y="0.100006" width="24" height="24" fill="#D9D9D9"/>
</mask>
<g mask="url(#mask0_720_5094)">
<path d="M4.89125 19.6C4.38608 19.6 3.9585 19.425 3.6085 19.075C3.2585 18.725 3.0835 18.2974 3.0835 17.7923V6.40776C3.0835 5.90259 3.2585 5.47501 3.6085 5.12501C3.9585 4.77501 4.38608 4.60001 4.89125 4.60001H10.3815L12.3815 6.60001H20.2757C20.7809 6.60001 21.2085 6.77501 21.5585 7.12501C21.9085 7.47501 22.0835 7.90259 22.0835 8.40776V11.2365C21.8437 11.1417 21.5962 11.0798 21.3412 11.051C21.0861 11.0222 20.8335 11.0231 20.5835 11.0538V8.40776C20.5835 8.33076 20.5514 8.26026 20.4872 8.19626C20.4232 8.13209 20.3527 8.10001 20.2757 8.10001H11.768L9.768 6.10001H4.89125C4.80141 6.10001 4.72766 6.12884 4.67 6.18651C4.61233 6.24417 4.5835 6.31792 4.5835 6.40776V17.7923C4.5835 17.8693 4.61558 17.9398 4.67975 18.0038C4.74375 18.0679 4.81425 18.1 4.89125 18.1H12.568L12.5065 18.1615V19.6H4.89125ZM14.699 21.6V18.9578L20.1277 13.5538C20.2521 13.4294 20.3867 13.3419 20.5315 13.2913C20.6763 13.2408 20.8212 13.2155 20.9662 13.2155C21.1212 13.2155 21.2728 13.2449 21.421 13.3038C21.569 13.3628 21.702 13.4513 21.82 13.5693L22.745 14.5038C22.8527 14.6283 22.936 14.7629 22.995 14.9078C23.054 15.0526 23.0835 15.1974 23.0835 15.3423C23.0835 15.4871 23.0566 15.6345 23.0027 15.7845C22.9489 15.9345 22.863 16.0717 22.745 16.196L17.3412 21.6H14.699ZM15.8912 20.4078H16.8412L20.0872 17.146L19.6277 16.671L19.1622 16.202L15.8912 19.4578V20.4078ZM19.6277 16.671L19.1622 16.202L20.0872 17.146L19.6277 16.671Z" fill="white"/>
</g>
</svg>
