<svg width="24" height="24" viewBox="0 0 24 24" fill="none" xmlns="http://www.w3.org/2000/svg">
<path d="M11.5071 20.625H5.70358C5.29858 20.625 4.96783 20.295 4.96783 19.8892V15.7845C4.96783 14.7172 5.50483 13.7332 6.39508 13.1572L6.55858 13.0553L6.57133 13.047C6.72806 12.9396 6.83724 12.7759 6.87606 12.5899C6.91488 12.4039 6.88034 12.2101 6.77965 12.049C6.67897 11.8879 6.51992 11.772 6.33574 11.7254C6.15157 11.6788 5.95651 11.7052 5.79133 11.799L5.60608 11.9152C4.95822 12.3317 4.42551 12.9044 4.05697 13.5807C3.68843 14.257 3.49589 15.0151 3.49708 15.7853V19.8892C3.49767 20.4743 3.73033 21.0352 4.144 21.4488C4.55767 21.8625 5.11856 22.0952 5.70358 22.0958H11.5071C11.7022 22.0958 11.8894 22.0182 12.0273 21.8803C12.1653 21.7423 12.2428 21.5551 12.2428 21.36C12.2428 21.1649 12.1653 20.9777 12.0273 20.8397C11.8894 20.7018 11.7022 20.625 11.5071 20.625ZM15.7236 12.033C15.62 12.1984 15.5865 12.3981 15.6302 12.5883C15.6739 12.7785 15.7914 12.9435 15.9568 13.047L16.1248 13.152C16.5289 13.4122 16.8675 13.7621 17.1143 14.1744C17.3612 14.5868 17.5097 15.0505 17.5483 15.5295C17.5554 15.6258 17.5814 15.7197 17.6248 15.8059C17.6682 15.8922 17.7281 15.969 17.8012 16.0321C17.8743 16.0951 17.9591 16.1432 18.0508 16.1735C18.1424 16.2038 18.2392 16.2157 18.3355 16.2086C18.4317 16.2015 18.5257 16.1755 18.6119 16.1322C18.6981 16.0888 18.775 16.0288 18.838 15.9557C18.9011 15.8826 18.9491 15.7978 18.9794 15.7062C19.0097 15.6145 19.0217 15.5178 19.0146 15.4215C18.9585 14.7139 18.7397 14.0289 18.3754 13.4198C18.011 12.8107 17.5108 12.294 16.9138 11.91L16.7368 11.799C16.6549 11.7478 16.5638 11.7132 16.4685 11.6973C16.3733 11.6813 16.2758 11.6843 16.1817 11.706C16.0876 11.7277 15.9987 11.7678 15.9201 11.8239C15.8415 11.88 15.7747 11.9511 15.7236 12.033ZM11.2648 12.1875C14.2108 12.1875 16.6078 9.7905 16.6078 6.8445C16.6078 3.897 14.2108 1.5 11.2648 1.5C8.31883 1.5 5.92033 3.89775 5.92033 6.8445C5.92033 9.7905 8.31808 12.1882 11.2641 12.1882L11.2648 12.1875ZM11.2648 2.97075C13.4001 2.97075 15.1371 4.7085 15.1371 6.8445C15.1371 8.9805 13.4001 10.7167 11.2641 10.7167C9.12808 10.7167 7.39183 8.97975 7.39183 6.8445C7.39183 4.70925 9.12883 2.97075 11.2641 2.97075H11.2648ZM20.2873 17.4938C20.2191 17.4254 20.138 17.3711 20.0487 17.3341C19.9595 17.2971 19.8638 17.2781 19.7672 17.2781C19.6706 17.2781 19.5749 17.2971 19.4857 17.3341C19.3964 17.3711 19.3153 17.4254 19.2471 17.4938L16.0168 20.724L14.4028 19.11C14.2649 18.9721 14.0778 18.8946 13.8827 18.8946C13.6876 18.8946 13.5005 18.9721 13.3626 19.11C13.2246 19.2479 13.1471 19.435 13.1471 19.6301C13.1471 19.8252 13.2246 20.0123 13.3626 20.1502L15.4963 22.2847C15.5646 22.3531 15.6457 22.4074 15.7349 22.4444C15.8242 22.4814 15.9198 22.5004 16.0165 22.5004C16.1131 22.5004 16.2087 22.4814 16.298 22.4444C16.3872 22.4074 16.4683 22.3531 16.5366 22.2847L20.2873 18.534C20.3557 18.4657 20.4099 18.3847 20.4469 18.2954C20.484 18.2062 20.503 18.1105 20.503 18.0139C20.503 17.9173 20.484 17.8216 20.4469 17.7323C20.4099 17.6431 20.3557 17.562 20.2873 17.4938Z" fill="white"/>
</svg>
