<svg width="25" height="25" viewBox="0 0 25 25" fill="none" xmlns="http://www.w3.org/2000/svg">
<mask id="mask0_720_5085" style="mask-type:alpha" maskUnits="userSpaceOnUse" x="0" y="0" width="25" height="25">
<rect x="0.557617" y="0.293625" width="24" height="24" fill="#D9D9D9"/>
</mask>
<g mask="url(#mask0_720_5085)">
<path d="M6.03837 21.7936C5.2192 21.7936 4.51762 21.5016 3.93362 20.9176C3.34962 20.3336 3.05762 19.632 3.05762 18.8129C3.05762 17.9937 3.34962 17.2921 3.93362 16.7081C4.51762 16.1241 5.2192 15.8321 6.03837 15.8321C6.3317 15.8321 6.61687 15.876 6.89387 15.9639C7.17103 16.0517 7.42495 16.1751 7.65562 16.3341L11.8076 12.1821V8.65313C11.1641 8.48779 10.6315 8.14062 10.2096 7.61162C9.78778 7.08246 9.57687 6.47004 9.57687 5.77437C9.57687 4.95521 9.86887 4.25362 10.4529 3.66962C11.0369 3.08562 11.7385 2.79362 12.5576 2.79362C13.3768 2.79362 14.0784 3.08562 14.6624 3.66962C15.2464 4.25362 15.5384 4.95521 15.5384 5.77437C15.5384 6.47004 15.329 7.08246 14.9104 7.61162C14.4919 8.14062 13.9576 8.48779 13.3076 8.65313V12.1821L17.4749 16.3341C17.7057 16.1751 17.9565 16.0517 18.2274 15.9639C18.4982 15.876 18.7814 15.8321 19.0769 15.8321C19.896 15.8321 20.5976 16.1241 21.1816 16.7081C21.7656 17.2921 22.0576 17.9937 22.0576 18.8129C22.0576 19.632 21.7656 20.3336 21.1816 20.9176C20.5976 21.5016 19.896 21.7936 19.0769 21.7936C18.2577 21.7936 17.5561 21.5016 16.9721 20.9176C16.3881 20.3336 16.0961 19.632 16.0961 18.8129C16.0961 18.5639 16.1256 18.3218 16.1846 18.0866C16.2436 17.8516 16.3301 17.6315 16.4441 17.4264L12.5576 13.5399L8.67112 17.4264C8.78512 17.6315 8.87162 17.8516 8.93062 18.0866C8.98962 18.3218 9.01912 18.5639 9.01912 18.8129C9.01912 19.632 8.72712 20.3336 8.14312 20.9176C7.55912 21.5016 6.85753 21.7936 6.03837 21.7936ZM19.0756 20.2936C19.4866 20.2936 19.8364 20.1498 20.1249 19.8621C20.4134 19.5745 20.5576 19.225 20.5576 18.8139C20.5576 18.4029 20.4138 18.0532 20.1261 17.7649C19.8385 17.4764 19.489 17.3321 19.0779 17.3321C18.6669 17.3321 18.3172 17.476 18.0289 17.7636C17.7404 18.0513 17.5961 18.4006 17.5961 18.8116C17.5961 19.2226 17.74 19.5724 18.0276 19.8609C18.3153 20.1494 18.6646 20.2936 19.0756 20.2936ZM12.5564 7.25513C12.9675 7.25513 13.3173 7.11129 13.6056 6.82363C13.8941 6.53596 14.0384 6.18663 14.0384 5.77563C14.0384 5.36463 13.8945 5.01487 13.6069 4.72637C13.3192 4.43787 12.9699 4.29362 12.5589 4.29362C12.1477 4.29362 11.7979 4.43746 11.5096 4.72513C11.2211 5.01279 11.0769 5.36221 11.0769 5.77338C11.0769 6.18438 11.2207 6.53404 11.5084 6.82238C11.796 7.11088 12.1454 7.25513 12.5564 7.25513ZM6.03737 20.2936C6.44837 20.2936 6.79803 20.1498 7.08637 19.8621C7.37487 19.5745 7.51912 19.225 7.51912 18.8139C7.51912 18.4029 7.37528 18.0532 7.08762 17.7649C6.79995 17.4764 6.45062 17.3321 6.03962 17.3321C5.62862 17.3321 5.27887 17.476 4.99037 17.7636C4.70187 18.0513 4.55762 18.4006 4.55762 18.8116C4.55762 19.2226 4.70145 19.5724 4.98912 19.8609C5.27678 20.1494 5.6262 20.2936 6.03737 20.2936Z" fill="white"/>
</g>
</svg>
