<svg width="25" height="25" viewBox="0 0 25 25" fill="none" xmlns="http://www.w3.org/2000/svg">
<mask id="mask0_720_5058" style="mask-type:alpha" maskUnits="userSpaceOnUse" x="0" y="0" width="25" height="25">
<rect x="0.431152" y="0.454224" width="24" height="24" fill="#D9D9D9"/>
</mask>
<g mask="url(#mask0_720_5058)">
<path d="M14.1811 13.1657C13.4824 13.1657 12.8911 12.9237 12.4071 12.4397C11.9231 11.9557 11.6811 11.3644 11.6811 10.6657C11.6811 9.96705 11.9231 9.37572 12.4071 8.89172C12.8911 8.40772 13.4824 8.16572 14.1811 8.16572C14.8798 8.16572 15.4711 8.40772 15.9551 8.89172C16.4391 9.37572 16.6811 9.96705 16.6811 10.6657C16.6811 11.3644 16.4391 11.9557 15.9551 12.4397C15.4711 12.9237 14.8798 13.1657 14.1811 13.1657ZM7.58484 16.262C7.08784 16.262 6.66234 16.085 6.30834 15.731C5.95434 15.377 5.77734 14.9514 5.77734 14.4542V6.87722C5.77734 6.38022 5.95434 5.95472 6.30834 5.60072C6.66234 5.24672 7.08784 5.06972 7.58484 5.06972H20.7771C21.2743 5.06972 21.6998 5.24672 22.0538 5.60072C22.4078 5.95472 22.5848 6.38022 22.5848 6.87722V14.4542C22.5848 14.9514 22.4078 15.377 22.0538 15.731C21.6998 16.085 21.2743 16.262 20.7771 16.262H7.58484ZM9.08484 14.762H19.2773C19.2773 14.2633 19.4543 13.8373 19.8083 13.484C20.1623 13.1308 20.5878 12.9542 21.0848 12.9542V8.37722C20.5862 8.37722 20.1603 8.20022 19.8071 7.84622C19.4539 7.49222 19.2773 7.06672 19.2773 6.56972H9.08484C9.08484 7.06838 8.90784 7.4943 8.55384 7.84747C8.19984 8.20063 7.77434 8.37722 7.27734 8.37722V12.9542C7.77601 12.9542 8.20193 13.1312 8.55509 13.4852C8.90826 13.8392 9.08484 14.2648 9.08484 14.762ZM19.6041 19.762H4.08509C3.58793 19.762 3.16234 19.585 2.80834 19.231C2.45434 18.877 2.27734 18.4514 2.27734 17.9542V8.05047H3.77734V17.9542C3.77734 18.0311 3.80934 18.1016 3.87334 18.1657C3.93751 18.2299 4.00809 18.262 4.08509 18.262H19.6041V19.762ZM7.58484 14.762H7.27734V6.56972H7.58484C7.50151 6.56972 7.42943 6.60013 7.36859 6.66097C7.30776 6.7218 7.27734 6.79388 7.27734 6.87722V14.4542C7.27734 14.5376 7.30776 14.6096 7.36859 14.6705C7.42943 14.7315 7.50151 14.762 7.58484 14.762Z" fill="white"/>
</g>
</svg>
