<svg width="25" height="25" viewBox="0 0 25 25" fill="none" xmlns="http://www.w3.org/2000/svg">
<mask id="mask0_720_5076" style="mask-type:alpha" maskUnits="userSpaceOnUse" x="0" y="0" width="25" height="25">
<rect x="0.557617" y="0.293625" width="24" height="24" fill="#D9D9D9"/>
</mask>
<g mask="url(#mask0_720_5076)">
<path d="M18.6826 14.0436V11.0436H15.6826V9.54363H18.6826V6.54363H20.1826V9.54363H23.1826V11.0436H20.1826V14.0436H18.6826ZM9.55762 11.9859C8.59512 11.9859 7.7712 11.6432 7.08587 10.9579C6.40037 10.2724 6.05762 9.44838 6.05762 8.48588C6.05762 7.52338 6.40037 6.69946 7.08587 6.01413C7.7712 5.32863 8.59512 4.98588 9.55762 4.98588C10.5201 4.98588 11.344 5.32863 12.0294 6.01413C12.7149 6.69946 13.0576 7.52338 13.0576 8.48588C13.0576 9.44838 12.7149 10.2724 12.0294 10.9579C11.344 11.6432 10.5201 11.9859 9.55762 11.9859ZM2.05762 19.6014V17.3781C2.05762 16.8885 2.19062 16.435 2.45662 16.0176C2.72262 15.6003 3.07812 15.2795 3.52312 15.0551C4.51145 14.5706 5.50853 14.2072 6.51437 13.9649C7.5202 13.7225 8.53462 13.6014 9.55762 13.6014C10.5806 13.6014 11.595 13.7225 12.6009 13.9649C13.6067 14.2072 14.6038 14.5706 15.5921 15.0551C16.0371 15.2795 16.3926 15.6003 16.6586 16.0176C16.9246 16.435 17.0576 16.8885 17.0576 17.3781V19.6014H2.05762ZM3.55762 18.1014H15.5576V17.3781C15.5576 17.1756 15.499 16.9881 15.3816 16.8156C15.2643 16.6433 15.105 16.5026 14.9039 16.3936C14.0422 15.9693 13.1637 15.6478 12.2684 15.4291C11.3729 15.2106 10.4693 15.1014 9.55762 15.1014C8.64595 15.1014 7.74237 15.2106 6.84687 15.4291C5.95153 15.6478 5.07303 15.9693 4.21137 16.3936C4.0102 16.5026 3.85095 16.6433 3.73362 16.8156C3.61628 16.9881 3.55762 17.1756 3.55762 17.3781V18.1014ZM9.55762 10.4859C10.1076 10.4859 10.5785 10.29 10.9701 9.89838C11.3618 9.50671 11.5576 9.03588 11.5576 8.48588C11.5576 7.93588 11.3618 7.46504 10.9701 7.07338C10.5785 6.68171 10.1076 6.48588 9.55762 6.48588C9.00762 6.48588 8.53678 6.68171 8.14512 7.07338C7.75345 7.46504 7.55762 7.93588 7.55762 8.48588C7.55762 9.03588 7.75345 9.50671 8.14512 9.89838C8.53678 10.29 9.00762 10.4859 9.55762 10.4859Z" fill="white"/>
</g>
</svg>
