<svg width="16" height="16" viewBox="0 0 16 16" fill="none" xmlns="http://www.w3.org/2000/svg">
<rect width="16" height="16" fill="white"/>
<path d="M13 5.5V4H14.5V3H13V1.5H12V3H10.5V4H12V5.5H13Z" fill="#7386C3"/>
<path d="M15 5H14V13.5H2V4.5H4.75L6.25 2.5H9.5V1.5H5.75L4.25 3.5H1V14.5H15V5Z" fill="#7386C3"/>
<path d="M8 5.5C6.07 5.5 4.5 7.07 4.5 9C4.5 10.93 6.07 12.5 8 12.5C9.93 12.5 11.5 10.93 11.5 9C11.5 7.07 9.93 5.5 8 5.5ZM8 11.5C6.6215 11.5 5.5 10.3785 5.5 9C5.5 7.6215 6.6215 6.5 8 6.5C9.3785 6.5 10.5 7.6215 10.5 9C10.5 10.3785 9.3785 11.5 8 11.5Z" fill="#7386C3"/>
</svg>
