<svg width="20" height="20" viewBox="0 0 20 20" fill="none" xmlns="http://www.w3.org/2000/svg">
<path d="M14.3031 3.42375C14.165 3.1 13.7981 2.98188 13.4806 3.09375L7.94625 5.44875C7.11406 5.80374 6.21849 5.98617 5.31375 5.985H2.855C2.42943 5.98533 2.02138 6.15454 1.72046 6.45546C1.41954 6.75639 1.25033 7.16443 1.25 7.59V12.2163C1.25033 12.6418 1.41954 13.0499 1.72046 13.3508C2.02138 13.6517 2.42943 13.8209 2.855 13.8213H3.5375V15.2769C3.538 15.7223 3.71516 16.1493 4.03011 16.4643C4.34506 16.7792 4.77209 16.9564 5.2175 16.9569H5.65687C5.82264 16.9569 5.98161 16.891 6.09882 16.7738C6.21603 16.6566 6.28187 16.4976 6.28187 16.3319C6.28187 16.1661 6.21603 16.0071 6.09882 15.8899C5.98161 15.7727 5.82264 15.7069 5.65687 15.7069H5.2175C5.10351 15.7067 4.99423 15.6614 4.91363 15.5808C4.83302 15.5001 4.78767 15.3909 4.7875 15.2769V13.8206H5.31375C6.22375 13.8206 7.10938 14.0019 7.94625 14.3581L13.47 16.7081C13.8575 16.9019 14.3763 16.5656 14.3512 16.1294V3.67688C14.3531 3.59006 14.3367 3.50383 14.3031 3.42375ZM2.5 12.2163V7.59C2.5 7.39438 2.65937 7.235 2.855 7.235H4.68875V12.5713H2.855C2.7609 12.5711 2.6707 12.5336 2.60416 12.4671C2.53762 12.4006 2.50017 12.3104 2.5 12.2163ZM5.93875 7.20375C6.79842 7.1393 7.6418 6.93494 8.43563 6.59875L13.1006 4.61438V15.1919L8.43563 13.2069C7.63625 12.8669 6.79812 12.6694 5.93875 12.6025V7.20375ZM18.125 9.35875H16.3656C16.1999 9.35875 16.0409 9.4246 15.9237 9.54181C15.8065 9.65902 15.7406 9.81799 15.7406 9.98375C15.7406 10.1495 15.8065 10.3085 15.9237 10.4257C16.0409 10.5429 16.1999 10.6088 16.3656 10.6088H18.125C18.2908 10.6088 18.4497 10.5429 18.5669 10.4257C18.6842 10.3085 18.75 10.1495 18.75 9.98375C18.75 9.81799 18.6842 9.65902 18.5669 9.54181C18.4497 9.4246 18.2908 9.35875 18.125 9.35875ZM16.3663 8.2925C16.46 8.2925 16.5556 8.27063 16.6456 8.22563L18.4056 7.34188C18.479 7.30503 18.5444 7.25408 18.5981 7.19195C18.6518 7.12983 18.6927 7.05773 18.7185 6.97979C18.7444 6.90185 18.7546 6.81958 18.7486 6.73769C18.7426 6.6558 18.7206 6.57588 18.6838 6.5025C18.6469 6.42913 18.596 6.36373 18.5338 6.31004C18.4717 6.25635 18.3996 6.21543 18.3217 6.1896C18.2437 6.16377 18.1615 6.15355 18.0796 6.15952C17.9977 6.16549 17.9178 6.18753 17.8444 6.22438L16.085 7.10875C15.9591 7.17186 15.8582 7.27565 15.7986 7.40329C15.7391 7.53093 15.7244 7.67495 15.757 7.81198C15.7895 7.94901 15.8674 8.07103 15.978 8.15825C16.0886 8.24547 16.2254 8.29278 16.3663 8.2925ZM16.085 12.8588L17.8444 13.7425C17.9179 13.7815 17.9985 13.8054 18.0815 13.8129C18.1644 13.8203 18.248 13.8111 18.3273 13.7858C18.4066 13.7605 18.4801 13.7196 18.5433 13.6655C18.6066 13.6114 18.6585 13.5452 18.6958 13.4708C18.7332 13.3963 18.7553 13.3152 18.7608 13.2321C18.7664 13.1491 18.7553 13.0657 18.7282 12.987C18.7011 12.9083 18.6586 12.8357 18.6031 12.7737C18.5476 12.7116 18.4802 12.6613 18.405 12.6256L16.6456 11.7419C16.498 11.6719 16.3289 11.6625 16.1745 11.7156C16.0201 11.7688 15.8926 11.8803 15.8193 12.0262C15.746 12.1722 15.7328 12.3411 15.7825 12.4967C15.8321 12.6522 15.9407 12.7822 16.085 12.8588Z" fill="#1255D0"/>
</svg>
