<svg width="16" height="16" viewBox="0 0 16 16" fill="none" xmlns="http://www.w3.org/2000/svg">
<mask id="mask0_227_238" style="mask-type:alpha" maskUnits="userSpaceOnUse" x="0" y="0" width="16" height="16">
<rect width="16" height="16" fill="#D9D9D9"/>
</mask>
<g mask="url(#mask0_227_238)">
<path d="M2.48874 15C2.07272 15 1.72059 14.8718 1.43235 14.6155C1.14412 14.3592 1 14.046 1 13.676V3.8732C1 3.50322 1.14412 3.19006 1.43235 2.93372C1.72059 2.67738 2.07272 2.54921 2.48874 2.54921H3.62891V1H4.89591V2.54921H11.1358V1H12.3711V2.54921H13.5113C13.9273 2.54921 14.2794 2.67738 14.5676 2.93372C14.8559 3.19006 15 3.50322 15 3.8732V13.676C15 14.046 14.8559 14.3592 14.5676 14.6155C14.2794 14.8718 13.9273 15 13.5113 15H2.48874ZM2.48874 13.9014H13.5113C13.5747 13.9014 13.6327 13.8779 13.6854 13.8309C13.7383 13.784 13.7647 13.7324 13.7647 13.676V6.8028H2.23529V13.676C2.23529 13.7324 2.26172 13.784 2.31456 13.8309C2.36726 13.8779 2.42532 13.9014 2.48874 13.9014ZM2.23529 5.7042H13.7647V3.8732C13.7647 3.81681 13.7383 3.76517 13.6854 3.7183C13.6327 3.6713 13.5747 3.64781 13.5113 3.64781H2.48874C2.42532 3.64781 2.36726 3.6713 2.31456 3.7183C2.26172 3.76517 2.23529 3.81681 2.23529 3.8732V5.7042Z" fill="#373940"/>
</g>
</svg>
