<svg width="16" height="16" viewBox="0 0 16 16" fill="none" xmlns="http://www.w3.org/2000/svg">
<mask id="mask0_391_287" style="mask-type:alpha" maskUnits="userSpaceOnUse" x="0" y="0" width="16" height="16">
<rect width="16" height="16" fill="#D9D9D9"/>
</mask>
<g mask="url(#mask0_391_287)">
<path d="M4.87183 13.6667C4.53939 13.6667 4.25539 13.5489 4.01983 13.3135C3.78439 13.0779 3.66667 12.794 3.66667 12.4615V4.00001H3V3.00001H6V2.41034H10V3.00001H13V4.00001H12.3333V12.4615C12.3333 12.7983 12.2167 13.0833 11.9833 13.3167C11.75 13.55 11.4649 13.6667 11.1282 13.6667H4.87183ZM11.3333 4.00001H4.66667V12.4615C4.66667 12.5214 4.68589 12.5706 4.72433 12.609C4.76278 12.6474 4.81194 12.6667 4.87183 12.6667H11.1282C11.1795 12.6667 11.2265 12.6453 11.2692 12.6025C11.3119 12.5598 11.3333 12.5128 11.3333 12.4615V4.00001ZM6.26933 11.3333H7.26917V5.33334H6.26933V11.3333ZM8.73083 11.3333H9.73067V5.33334H8.73083V11.3333Z" fill="black"/>
</g>
</svg>
