<svg width="24" height="24" viewBox="0 0 24 24" fill="none" xmlns="http://www.w3.org/2000/svg">
<mask id="mask0_386_7718" style="mask-type:alpha" maskUnits="userSpaceOnUse" x="0" y="0" width="24" height="24">
<rect width="24" height="24" fill="#373940"/>
</mask>
<g mask="url(#mask0_386_7718)">
<path d="M6.53206 17.4658H7.6045L14.2115 10.8493L13.1391 9.77534L6.53206 16.3918V17.4658ZM17.4863 9.73699L14.2307 6.51507L15.3031 5.4411C15.5968 5.14703 15.9574 5 16.3851 5C16.8128 5 17.1735 5.14703 17.4671 5.4411L18.5396 6.51507C18.8332 6.80913 18.9864 7.16393 18.9992 7.57945C19.012 7.99498 18.8715 8.34977 18.5779 8.64384L17.4863 9.73699ZM16.3755 10.8685L8.25563 19H5V15.7397L13.1199 7.60822L16.3755 10.8685Z" fill="#373737"/>
</g>
</svg>
