<svg width="16" height="16" viewBox="0 0 16 16" fill="none" xmlns="http://www.w3.org/2000/svg">
<mask id="mask0_386_7604" style="mask-type:alpha" maskUnits="userSpaceOnUse" x="0" y="0" width="16" height="16">
<rect width="16" height="16" fill="#D9D9D9"/>
</mask>
<g mask="url(#mask0_386_7604)">
<path d="M7.5896 13C7.42205 13 7.28188 12.9436 7.1691 12.8307C7.05621 12.7179 6.99977 12.5777 6.99977 12.4102V8.55133L3.26777 3.81033C3.13955 3.63933 3.12094 3.46156 3.21194 3.277C3.30305 3.09233 3.45671 3 3.67294 3H12.3266C12.5428 3 12.6965 3.09233 12.7876 3.277C12.8786 3.46156 12.86 3.63933 12.7318 3.81033L8.99977 8.55133V12.4102C8.99977 12.5777 8.94333 12.7179 8.83044 12.8307C8.71766 12.9436 8.57749 13 8.40993 13H7.5896ZM7.99977 8.2L11.2998 4H4.69977L7.99977 8.2Z" fill="#373940"/>
</g>
</svg>
