<svg width="24" height="24" viewBox="0 0 24 24" fill="none" xmlns="http://www.w3.org/2000/svg">
<path d="M19.2816 4.8756C17.1337 4.72481 14.9786 5.03959 12.9636 5.7984C12.5826 5.99025 12.2533 6.27095 12.0036 6.6168C11.7541 6.27072 11.4248 5.98998 11.0436 5.7984C9.02813 5.04131 6.8734 4.72659 4.7256 4.8756C4.25934 4.89121 3.81754 5.08795 3.494 5.42404C3.17045 5.76013 2.99066 6.20909 2.9928 6.6756V16.23C2.98895 16.7023 3.17242 17.157 3.50304 17.4943C3.83365 17.8317 4.28447 18.0243 4.7568 18.03C6.2628 18.0552 9.9588 18.21 11.7456 19.08C11.8248 19.1188 11.9118 19.1393 12 19.14C12.0912 19.1405 12.1812 19.1195 12.2628 19.0788C14.0496 18.2088 17.7456 18.054 19.2516 18.0288C19.7239 18.0231 20.1747 17.8305 20.5054 17.4931C20.836 17.1558 21.0194 16.7011 21.0156 16.2288V6.6744C21.0174 6.2079 20.8373 5.75906 20.5135 5.4232C20.1898 5.08734 19.7479 4.8909 19.2816 4.8756ZM4.1844 16.2288V6.6744C4.18427 6.51934 4.24418 6.37026 4.35156 6.2584C4.45895 6.14655 4.60546 6.0806 4.7604 6.0744C6.71586 5.9346 8.67878 6.20982 10.5204 6.882C10.7891 7.01725 11.0143 7.22561 11.1699 7.4831C11.3255 7.7406 11.4052 8.03679 11.4 8.3376V17.6628C9.23595 17.0956 7.00713 16.8132 4.77 16.8228C4.61382 16.8209 4.4647 16.7575 4.35505 16.6462C4.24539 16.535 4.18407 16.385 4.1844 16.2288ZM19.8156 16.2288C19.8165 16.3067 19.8022 16.3839 19.7732 16.4562C19.7443 16.5285 19.7015 16.5944 19.6471 16.6501C19.5927 16.7058 19.5279 16.7503 19.4563 16.7809C19.3847 16.8116 19.3078 16.8279 19.23 16.8288C16.9933 16.8172 14.7647 17.0963 12.6 17.6592V8.3376C12.5947 8.03707 12.6742 7.74112 12.8293 7.48367C12.9844 7.22623 13.209 7.0177 13.4772 6.882C15.0521 6.27757 16.733 5.99796 18.4188 6.06C18.7212 6.06 18.9984 6.06 19.2384 6.0744C19.3935 6.0803 19.5404 6.14611 19.648 6.258C19.7556 6.36989 19.8157 6.51915 19.8156 6.6744V16.2288Z" fill="white"/>
</svg>
