<svg width="24" height="24" viewBox="0 0 24 24" fill="none" xmlns="http://www.w3.org/2000/svg">
<g clip-path="url(#clip0_227_1920)">
<path d="M23.3803 9.88205L19.028 2.18189C18.6758 1.55888 18.0125 1.17188 17.2969 1.17188C16.5812 1.17188 15.9179 1.55888 15.5657 2.18194L14.8691 3.41433C14.5329 3.25178 14.1849 3.11486 13.8281 3.00473V2.20312C13.8281 0.985219 12.8431 0 11.625 0C10.4102 0 9.42188 0.988312 9.42188 2.20312V3.00431C6.38433 3.94608 4.17188 6.78197 4.17188 10.125V15.0689C4.17188 16.1828 3.61889 17.2426 2.67042 17.8746C2.44016 18.028 2.25135 18.236 2.12077 18.48C1.99018 18.724 1.92186 18.9964 1.92188 19.2731C1.92188 20.1995 2.67553 20.9531 3.60187 20.9531H7.98127C8.29209 22.6829 9.80709 24 11.625 24C13.4429 24 14.9579 22.6829 15.2687 20.9531H19.6481C20.5745 20.9531 21.3281 20.1995 21.3281 19.2731C21.3281 18.7118 21.0474 18.186 20.5799 17.8747C19.6395 17.2481 19.0781 16.1992 19.0781 15.0689V12.7031H21.7343C22.7768 12.7031 23.625 11.855 23.625 10.8124C23.6248 10.4864 23.5405 10.166 23.3803 9.88205ZM10.8281 2.20312C10.8281 1.76372 11.1856 1.40625 11.625 1.40625C12.0657 1.40625 12.4219 1.76236 12.4219 2.20312V2.71481C11.8922 2.65767 11.3579 2.65757 10.8281 2.71453V2.20312ZM11.625 22.5938C10.5865 22.5938 9.70725 21.9008 9.42417 20.9531H13.8258C13.5427 21.9008 12.6635 22.5938 11.625 22.5938ZM19.8004 19.0451C19.8379 19.0702 19.8686 19.1041 19.8898 19.1439C19.911 19.1836 19.922 19.228 19.9219 19.2731C19.9219 19.4241 19.7991 19.5469 19.6481 19.5469H3.60187C3.39333 19.5469 3.26442 19.3233 3.35986 19.1444C3.38124 19.1044 3.41213 19.0703 3.44981 19.045C4.77459 18.1626 5.57812 16.671 5.57812 15.0689V10.125C5.57812 6.79073 8.29073 4.07812 11.625 4.07812C12.506 4.07784 13.3765 4.27021 14.1754 4.64175L11.2135 9.88205C11.0532 10.166 10.9689 10.4864 10.9688 10.8124C10.9688 11.855 11.8169 12.7031 12.8595 12.7031H17.6719V15.0689C17.6719 16.6706 18.4675 18.1569 19.8004 19.0451ZM21.7343 11.2969H12.8595C12.4888 11.2969 12.256 10.8956 12.4377 10.574L16.7899 2.87391C17.0125 2.48034 17.5811 2.47997 17.8038 2.87386L22.1561 10.574C22.3377 10.8955 22.105 11.2969 21.7343 11.2969Z" fill="white"/>
<path d="M17.2969 7.82812C17.6852 7.82812 18 7.51331 18 7.125V5.25C18 4.86169 17.6852 4.54688 17.2969 4.54688C16.9086 4.54688 16.5938 4.86169 16.5938 5.25V7.125C16.5938 7.51331 16.9086 7.82812 17.2969 7.82812Z" fill="white"/>
<path d="M17.2969 10.0784C17.6853 10.0784 18.0002 9.76345 18.0002 9.375C18.0002 8.98654 17.6853 8.67164 17.2969 8.67164C16.9084 8.67164 16.5935 8.98654 16.5935 9.375C16.5935 9.76345 16.9084 10.0784 17.2969 10.0784Z" fill="white"/>
<path d="M4.82812 3.04688C3.82008 3.04688 3 3.86695 3 4.875C3 5.26331 3.31481 5.57812 3.70312 5.57812C4.09144 5.57812 4.40625 5.26331 4.40625 4.875C4.40625 4.64236 4.59548 4.45312 4.82812 4.45312C5.21644 4.45312 5.53125 4.13831 5.53125 3.75C5.53125 3.36169 5.21644 3.04688 4.82812 3.04688Z" fill="white"/>
<path d="M4.82812 1.82812C5.21644 1.82812 5.53125 1.51331 5.53125 1.125C5.53125 0.736687 5.21644 0.421875 4.82812 0.421875C2.37267 0.421875 0.375 2.41955 0.375 4.875C0.375 5.26331 0.689812 5.57812 1.07812 5.57812C1.46644 5.57812 1.78125 5.26331 1.78125 4.875C1.78125 3.19495 3.14808 1.82812 4.82812 1.82812Z" fill="white"/>
</g>
<defs>
<clipPath id="clip0_227_1920">
<rect width="24" height="24" fill="white"/>
</clipPath>
</defs>
</svg>
