<svg width="24" height="24" viewBox="0 0 24 24" fill="none" xmlns="http://www.w3.org/2000/svg">
<path fill-rule="evenodd" clip-rule="evenodd" d="M22.75 12V6.75C22.7495 5.7556 22.3542 4.80208 21.6511 4.09893C20.9479 3.39579 19.9944 3.00053 19 3H5C4.00544 3 3.05161 3.39509 2.34835 4.09835C1.64509 4.80161 1.25 5.75544 1.25 6.75V18.75C1.25 19.7446 1.64509 20.6984 2.34835 21.4017C3.05161 22.1049 4.00544 22.5 5 22.5H12C12.1989 22.5 12.3897 22.421 12.5303 22.2803C12.671 22.1397 12.75 21.9489 12.75 21.75C12.75 21.5511 12.671 21.3603 12.5303 21.2197C12.3897 21.079 12.1989 21 12 21H5C4.40326 21 3.83097 20.7629 3.40901 20.341C2.98705 19.919 2.75 19.3467 2.75 18.75V6.75C2.75 6.15326 2.98705 5.58097 3.40901 5.15901C3.83097 4.73705 4.40326 4.5 5 4.5H19C19.5967 4.5 20.169 4.73705 20.591 5.15901C21.0129 5.58097 21.25 6.15326 21.25 6.75V12C21.25 12.1989 21.329 12.3897 21.4697 12.5303C21.6103 12.671 21.8011 12.75 22 12.75C22.1989 12.75 22.3897 12.671 22.5303 12.5303C22.671 12.3897 22.75 12.1989 22.75 12Z" fill="white"/>
<path fill-rule="evenodd" clip-rule="evenodd" d="M22 9H2C1.80109 9 1.61032 9.07902 1.46967 9.21967C1.32902 9.36032 1.25 9.55109 1.25 9.75C1.25 9.94891 1.32902 10.1397 1.46967 10.2803C1.61032 10.421 1.80109 10.5 2 10.5H22C22.1989 10.5 22.3897 10.421 22.5303 10.2803C22.671 10.1397 22.75 9.94891 22.75 9.75C22.75 9.55109 22.671 9.36032 22.5303 9.21967C22.3897 9.07902 22.1989 9 22 9ZM6.75 2V5.5C6.75 5.69891 6.82902 5.88968 6.96967 6.03033C7.11032 6.17098 7.30109 6.25 7.5 6.25C7.69891 6.25 7.88968 6.17098 8.03033 6.03033C8.17098 5.88968 8.25 5.69891 8.25 5.5V2C8.25 1.80109 8.17098 1.61032 8.03033 1.46967C7.88968 1.32902 7.69891 1.25 7.5 1.25C7.30109 1.25 7.11032 1.32902 6.96967 1.46967C6.82902 1.61032 6.75 1.80109 6.75 2ZM15.75 2V5.5C15.75 5.69891 15.829 5.88968 15.9697 6.03033C16.1103 6.17098 16.3011 6.25 16.5 6.25C16.6989 6.25 16.8897 6.17098 17.0303 6.03033C17.171 5.88968 17.25 5.69891 17.25 5.5V2C17.25 1.80109 17.171 1.61032 17.0303 1.46967C16.8897 1.32902 16.6989 1.25 16.5 1.25C16.3011 1.25 16.1103 1.32902 15.9697 1.46967C15.829 1.61032 15.75 1.80109 15.75 2ZM17.5 12.25C14.602 12.25 12.25 14.602 12.25 17.5C12.25 20.398 14.602 22.75 17.5 22.75C20.398 22.75 22.75 20.398 22.75 17.5C22.75 14.602 20.398 12.25 17.5 12.25ZM17.5 13.75C19.57 13.75 21.25 15.43 21.25 17.5C21.25 19.57 19.57 21.25 17.5 21.25C15.43 21.25 13.75 19.57 13.75 17.5C13.75 15.43 15.43 13.75 17.5 13.75Z" fill="white"/>
<path fill-rule="evenodd" clip-rule="evenodd" d="M14.97 17.78L16.47 19.28C16.5396 19.3497 16.6222 19.4049 16.7131 19.4426C16.8041 19.4803 16.9016 19.4997 17 19.4997C17.0985 19.4997 17.196 19.4803 17.2869 19.4426C17.3778 19.4049 17.4605 19.3497 17.53 19.28L20.03 16.78C20.0996 16.7104 20.1548 16.6278 20.1925 16.5368C20.2302 16.4459 20.2496 16.3484 20.2496 16.25C20.2496 16.1516 20.2302 16.0541 20.1925 15.9632C20.1548 15.8722 20.0996 15.7896 20.03 15.72C19.9604 15.6504 19.8778 15.5952 19.7869 15.5575C19.6959 15.5198 19.5985 15.5005 19.5 15.5005C19.4016 15.5005 19.3041 15.5198 19.2132 15.5575C19.1222 15.5952 19.0396 15.6504 18.97 15.72L17 17.689L16.03 16.72C15.9604 16.6504 15.8778 16.5952 15.7869 16.5575C15.6959 16.5198 15.5985 16.5005 15.5 16.5005C15.4016 16.5005 15.3041 16.5198 15.2132 16.5575C15.1223 16.5952 15.0396 16.6504 14.97 16.72C14.9004 16.7896 14.8452 16.8722 14.8075 16.9632C14.7699 17.0541 14.7505 17.1516 14.7505 17.25C14.7505 17.3484 14.7699 17.4459 14.8075 17.5368C14.8452 17.6278 14.9004 17.7104 14.97 17.78Z" fill="white"/>
</svg>
