<svg width="24" height="24" viewBox="0 0 24 24" fill="none" xmlns="http://www.w3.org/2000/svg">
<path d="M15.1365 12.465C15.7983 11.9764 16.3362 11.3393 16.7072 10.6051C17.0781 9.87086 17.2718 9.05987 17.2725 8.23725C17.2725 5.33025 14.9077 2.9655 12.0007 2.9655C9.09374 2.9655 6.72899 5.33025 6.72899 8.23725C6.72972 9.05987 6.92334 9.87086 7.2943 10.6051C7.66526 11.3393 8.20322 11.9764 8.86499 12.465C6.56024 13.2397 4.89374 15.4163 4.89374 17.9783V18.7132C4.89374 19.5847 5.51249 20.3363 6.36524 20.4998C10.0893 21.211 13.9144 21.211 17.6385 20.4998C18.0529 20.419 18.4263 20.1965 18.6946 19.8706C18.963 19.5446 19.1096 19.1355 19.1092 18.7132V17.9783C19.1077 15.4163 17.4405 13.2397 15.1365 12.465ZM8.07824 8.23725C8.07824 6.075 9.83774 4.3155 12 4.3155C14.1622 4.3155 15.9217 6.075 15.9217 8.23725C15.9217 10.3995 14.1622 12.159 12 12.159C9.83774 12.159 8.07824 10.4002 8.07824 8.23725ZM17.757 18.7132C17.757 18.9382 17.5995 19.1325 17.3827 19.1737C13.8264 19.8503 10.1744 19.8503 6.61799 19.1737C6.51179 19.1524 6.41632 19.0947 6.34792 19.0107C6.27951 18.9267 6.24242 18.8216 6.24299 18.7132V17.9783C6.24418 16.7934 6.71532 15.6575 7.55305 14.8196C8.39078 13.9817 9.52666 13.5104 10.7115 13.509H13.2885C14.4733 13.5104 15.6092 13.9817 16.4469 14.8196C17.2847 15.6575 17.7558 16.7934 17.757 17.9783V18.7132Z" fill="white"/>
<path d="M20.2943 12.2228C20.7413 11.8176 21.099 11.3237 21.3445 10.7725C21.59 10.2214 21.7179 9.62509 21.72 9.02175C21.7231 8.15582 21.464 7.30923 20.9767 6.59341C20.4894 5.87759 19.7968 5.32609 18.99 5.0115C18.8235 4.94586 18.6378 4.94904 18.4736 5.02036C18.3095 5.09167 18.1804 5.22526 18.1148 5.39175C18.0491 5.55824 18.0523 5.74399 18.1236 5.90813C18.1949 6.07227 18.3285 6.20136 18.495 6.267C19.049 6.48304 19.5246 6.86179 19.8592 7.35338C20.1937 7.84498 20.3716 8.42637 20.3693 9.021C20.367 9.61958 20.1846 10.2036 19.846 10.6972C19.5073 11.1908 19.0279 11.571 18.4703 11.7885C18.3298 11.8419 18.2111 11.9407 18.1332 12.0693C18.0553 12.1978 18.0226 12.3487 18.0403 12.498C18.058 12.6473 18.125 12.7863 18.2308 12.8931C18.3365 13 18.4749 13.0684 18.624 13.0875C20.2988 13.3088 21.825 15.0458 21.825 16.731V17.3085C21.825 17.4187 21.747 17.5185 21.6405 17.5395C21.5078 17.5658 21.3698 17.5898 21.2273 17.6145L20.9393 17.6648C20.768 17.7017 20.6178 17.8038 20.5204 17.9495C20.423 18.0952 20.3861 18.273 20.4175 18.4454C20.4488 18.6178 20.546 18.7712 20.6884 18.8733C20.8309 18.9753 21.0074 19.018 21.1808 18.9923L21.4553 18.9443C21.6098 18.9173 21.7605 18.8917 21.903 18.8632C22.262 18.791 22.5849 18.5966 22.8168 18.3132C23.0487 18.0297 23.1753 17.6747 23.175 17.3085V16.731C23.175 14.8703 21.9555 13.0725 20.2943 12.2228ZM3.06076 17.6663L2.77276 17.616C2.63101 17.5913 2.49226 17.568 2.35726 17.5402C2.30523 17.5283 2.25882 17.499 2.22569 17.4571C2.19256 17.4153 2.17468 17.3634 2.17501 17.31V16.7325C2.17501 15.0472 3.70051 13.3103 5.37601 13.089C5.52467 13.0693 5.66252 13.0006 5.76781 12.8938C5.87309 12.787 5.93981 12.6481 5.95744 12.4992C5.97506 12.3503 5.94259 12.1997 5.86515 12.0713C5.78771 11.9429 5.6697 11.8439 5.52976 11.79C4.97202 11.5726 4.49262 11.1924 4.15393 10.6988C3.81525 10.2052 3.63295 9.62111 3.63076 9.0225C3.63076 7.7985 4.36576 6.717 5.50501 6.2685C5.6716 6.20286 5.80529 6.07373 5.87667 5.90952C5.94805 5.74531 5.95128 5.55946 5.88564 5.39288C5.82 5.22629 5.69087 5.0926 5.52665 5.02122C5.36244 4.94983 5.1766 4.94661 5.01001 5.01225C4.20324 5.32684 3.51062 5.87834 3.02333 6.59416C2.53603 7.30998 2.27689 8.15657 2.28001 9.0225C2.28001 10.257 2.82001 11.418 3.70576 12.2235C2.04451 13.0725 0.825012 14.8702 0.825012 16.7325V17.31C0.825012 18.066 1.36051 18.72 2.09476 18.864C2.23876 18.8933 2.39026 18.9187 2.54476 18.9458L2.81926 18.9938C2.90652 19.0101 2.99614 19.009 3.08296 18.9905C3.16977 18.9719 3.25207 18.9364 3.32508 18.8859C3.39809 18.8355 3.46037 18.771 3.50834 18.6963C3.5563 18.6216 3.58899 18.5381 3.60451 18.4508C3.63642 18.2746 3.59706 18.093 3.49509 17.9459C3.39312 17.7988 3.23689 17.6982 3.06076 17.6663Z" fill="white"/>
</svg>
