<svg width="24" height="24" viewBox="0 0 24 24" fill="none" xmlns="http://www.w3.org/2000/svg">
<g clip-path="url(#clip0_227_1890)">
<path d="M7.50003 0.75C4.66615 0.75 2.24178 2.49638 1.24128 4.96875C1.17188 5.15203 1.17699 5.3552 1.2555 5.53477C1.33401 5.71433 1.47969 5.85604 1.66137 5.92955C1.84304 6.00306 2.04627 6.00254 2.22756 5.9281C2.40885 5.85366 2.55381 5.71122 2.6314 5.53125C3.41065 3.606 5.29765 2.25 7.50003 2.25H16.5C19.3995 2.25 21.75 4.6005 21.75 7.5V16.5C21.75 19.3995 19.3995 21.75 16.5 21.75H14.625C14.4261 21.75 14.2353 21.829 14.0947 21.9697C13.954 22.1103 13.875 22.3011 13.875 22.5C13.875 22.6989 13.954 22.8897 14.0947 23.0303C14.2353 23.171 14.4261 23.25 14.625 23.25H16.5C20.2279 23.25 23.25 20.2279 23.25 16.5V7.5C23.25 3.77213 20.2279 0.75 16.5 0.75H7.50003Z" fill="white"/>
<path d="M15 8.25C14.8011 8.25 14.6103 8.32902 14.4697 8.46967C14.329 8.61032 14.25 8.80109 14.25 9C14.25 9.19891 14.329 9.38968 14.4697 9.53033C14.6103 9.67098 14.8011 9.75 15 9.75H18.375C18.5739 9.75 18.7647 9.67098 18.9053 9.53033C19.046 9.38968 19.125 9.19891 19.125 9C19.125 8.80109 19.046 8.61032 18.9053 8.46967C18.7647 8.32902 18.5739 8.25 18.375 8.25H15ZM15 11.25C14.8011 11.25 14.6103 11.329 14.4697 11.4697C14.329 11.6103 14.25 11.8011 14.25 12C14.25 12.1989 14.329 12.3897 14.4697 12.5303C14.6103 12.671 14.8011 12.75 15 12.75H18.375C18.5739 12.75 18.7647 12.671 18.9053 12.5303C19.046 12.3897 19.125 12.1989 19.125 12C19.125 11.8011 19.046 11.6103 18.9053 11.4697C18.7647 11.329 18.5739 11.25 18.375 11.25H15ZM15 14.25C14.8011 14.25 14.6103 14.329 14.4697 14.4697C14.329 14.6103 14.25 14.8011 14.25 15C14.25 15.1989 14.329 15.3897 14.4697 15.5303C14.6103 15.671 14.8011 15.75 15 15.75H18.375C18.5739 15.75 18.7647 15.671 18.9053 15.5303C19.046 15.3897 19.125 15.1989 19.125 15C19.125 14.8011 19.046 14.6103 18.9053 14.4697C18.7647 14.329 18.5739 14.25 18.375 14.25H15ZM9.375 5.25C9.17609 5.25 8.98532 5.32902 8.84467 5.46967C8.70402 5.61032 8.625 5.80109 8.625 6C8.625 6.19891 8.70402 6.38968 8.84467 6.53033C8.98532 6.67098 9.17609 6.75 9.375 6.75H18.375C18.5739 6.75 18.7647 6.67098 18.9053 6.53033C19.046 6.38968 19.125 6.19891 19.125 6C19.125 5.80109 19.046 5.61032 18.9053 5.46967C18.7647 5.32902 18.5739 5.25 18.375 5.25H9.375ZM4.875 16.5C4.875 16.6989 4.79598 16.8897 4.65533 17.0303C4.51468 17.171 4.32391 17.25 4.125 17.25C3.92609 17.25 3.73532 17.171 3.59467 17.0303C3.45402 16.8897 3.375 16.6989 3.375 16.5C3.375 16.3011 3.45402 16.1103 3.59467 15.9697C3.73532 15.829 3.92609 15.75 4.125 15.75C4.32391 15.75 4.51468 15.829 4.65533 15.9697C4.79598 16.1103 4.875 16.3011 4.875 16.5ZM4.125 19.875C4.32391 19.875 4.51468 19.796 4.65533 19.6553C4.79598 19.5147 4.875 19.3239 4.875 19.125C4.875 18.9261 4.79598 18.7353 4.65533 18.5947C4.51468 18.454 4.32391 18.375 4.125 18.375C3.92609 18.375 3.73532 18.454 3.59467 18.5947C3.45402 18.7353 3.375 18.9261 3.375 19.125C3.375 19.3239 3.45402 19.5147 3.59467 19.6553C3.73532 19.796 3.92609 19.875 4.125 19.875ZM7.875 16.5C7.875 16.6989 7.79598 16.8897 7.65533 17.0303C7.51468 17.171 7.32391 17.25 7.125 17.25C6.92609 17.25 6.73532 17.171 6.59467 17.0303C6.45402 16.8897 6.375 16.6989 6.375 16.5C6.375 16.3011 6.45402 16.1103 6.59467 15.9697C6.73532 15.829 6.92609 15.75 7.125 15.75C7.32391 15.75 7.51468 15.829 7.65533 15.9697C7.79598 16.1103 7.875 16.3011 7.875 16.5ZM7.125 19.875C7.32391 19.875 7.51468 19.796 7.65533 19.6553C7.79598 19.5147 7.875 19.3239 7.875 19.125C7.875 18.9261 7.79598 18.7353 7.65533 18.5947C7.51468 18.454 7.32391 18.375 7.125 18.375C6.92609 18.375 6.73532 18.454 6.59467 18.5947C6.45402 18.7353 6.375 18.9261 6.375 19.125C6.375 19.3239 6.45402 19.5147 6.59467 19.6553C6.73532 19.796 6.92609 19.875 7.125 19.875ZM10.875 16.5C10.875 16.6989 10.796 16.8897 10.6553 17.0303C10.5147 17.171 10.3239 17.25 10.125 17.25C9.92609 17.25 9.73532 17.171 9.59467 17.0303C9.45402 16.8897 9.375 16.6989 9.375 16.5C9.375 16.3011 9.45402 16.1103 9.59467 15.9697C9.73532 15.829 9.92609 15.75 10.125 15.75C10.3239 15.75 10.5147 15.829 10.6553 15.9697C10.796 16.1103 10.875 16.3011 10.875 16.5ZM10.125 19.875C10.3239 19.875 10.5147 19.796 10.6553 19.6553C10.796 19.5147 10.875 19.3239 10.875 19.125C10.875 18.9261 10.796 18.7353 10.6553 18.5947C10.5147 18.454 10.3239 18.375 10.125 18.375C9.92609 18.375 9.73532 18.454 9.59467 18.5947C9.45402 18.7353 9.375 18.9261 9.375 19.125C9.375 19.3239 9.45402 19.5147 9.59467 19.6553C9.73532 19.796 9.92609 19.875 10.125 19.875Z" fill="white"/>
<path fill-rule="evenodd" clip-rule="evenodd" d="M0.75 10.5C0.75 9.70435 1.06607 8.94129 1.62868 8.37868C2.19129 7.81607 2.95435 7.5 3.75 7.5H10.5C11.2956 7.5 12.0587 7.81607 12.6213 8.37868C13.1839 8.94129 13.5 9.70435 13.5 10.5V20.25C13.5 21.0456 13.1839 21.8087 12.6213 22.3713C12.0587 22.9339 11.2956 23.25 10.5 23.25H3.75C2.95435 23.25 2.19129 22.9339 1.62868 22.3713C1.06607 21.8087 0.75 21.0456 0.75 20.25V10.5ZM2.25 13.875V20.25C2.25 20.6478 2.40804 21.0294 2.68934 21.3107C2.97064 21.592 3.35218 21.75 3.75 21.75H10.5C10.8978 21.75 11.2794 21.592 11.5607 21.3107C11.842 21.0294 12 20.6478 12 20.25V13.875H2.25ZM12 12.375H2.25V10.5C2.25 10.1022 2.40804 9.72064 2.68934 9.43934C2.97064 9.15804 3.35218 9 3.75 9H10.5C10.8978 9 11.2794 9.15804 11.5607 9.43934C11.842 9.72064 12 10.1022 12 10.5V12.375Z" fill="white"/>
</g>
<defs>
<clipPath id="clip0_227_1890">
<rect width="24" height="24" fill="white"/>
</clipPath>
</defs>
</svg>
