<svg width="18" height="22" viewBox="0 0 18 22" fill="none" xmlns="http://www.w3.org/2000/svg">
<path d="M8.50726 19.625H2.70376C2.29876 19.625 1.96801 19.295 1.96801 18.8892V14.7845C1.96801 13.7172 2.50501 12.7332 3.39526 12.1572L3.55876 12.0553L3.57151 12.047C3.72824 11.9396 3.83742 11.7759 3.87624 11.5899C3.91507 11.4039 3.88052 11.2101 3.77984 11.049C3.67915 10.8879 3.5201 10.772 3.33593 10.7254C3.15175 10.6788 2.9567 10.7052 2.79151 10.799L2.60626 10.9152C1.9584 11.3317 1.42569 11.9044 1.05715 12.5807C0.68861 13.257 0.496074 14.0151 0.497259 14.7853V18.8892C0.497854 19.4743 0.730516 20.0352 1.14419 20.4488C1.55786 20.8625 2.11874 21.0952 2.70376 21.0958H8.50726C8.70239 21.0958 8.88953 21.0182 9.02751 20.8803C9.16549 20.7423 9.24301 20.5551 9.24301 20.36C9.24301 20.1649 9.16549 19.9777 9.02751 19.8397C8.88953 19.7018 8.70239 19.625 8.50726 19.625ZM12.7238 11.033C12.6202 11.1984 12.5866 11.3981 12.6304 11.5883C12.6741 11.7785 12.7916 11.9435 12.957 12.047L13.125 12.152C13.529 12.4122 13.8676 12.7621 14.1145 13.1744C14.3614 13.5868 14.5099 14.0505 14.5485 14.5295C14.5556 14.6258 14.5816 14.7197 14.625 14.8059C14.6684 14.8922 14.7283 14.969 14.8014 15.0321C14.8745 15.0951 14.9593 15.1432 15.051 15.1735C15.1426 15.2038 15.2394 15.2157 15.3356 15.2086C15.4319 15.2015 15.5258 15.1755 15.6121 15.1322C15.6983 15.0888 15.7752 15.0288 15.8382 14.9557C15.9013 14.8826 15.9493 14.7978 15.9796 14.7062C16.0099 14.6145 16.0219 14.5178 16.0148 14.4215C15.9587 13.7139 15.7399 13.0289 15.3755 12.4198C15.0111 11.8107 14.511 11.294 13.914 10.91L13.737 10.799C13.6551 10.7478 13.564 10.7132 13.4687 10.6973C13.3735 10.6813 13.276 10.6843 13.1819 10.706C13.0878 10.7277 12.9989 10.7678 12.9203 10.8239C12.8417 10.88 12.7749 10.9511 12.7238 11.033ZM8.26501 11.1875C11.211 11.1875 13.608 8.7905 13.608 5.8445C13.608 2.897 11.211 0.5 8.26501 0.5C5.31901 0.5 2.92051 2.89775 2.92051 5.8445C2.92051 8.7905 5.31826 11.1882 8.26426 11.1882L8.26501 11.1875ZM8.26501 1.97075C10.4003 1.97075 12.1373 3.7085 12.1373 5.8445C12.1373 7.9805 10.4003 9.71675 8.26426 9.71675C6.12826 9.71675 4.39201 7.97975 4.39201 5.8445C4.39201 3.70925 6.12901 1.97075 8.26426 1.97075H8.26501ZM17.2875 16.4938C17.2192 16.4254 17.1382 16.3711 17.0489 16.3341C16.9597 16.2971 16.864 16.2781 16.7674 16.2781C16.6708 16.2781 16.5751 16.2971 16.4858 16.3341C16.3966 16.3711 16.3155 16.4254 16.2473 16.4938L13.017 19.724L11.403 18.11C11.2651 17.9721 11.078 17.8946 10.8829 17.8946C10.6878 17.8946 10.5007 17.9721 10.3628 18.11C10.2248 18.2479 10.1473 18.435 10.1473 18.6301C10.1473 18.8252 10.2248 19.0123 10.3628 19.1502L12.4965 21.2847C12.5648 21.3531 12.6459 21.4074 12.7351 21.4444C12.8243 21.4814 12.92 21.5004 13.0166 21.5004C13.1133 21.5004 13.2089 21.4814 13.2982 21.4444C13.3874 21.4074 13.4685 21.3531 13.5368 21.2847L17.2875 17.534C17.3559 17.4657 17.4101 17.3847 17.4471 17.2954C17.4841 17.2062 17.5032 17.1105 17.5032 17.0139C17.5032 16.9173 17.4841 16.8216 17.4471 16.7323C17.4101 16.6431 17.3559 16.562 17.2875 16.4938Z" fill="white"/>
</svg>
