<svg width="25" height="25" viewBox="0 0 25 25" fill="none" xmlns="http://www.w3.org/2000/svg">
<mask id="mask0_227_1972" style="mask-type:alpha" maskUnits="userSpaceOnUse" x="0" y="0" width="25" height="25">
<rect x="0.583496" y="0.100006" width="24" height="24" fill="#D9D9D9"/>
</mask>
<g mask="url(#mask0_227_1972)">
<path d="M11.8335 16.85H13.3335V11.1H11.8335V16.85ZM12.5835 9.38851C12.8123 9.38851 13.0042 9.31109 13.159 9.15626C13.3138 9.00142 13.3912 8.80959 13.3912 8.58076C13.3912 8.35192 13.3138 8.16009 13.159 8.00526C13.0042 7.85059 12.8123 7.77326 12.5835 7.77326C12.3547 7.77326 12.1628 7.85059 12.008 8.00526C11.8532 8.16009 11.7757 8.35192 11.7757 8.58076C11.7757 8.80959 11.8532 9.00142 12.008 9.15626C12.1628 9.31109 12.3547 9.38851 12.5835 9.38851ZM12.5852 21.6C11.2712 21.6 10.0362 21.3507 8.88 20.852C7.72383 20.3533 6.71816 19.6766 5.863 18.8218C5.00783 17.9669 4.33075 16.9617 3.83175 15.806C3.33291 14.6503 3.0835 13.4156 3.0835 12.1018C3.0835 10.7878 3.33283 9.55267 3.8315 8.39651C4.33016 7.24034 5.00691 6.23467 5.86175 5.37951C6.71658 4.52434 7.72183 3.84726 8.8775 3.34826C10.0332 2.84942 11.2679 2.60001 12.5817 2.60001C13.8957 2.60001 15.1308 2.84934 16.287 3.34801C17.4432 3.84667 18.4488 4.52342 19.304 5.37826C20.1592 6.23309 20.8362 7.23834 21.3352 8.39401C21.8341 9.54967 22.0835 10.7844 22.0835 12.0983C22.0835 13.4123 21.8342 14.6473 21.3355 15.8035C20.8368 16.9597 20.1601 17.9653 19.3052 18.8205C18.4504 19.6757 17.4452 20.3528 16.2895 20.8518C15.1338 21.3506 13.8991 21.6 12.5852 21.6ZM12.5835 20.1C14.8168 20.1 16.7085 19.325 18.2585 17.775C19.8085 16.225 20.5835 14.3333 20.5835 12.1C20.5835 9.86667 19.8085 7.97501 18.2585 6.42501C16.7085 4.87501 14.8168 4.10001 12.5835 4.10001C10.3502 4.10001 8.4585 4.87501 6.9085 6.42501C5.3585 7.97501 4.5835 9.86667 4.5835 12.1C4.5835 14.3333 5.3585 16.225 6.9085 17.775C8.4585 19.325 10.3502 20.1 12.5835 20.1Z" fill="white"/>
</g>
</svg>
