<svg width="16" height="20" viewBox="0 0 16 20" fill="none" xmlns="http://www.w3.org/2000/svg">
<path d="M3.8335 9.85001V8.35001H11.3335V9.85001H3.8335ZM3.8335 5.85001V4.35001H11.3335V5.85001H3.8335ZM1.5835 12.35H9.0835C9.52833 12.35 9.93983 12.4462 10.318 12.6385C10.6963 12.8308 11.0175 13.1026 11.2815 13.4538L13.5835 16.454V2.40776C13.5835 2.31792 13.5547 2.24417 13.497 2.18651C13.4393 2.12884 13.3656 2.10001 13.2757 2.10001H1.89125C1.80141 2.10001 1.72766 2.12884 1.67 2.18651C1.61233 2.24417 1.5835 2.31792 1.5835 2.40776V12.35ZM1.89125 18.1H12.9507L10.1007 14.3713C9.97508 14.2058 9.82541 14.0775 9.65175 13.9865C9.47808 13.8955 9.28866 13.85 9.0835 13.85H1.5835V17.7923C1.5835 17.8821 1.61233 17.9558 1.67 18.0135C1.72766 18.0712 1.80141 18.1 1.89125 18.1ZM13.2757 19.6H1.89125C1.38608 19.6 0.958496 19.425 0.608496 19.075C0.258496 18.725 0.0834961 18.2974 0.0834961 17.7923V2.40776C0.0834961 1.90259 0.258496 1.47501 0.608496 1.12501C0.958496 0.775006 1.38608 0.600006 1.89125 0.600006H13.2757C13.7809 0.600006 14.2085 0.775006 14.5585 1.12501C14.9085 1.47501 15.0835 1.90259 15.0835 2.40776V17.7923C15.0835 18.2974 14.9085 18.725 14.5585 19.075C14.2085 19.425 13.7809 19.6 13.2757 19.6Z" fill="white"/>
</svg>
