<svg width="20" height="20" viewBox="0 0 20 20" fill="none" xmlns="http://www.w3.org/2000/svg">
<mask id="mask0_227_2243" style="mask-type:alpha" maskUnits="userSpaceOnUse" x="0" y="0" width="20" height="20">
<rect width="20" height="20" fill="#D9D9D9"/>
</mask>
<g mask="url(#mask0_227_2243)">
<path d="M2.17957 8.26123C2.17957 7.03262 2.44047 5.89852 2.96227 4.85894C3.48422 3.81949 4.18859 2.94185 5.0754 2.22602L5.84602 3.19873C5.10352 3.79915 4.51512 4.53526 4.08082 5.40706C3.64665 6.27887 3.42957 7.23026 3.42957 8.26123H2.17957ZM16.5704 8.26123C16.5704 7.23026 16.3533 6.27755 15.9192 5.4031C15.4848 4.52866 14.8964 3.79116 14.1539 3.19061L14.9246 2.22602C15.8114 2.94185 16.5157 3.81949 17.0377 4.85894C17.5595 5.89852 17.8204 7.03262 17.8204 8.26123H16.5704ZM3.74998 15.7371V14.4873H5.25644V8.26915C5.25644 7.14845 5.60234 6.15755 6.29415 5.29644C6.98582 4.43533 7.87387 3.88456 8.95832 3.64415V3.12498C8.95832 2.83651 9.05984 2.59081 9.2629 2.3879C9.46582 2.18484 9.71151 2.08331 9.99998 2.08331C10.2885 2.08331 10.5341 2.18484 10.7371 2.3879C10.9401 2.59081 11.0416 2.83651 11.0416 3.12498V3.64415C12.1261 3.88456 13.0141 4.43533 13.7058 5.29644C14.3976 6.15755 14.7435 7.14845 14.7435 8.26915V14.4873H16.25V15.7371H3.74998ZM9.99998 18.0769C9.58443 18.0769 9.2295 17.9297 8.93519 17.6354C8.64075 17.3411 8.49352 16.9861 8.49352 16.5704H11.5064C11.5064 16.9861 11.3592 17.3411 11.0648 17.6354C10.7705 17.9297 10.4155 18.0769 9.99998 18.0769ZM6.50644 14.4873H13.4935V8.26915C13.4935 7.30442 13.1525 6.48102 12.4704 5.79894C11.7882 5.11672 10.9647 4.7756 9.99998 4.7756C9.03526 4.7756 8.21179 5.11672 7.52957 5.79894C6.84748 6.48102 6.50644 7.30442 6.50644 8.26915V14.4873Z" fill="#1255D0"/>
</g>
</svg>
