<svg width="25" height="25" viewBox="0 0 25 25" fill="none" xmlns="http://www.w3.org/2000/svg">
<mask id="mask0_227_1943" style="mask-type:alpha" maskUnits="userSpaceOnUse" x="0" y="0" width="25" height="25">
<rect x="0.431152" y="0.454102" width="24" height="24" fill="#D9D9D9"/>
</mask>
<g mask="url(#mask0_227_1943)">
<path d="M14.1812 13.1656C13.4825 13.1656 12.8912 12.9236 12.4072 12.4396C11.9232 11.9556 11.6812 11.3643 11.6812 10.6656C11.6812 9.96694 11.9232 9.3756 12.4072 8.8916C12.8912 8.4076 13.4825 8.1656 14.1812 8.1656C14.8798 8.1656 15.4712 8.4076 15.9552 8.8916C16.4392 9.3756 16.6812 9.96694 16.6812 10.6656C16.6812 11.3643 16.4392 11.9556 15.9552 12.4396C15.4712 12.9236 14.8798 13.1656 14.1812 13.1656ZM7.5849 16.2619C7.0879 16.2619 6.6624 16.0849 6.3084 15.7309C5.9544 15.3769 5.7774 14.9513 5.7774 14.4541V6.8771C5.7774 6.3801 5.9544 5.9546 6.3084 5.6006C6.6624 5.2466 7.0879 5.0696 7.5849 5.0696H20.7772C21.2743 5.0696 21.6999 5.2466 22.0539 5.6006C22.4079 5.9546 22.5849 6.3801 22.5849 6.8771V14.4541C22.5849 14.9513 22.4079 15.3769 22.0539 15.7309C21.6999 16.0849 21.2743 16.2619 20.7772 16.2619H7.5849ZM9.0849 14.7619H19.2774C19.2774 14.2632 19.4544 13.8372 19.8084 13.4839C20.1624 13.1307 20.5879 12.9541 21.0849 12.9541V8.3771C20.5862 8.3771 20.1603 8.2001 19.8072 7.8461C19.454 7.4921 19.2774 7.0666 19.2774 6.5696H9.0849C9.0849 7.06827 8.90791 7.49419 8.55391 7.84735C8.1999 8.20052 7.7744 8.3771 7.2774 8.3771V12.9541C7.77607 12.9541 8.20199 13.1311 8.55515 13.4851C8.90832 13.8391 9.0849 14.2647 9.0849 14.7619ZM19.6042 19.7619H4.08515C3.58799 19.7619 3.1624 19.5849 2.8084 19.2309C2.4544 18.8769 2.2774 18.4513 2.2774 17.9541V8.05035H3.77741V17.9541C3.77741 18.0309 3.8094 18.1014 3.8734 18.1656C3.93757 18.2298 4.00815 18.2619 4.08515 18.2619H19.6042V19.7619ZM7.5849 14.7619H7.2774V6.5696H7.5849C7.50157 6.5696 7.42949 6.60002 7.36865 6.66085C7.30782 6.72169 7.2774 6.79377 7.2774 6.8771V14.4541C7.2774 14.5374 7.30782 14.6095 7.36865 14.6704C7.42949 14.7314 7.50157 14.7619 7.5849 14.7619Z" fill="white"/>
</g>
</svg>
