<svg width="25" height="25" viewBox="0 0 25 25" fill="none" xmlns="http://www.w3.org/2000/svg">
<mask id="mask0_227_1870" style="mask-type:alpha" maskUnits="userSpaceOnUse" x="0" y="0" width="25" height="25">
<rect x="0.311035" y="0.727966" width="24" height="24" fill="#D9D9D9"/>
</mask>
<g mask="url(#mask0_227_1870)">
<path d="M12.311 12.4202C11.3485 12.4202 10.5246 12.0776 9.83929 11.3922C9.15379 10.7067 8.81104 9.88273 8.81104 8.92023C8.81104 7.95773 9.15379 7.13381 9.83929 6.44848C10.5246 5.76298 11.3485 5.42023 12.311 5.42023C13.2735 5.42023 14.0975 5.76298 14.7828 6.44848C15.4683 7.13381 15.811 7.95773 15.811 8.92023C15.811 9.88273 15.4683 10.7067 14.7828 11.3922C14.0975 12.0776 13.2735 12.4202 12.311 12.4202ZM4.81104 20.0357V17.8125C4.81104 17.3228 4.94404 16.8693 5.21004 16.452C5.47604 16.0346 5.83154 15.7138 6.27654 15.4895C7.26487 15.005 8.26195 14.6416 9.26779 14.3992C10.2736 14.1569 11.288 14.0357 12.311 14.0357C13.334 14.0357 14.3485 14.1569 15.3543 14.3992C16.3601 14.6416 17.3572 15.005 18.3455 15.4895C18.7905 15.7138 19.146 16.0346 19.412 16.452C19.678 16.8693 19.811 17.3228 19.811 17.8125V20.0357H4.81104ZM6.31104 18.5357H18.311V17.8125C18.311 17.61 18.2524 17.4225 18.135 17.25C18.0177 17.0776 17.8585 16.937 17.6573 16.828C16.7956 16.4036 15.9171 16.0821 15.0218 15.8635C14.1263 15.645 13.2227 15.5357 12.311 15.5357C11.3994 15.5357 10.4958 15.645 9.60029 15.8635C8.70495 16.0821 7.82645 16.4036 6.96479 16.828C6.76362 16.937 6.60437 17.0776 6.48704 17.25C6.3697 17.4225 6.31104 17.61 6.31104 17.8125V18.5357ZM12.311 10.9202C12.861 10.9202 13.3319 10.7244 13.7235 10.3327C14.1152 9.94106 14.311 9.47023 14.311 8.92023C14.311 8.37023 14.1152 7.89939 13.7235 7.50773C13.3319 7.11606 12.861 6.92023 12.311 6.92023C11.761 6.92023 11.2902 7.11606 10.8985 7.50773C10.5069 7.89939 10.311 8.37023 10.311 8.92023C10.311 9.47023 10.5069 9.94106 10.8985 10.3327C11.2902 10.7244 11.761 10.9202 12.311 10.9202Z" fill="white"/>
</g>
</svg>
