<svg width="96" height="96" viewBox="0 0 96 96" fill="none" xmlns="http://www.w3.org/2000/svg">
<rect width="96" height="96" rx="8" fill="#F8F5FF"/>
<mask id="mask0_247_2370" style="mask-type:alpha" maskUnits="userSpaceOnUse" x="28" y="28" width="56" height="56">
<rect x="28" y="28" width="56" height="56" fill="#CACACA"/>
</mask>
<g mask="url(#mask0_247_2370)">
<path d="M38.0384 56.8204C39.4551 55.7693 40.9984 54.9391 42.6684 54.3299C44.3382 53.7211 46.1154 53.4166 48.0001 53.4166C49.8848 53.4166 51.662 53.7211 53.3318 54.3299C55.0018 54.9391 56.5451 55.7693 57.9618 56.8204C58.9979 55.6815 59.8189 54.3631 60.4247 52.8654C61.0305 51.3676 61.3334 49.7458 61.3334 47.9999C61.3334 44.3055 60.0348 41.1597 57.4376 38.5624C54.8404 35.9652 51.6945 34.6666 48.0001 34.6666C44.3057 34.6666 41.1598 35.9652 38.5626 38.5624C35.9654 41.1597 34.6668 44.3055 34.6668 47.9999C34.6668 49.7458 34.9697 51.3676 35.5755 52.8654C36.1814 54.3631 37.0023 55.6815 38.0384 56.8204ZM48.0005 49.2499C46.4789 49.2499 45.1957 48.7277 44.1509 47.6833C43.1059 46.6386 42.5834 45.3554 42.5834 43.8337C42.5834 42.312 43.1057 41.0288 44.1501 39.9841C45.1948 38.9391 46.478 38.4166 47.9997 38.4166C49.5214 38.4166 50.8045 38.9388 51.8493 39.9833C52.8943 41.028 53.4168 42.3112 53.4168 43.8329C53.4168 45.3545 52.8945 46.6377 51.8501 47.6824C50.8054 48.7274 49.5222 49.2499 48.0005 49.2499ZM48.0001 63.8333C45.8015 63.8333 43.739 63.4198 41.8126 62.5929C39.8862 61.7659 38.2105 60.6398 36.7855 59.2145C35.3602 57.7895 34.2341 56.1138 33.4072 54.1874C32.5802 52.2611 32.1668 50.1986 32.1668 47.9999C32.1668 45.8013 32.5802 43.7388 33.4072 41.8124C34.2341 39.8861 35.3602 38.2104 36.7855 36.7854C38.2105 35.3601 39.8862 34.234 41.8126 33.407C43.739 32.5801 45.8015 32.1666 48.0001 32.1666C50.1987 32.1666 52.2612 32.5801 54.1876 33.407C56.114 34.234 57.7897 35.3601 59.2147 36.7854C60.64 38.2104 61.7661 39.8861 62.593 41.8124C63.42 43.7388 63.8334 45.8013 63.8334 47.9999C63.8334 50.1986 63.42 52.2611 62.593 54.1874C61.7661 56.1138 60.64 57.7895 59.2147 59.2145C57.7897 60.6398 56.114 61.7659 54.1876 62.5929C52.2612 63.4198 50.1987 63.8333 48.0001 63.8333ZM48.0001 61.3333C49.5043 61.3333 50.9545 61.0913 52.3509 60.6074C53.7473 60.1233 54.9872 59.4465 56.0705 58.577C54.9872 57.7392 53.7634 57.0865 52.3993 56.6187C51.0348 56.1506 49.5684 55.9166 48.0001 55.9166C46.4318 55.9166 44.9627 56.1479 43.593 56.6104C42.2233 57.0731 41.0022 57.7287 39.9297 58.577C41.013 59.4465 42.2529 60.1233 43.6493 60.6074C45.0457 61.0913 46.4959 61.3333 48.0001 61.3333ZM48.0001 46.7499C48.8293 46.7499 49.5226 46.4711 50.0801 45.9133C50.6379 45.3558 50.9168 44.6624 50.9168 43.8333C50.9168 43.0041 50.6379 42.3108 50.0801 41.7533C49.5226 41.1955 48.8293 40.9166 48.0001 40.9166C47.1709 40.9166 46.4776 41.1955 45.9201 41.7533C45.3623 42.3108 45.0834 43.0041 45.0834 43.8333C45.0834 44.6624 45.3623 45.3558 45.9201 45.9133C46.4776 46.4711 47.1709 46.7499 48.0001 46.7499Z" fill="#D6C5FF"/>
</g>
</svg>
