<svg width="20" height="20" viewBox="0 0 20 20" fill="none" xmlns="http://www.w3.org/2000/svg">
<path d="M14.8356 10.1131C14.7776 10.0538 14.7084 10.0067 14.632 9.97446C14.5556 9.94221 14.4735 9.92549 14.3905 9.92528C14.3076 9.92507 14.2255 9.94137 14.1489 9.97322C14.0723 10.0051 14.0028 10.0519 13.9445 10.1108C13.8862 10.1698 13.8402 10.2398 13.8092 10.3168C13.7782 10.3937 13.7629 10.476 13.764 10.5589C13.7652 10.6419 13.7828 10.7238 13.8159 10.7998C13.849 10.8758 13.8969 10.9445 13.9569 11.0019C14.4871 11.5237 14.9078 12.1461 15.1943 12.8326C15.4807 13.5192 15.6272 14.2561 15.625 15C15.625 15.7644 13.4337 16.875 10 16.875C6.56625 16.875 4.375 15.7637 4.375 14.9987C4.37287 14.2599 4.51733 13.528 4.80002 12.8453C5.08271 12.1627 5.49801 11.5429 6.02187 11.0219C6.08157 10.9642 6.12918 10.8953 6.16194 10.819C6.19469 10.7427 6.21193 10.6607 6.21266 10.5777C6.21338 10.4948 6.19756 10.4125 6.16614 10.3357C6.13471 10.2588 6.0883 10.1891 6.02962 10.1304C5.97094 10.0717 5.90116 10.0253 5.82435 9.99386C5.74753 9.96243 5.66523 9.94662 5.58225 9.94734C5.49926 9.94806 5.41725 9.9653 5.341 9.99806C5.26474 10.0308 5.19578 10.0784 5.13812 10.1381C4.49772 10.7751 3.99005 11.5328 3.64449 12.3674C3.29893 13.2019 3.12236 14.0967 3.125 15C3.125 17.03 6.66687 18.125 10 18.125C13.3331 18.125 16.875 17.03 16.875 15C16.8778 14.0907 16.6988 13.1899 16.3486 12.3507C15.9984 11.5115 15.484 10.7507 14.8356 10.1131Z" fill="#1255D0"/>
<path d="M10 10.625C10.8653 10.625 11.7112 10.3684 12.4306 9.88768C13.1501 9.40695 13.7108 8.72367 14.042 7.92424C14.3731 7.12482 14.4597 6.24515 14.2909 5.39648C14.1221 4.54781 13.7054 3.76826 13.0936 3.15641C12.4817 2.54456 11.7022 2.12788 10.8535 1.95907C10.0049 1.79026 9.12519 1.8769 8.32576 2.20803C7.52633 2.53916 6.84305 3.09992 6.36232 3.81938C5.88159 4.53885 5.625 5.38471 5.625 6.25C5.62632 7.40992 6.08768 8.52195 6.90787 9.34213C7.72805 10.1623 8.84008 10.6237 10 10.625ZM10 3.125C10.6181 3.125 11.2223 3.30828 11.7362 3.65166C12.2501 3.99504 12.6506 4.4831 12.8871 5.05412C13.1236 5.62514 13.1855 6.25347 13.065 6.85966C12.9444 7.46585 12.6467 8.02267 12.2097 8.45971C11.7727 8.89675 11.2158 9.19438 10.6097 9.31496C10.0035 9.43553 9.37513 9.37365 8.80411 9.13713C8.2331 8.9006 7.74504 8.50006 7.40166 7.98616C7.05828 7.47226 6.875 6.86807 6.875 6.25C6.87599 5.4215 7.20555 4.62723 7.79139 4.04139C8.37722 3.45555 9.1715 3.12599 10 3.125Z" fill="#1255D0"/>
</svg>
