<svg width="16" height="16" viewBox="0 0 16 16" fill="none" xmlns="http://www.w3.org/2000/svg">
<path fill-rule="evenodd" clip-rule="evenodd" d="M11.4663 10.5333L14.4663 13.5333C14.733 13.7999 14.733 14.1999 14.4663 14.4666C14.333 14.5999 14.133 14.6666 13.9997 14.6666C13.8663 14.6666 13.6663 14.5999 13.533 14.4666L10.533 11.4666C9.53301 12.1999 8.33301 12.6666 6.99968 12.6666C3.86634 12.6666 1.33301 10.1333 1.33301 6.99992C1.33301 3.86659 3.86634 1.33325 6.99968 1.33325C10.133 1.33325 12.6663 3.86659 12.6663 6.99992C12.6663 8.33325 12.1997 9.59992 11.4663 10.5333ZM6.99935 2.6665C4.59935 2.6665 2.66602 4.59984 2.66602 6.99984C2.66602 9.39984 4.59935 11.3332 6.99935 11.3332C8.19935 11.3332 9.26602 10.8665 10.066 10.0665C10.866 9.2665 11.3327 8.19984 11.3327 6.99984C11.3327 4.59984 9.39935 2.6665 6.99935 2.6665Z" fill="#373940"/>
<mask id="mask0_386_7593" style="mask-type:luminance" maskUnits="userSpaceOnUse" x="1" y="1" width="14" height="14">
<path fill-rule="evenodd" clip-rule="evenodd" d="M11.4663 10.5333L14.4663 13.5333C14.733 13.7999 14.733 14.1999 14.4663 14.4666C14.333 14.5999 14.133 14.6666 13.9997 14.6666C13.8663 14.6666 13.6663 14.5999 13.533 14.4666L10.533 11.4666C9.53301 12.1999 8.33301 12.6666 6.99968 12.6666C3.86634 12.6666 1.33301 10.1333 1.33301 6.99992C1.33301 3.86659 3.86634 1.33325 6.99968 1.33325C10.133 1.33325 12.6663 3.86659 12.6663 6.99992C12.6663 8.33325 12.1997 9.59992 11.4663 10.5333ZM6.99935 2.6665C4.59935 2.6665 2.66602 4.59984 2.66602 6.99984C2.66602 9.39984 4.59935 11.3332 6.99935 11.3332C8.19935 11.3332 9.26602 10.8665 10.066 10.0665C10.866 9.2665 11.3327 8.19984 11.3327 6.99984C11.3327 4.59984 9.39935 2.6665 6.99935 2.6665Z" fill="white"/>
</mask>
<g mask="url(#mask0_386_7593)">
<rect width="16" height="16" fill="#696A70"/>
</g>
</svg>
