<svg width="16" height="16" viewBox="0 0 16 16" fill="none" xmlns="http://www.w3.org/2000/svg">
<path fill-rule="evenodd" clip-rule="evenodd" d="M11.4663 10.533L14.4663 13.533C14.733 13.7997 14.733 14.1997 14.4663 14.4663C14.333 14.5997 14.133 14.6663 13.9997 14.6663C13.8663 14.6663 13.6663 14.5997 13.533 14.4663L10.533 11.4663C9.53301 12.1997 8.33301 12.6663 6.99968 12.6663C3.86634 12.6663 1.33301 10.133 1.33301 6.99968C1.33301 3.86634 3.86634 1.33301 6.99968 1.33301C10.133 1.33301 12.6663 3.86634 12.6663 6.99968C12.6663 8.33301 12.1997 9.59968 11.4663 10.533ZM6.99935 2.66602C4.59935 2.66602 2.66602 4.59935 2.66602 6.99935C2.66602 9.39935 4.59935 11.3327 6.99935 11.3327C8.19935 11.3327 9.26602 10.866 10.066 10.066C10.866 9.26602 11.3327 8.19935 11.3327 6.99935C11.3327 4.59935 9.39935 2.66602 6.99935 2.66602Z" fill="#696A70"/>
<mask id="mask0_449_3334" style="mask-type:luminance" maskUnits="userSpaceOnUse" x="1" y="1" width="14" height="14">
<path fill-rule="evenodd" clip-rule="evenodd" d="M11.4663 10.533L14.4663 13.533C14.733 13.7997 14.733 14.1997 14.4663 14.4663C14.333 14.5997 14.133 14.6663 13.9997 14.6663C13.8663 14.6663 13.6663 14.5997 13.533 14.4663L10.533 11.4663C9.53301 12.1997 8.33301 12.6663 6.99968 12.6663C3.86634 12.6663 1.33301 10.133 1.33301 6.99968C1.33301 3.86634 3.86634 1.33301 6.99968 1.33301C10.133 1.33301 12.6663 3.86634 12.6663 6.99968C12.6663 8.33301 12.1997 9.59968 11.4663 10.533ZM6.99935 2.66602C4.59935 2.66602 2.66602 4.59935 2.66602 6.99935C2.66602 9.39935 4.59935 11.3327 6.99935 11.3327C8.19935 11.3327 9.26602 10.866 10.066 10.066C10.866 9.26602 11.3327 8.19935 11.3327 6.99935C11.3327 4.59935 9.39935 2.66602 6.99935 2.66602Z" fill="white"/>
</mask>
<g mask="url(#mask0_449_3334)">
<rect width="16" height="16" fill="#696A70"/>
</g>
</svg>
