<svg width="12" height="12" viewBox="0 0 12 12" fill="none" xmlns="http://www.w3.org/2000/svg">
<path d="M4.154 11.553C4.198 11.5804 4.353 11.6576 4.5086 11.5244L10.6864 6.2498C10.7586 6.188 10.8 6.097 10.8 6C10.8 5.903 10.7586 5.812 10.6864 5.7502L4.5086 0.475594C4.4414 0.418194 4.3744 0.399994 4.3164 0.399994C4.24 0.399994 4.179 0.431594 4.154 0.446994C4.09431 0.482842 4.048 0.537245 4.02215 0.601891C3.99629 0.666537 3.9923 0.737871 4.0108 0.804994L5.2378 5.8254C5.2658 5.9396 5.2658 6.0604 5.2378 6.17459L4.0108 11.195C3.9923 11.2621 3.99629 11.3335 4.02215 11.3981C4.048 11.4627 4.09431 11.5171 4.154 11.553Z" fill="#65376E"/>
<path d="M2.4 7.19999C3.06274 7.19999 3.6 6.66273 3.6 5.99999C3.6 5.33725 3.06274 4.79999 2.4 4.79999C1.73726 4.79999 1.2 5.33725 1.2 5.99999C1.2 6.66273 1.73726 7.19999 2.4 7.19999Z" fill="#65376E"/>
</svg>
