<svg width="18" height="18" viewBox="0 0 18 18" fill="none" xmlns="http://www.w3.org/2000/svg">
<path d="M15.2905 1.62179C14.9256 1.2561 14.4403 1.05469 13.9239 1.05469H13.0518V0.878906C13.0518 0.394277 12.6575 0 12.1729 0H5.84473C5.3601 0 4.96582 0.394277 4.96582 0.878906V1.05469H4.09054C3.02667 1.05469 2.16018 1.92115 2.15898 2.98614L2.14453 16.0643C2.14397 16.5811 2.34461 17.0672 2.70949 17.4329C3.07442 17.7986 3.55975 18 4.07609 18H13.9094C14.9733 18 15.8398 17.1335 15.841 16.0686L15.8555 2.99043C15.8561 2.47352 15.6554 1.98745 15.2905 1.62179ZM6.02051 1.05469H11.9971V2.10938H6.02051V1.05469ZM14.7874 16.0674C14.7869 16.5515 14.393 16.9453 13.9094 16.9453H4.07609C3.84138 16.9453 3.62078 16.8538 3.45491 16.6875C3.28904 16.5213 3.19785 16.3004 3.1981 16.0655L3.21254 2.98733C3.21307 2.5032 3.60693 2.10938 4.09054 2.10938H4.96582V2.28516C4.96582 2.76979 5.3601 3.16406 5.84473 3.16406H12.1729C12.6575 3.16406 13.0518 2.76979 13.0518 2.28516V2.10938H13.9239C14.1586 2.10938 14.3792 2.20092 14.5451 2.36714C14.711 2.53336 14.8022 2.75432 14.8019 2.98923L14.7874 16.0674Z" fill="#1255D0"/>
<path d="M9.17926 7.03124H12.9259C13.2171 7.03124 13.4532 6.79513 13.4532 6.5039C13.4532 6.21267 13.2171 5.97656 12.9259 5.97656H9.17926C8.88803 5.97656 8.65192 6.21267 8.65192 6.5039C8.65192 6.79513 8.88803 7.03124 9.17926 7.03124ZM9.17926 10.5469H12.9259C13.2171 10.5469 13.4532 10.3108 13.4532 10.0195C13.4532 9.72829 13.2171 9.49218 12.9259 9.49218H9.17926C8.88803 9.49218 8.65192 9.72829 8.65192 10.0195C8.65192 10.3108 8.88803 10.5469 9.17926 10.5469ZM12.941 13.0078H9.17926C8.88803 13.0078 8.65192 13.2439 8.65192 13.5352C8.65192 13.8264 8.88803 14.0625 9.17926 14.0625H12.941C13.2322 14.0625 13.4683 13.8264 13.4683 13.5352C13.4683 13.2439 13.2323 13.0078 12.941 13.0078ZM6.93478 5.06801L5.71866 6.28414L5.43192 5.99737C5.22598 5.79142 4.8921 5.79142 4.68615 5.99737C4.48021 6.20328 4.48021 6.53719 4.68615 6.74314L5.34579 7.40281C5.44468 7.5017 5.57881 7.55726 5.71867 7.55726C5.85853 7.55726 5.99266 7.5017 6.09156 7.40281L7.68059 5.81382C7.88653 5.60791 7.88653 5.27399 7.68059 5.06805C7.47464 4.86207 7.14076 4.86207 6.93478 5.06801ZM6.93478 8.85213L5.71866 10.0683L5.43192 9.78152C5.22598 9.57557 4.8921 9.57557 4.68615 9.78152C4.48021 9.98743 4.48021 10.3213 4.68615 10.5273L5.34579 11.187C5.44468 11.2859 5.57881 11.3414 5.71867 11.3414C5.85853 11.3414 5.99266 11.2859 6.09156 11.187L7.68059 9.59793C7.88653 9.39202 7.88653 9.05811 7.68059 8.85216C7.47464 8.64622 7.14073 8.64622 6.93478 8.85213ZM6.93478 12.3678L5.71866 13.5839L5.43192 13.2971C5.22598 13.0912 4.8921 13.0912 4.68615 13.2971C4.48021 13.5031 4.48021 13.8369 4.68615 14.0429L5.34579 14.7026C5.44468 14.8015 5.57881 14.857 5.71867 14.857C5.85853 14.857 5.99266 14.8015 6.09156 14.7026L7.68059 13.1136C7.88653 12.9076 7.88653 12.5737 7.68059 12.3678C7.47464 12.1618 7.14073 12.1618 6.93478 12.3678Z" fill="#1255D0"/>
</svg>
