<svg width="56" height="56" viewBox="0 0 56 56" fill="none" xmlns="http://www.w3.org/2000/svg">
<rect width="56" height="56" rx="4" fill="#EAE4FF"/>
<path d="M38.466 34.656C38.1336 32.397 37.0024 30.332 35.2778 28.8356C33.5532 27.3392 31.3493 26.5106 29.066 26.5H26.938C24.6547 26.5106 22.4509 27.3392 20.7262 28.8356C19.0016 30.332 17.8705 32.397 17.538 34.656L16.518 41.788C16.4854 42.0185 16.507 42.2535 16.5809 42.4743C16.6548 42.6951 16.7792 42.8956 16.944 43.06C17.344 43.46 19.798 45.5 28.004 45.5C36.21 45.5 38.658 43.468 39.064 43.06C39.2289 42.8956 39.3532 42.6951 39.4271 42.4743C39.5011 42.2535 39.5226 42.0185 39.49 41.788L38.466 34.656ZM19.12 27.6C17.1871 29.3819 15.9294 31.7771 15.56 34.38L14.82 39.5C8.88001 39.46 7.08001 37.3 6.78001 36.86C6.66405 36.7002 6.58129 36.5187 6.53664 36.3263C6.49198 36.134 6.48633 35.9346 6.52001 35.74L6.96001 33.26C7.18926 31.9639 7.72765 30.7422 8.52956 29.6985C9.33146 28.6547 10.3732 27.8197 11.5665 27.2643C12.7598 26.7089 14.0694 26.4494 15.3843 26.5078C16.6993 26.5663 17.9807 26.9409 19.12 27.6ZM49.48 35.74C49.5137 35.9346 49.508 36.134 49.4634 36.3263C49.4187 36.5187 49.336 36.7002 49.22 36.86C48.92 37.3 47.12 39.46 41.18 39.5L40.44 34.38C40.0706 31.7771 38.813 29.3819 36.88 27.6C38.0193 26.9409 39.3008 26.5663 40.6157 26.5078C41.9306 26.4494 43.2402 26.7089 44.4335 27.2643C45.6268 27.8197 46.6686 28.6547 47.4705 29.6985C48.2724 30.7422 48.8108 31.9639 49.04 33.26L49.48 35.74ZM19.46 23.2C18.9566 23.914 18.2882 24.4959 17.5118 24.8963C16.7353 25.2968 15.8736 25.5038 15 25.5C14.1285 25.5 13.2695 25.2929 12.4938 24.8958C11.718 24.4987 11.0477 23.9229 10.5382 23.2159C10.0286 22.5089 9.69434 21.691 9.56291 20.8295C9.43149 19.9679 9.50666 19.0875 9.78225 18.2608C10.0578 17.434 10.5259 16.6845 11.148 16.0742C11.7701 15.4638 12.5282 15.01 13.3601 14.7502C14.1919 14.4903 15.0736 14.4319 15.9325 14.5796C16.7914 14.7274 17.6028 15.0771 18.3 15.6C18.0995 16.3842 17.9987 17.1906 18 18C18.0015 19.8343 18.5066 21.633 19.46 23.2ZM46.5 20C46.5005 20.7224 46.3586 21.4379 46.0824 22.1054C45.8062 22.7729 45.4011 23.3794 44.8903 23.8903C44.3794 24.4011 43.7729 24.8062 43.1054 25.0824C42.4379 25.3586 41.7224 25.5005 41 25.5C40.1264 25.5038 39.2647 25.2968 38.4883 24.8963C37.7118 24.4959 37.0435 23.914 36.54 23.2C37.4935 21.633 37.9985 19.8343 38 18C38.0013 17.1906 37.9005 16.3842 37.7 15.6C38.5171 14.9872 39.4888 14.614 40.5061 14.5222C41.5234 14.4305 42.5461 14.6239 43.4597 15.0807C44.3733 15.5374 45.1416 16.2396 45.6786 17.1085C46.2156 17.9773 46.5 18.9786 46.5 20Z" fill="#896AE2"/>
<path d="M28 25.5C32.1421 25.5 35.5 22.1421 35.5 18C35.5 13.8579 32.1421 10.5 28 10.5C23.8579 10.5 20.5 13.8579 20.5 18C20.5 22.1421 23.8579 25.5 28 25.5Z" fill="#896AE2"/>
</svg>
