<svg width="355" height="132" viewBox="0 0 355 132" fill="none" xmlns="http://www.w3.org/2000/svg">
<rect width="355" height="132" rx="8" fill="white"/>
<mask id="mask0_270_84" style="mask-type:alpha" maskUnits="userSpaceOnUse" x="259" y="36" width="88" height="88">
<rect x="259" y="36" width="88" height="88" fill="#D9D9D9"/>
</mask>
<g mask="url(#mask0_270_84)">
<path d="M278.434 104.567V85.6833H288.334V104.567H278.434ZM298.05 104.567V55.4333H307.95V104.567H298.05ZM317.667 104.567V72.85H327.567V104.567H317.667Z" fill="#C9BDEE"/>
</g>
<path d="M37.504 37V27.056H39.112V37H37.504ZM34.496 28.12V26.776H42.112V28.12H34.496ZM45.708 37.2C44.556 37.2 43.6813 36.8933 43.084 36.28C42.4867 35.6667 42.188 34.784 42.188 33.632V32.52C42.188 31.3733 42.4867 30.496 43.084 29.888C43.6813 29.2747 44.556 28.968 45.708 28.968C46.86 28.968 47.732 29.2747 48.324 29.888C48.9213 30.496 49.22 31.3733 49.22 32.52V33.632C49.22 34.784 48.9213 35.6667 48.324 36.28C47.732 36.8933 46.86 37.2 45.708 37.2ZM45.708 35.928C46.3427 35.928 46.8253 35.7387 47.156 35.36C47.4867 34.9813 47.652 34.4373 47.652 33.728V32.424C47.652 31.72 47.4867 31.1813 47.156 30.808C46.8253 30.4293 46.3427 30.24 45.708 30.24C45.0733 30.24 44.5907 30.4293 44.26 30.808C43.9293 31.1813 43.764 31.72 43.764 32.424V33.728C43.764 34.4373 43.9293 34.9813 44.26 35.36C44.5907 35.7387 45.0733 35.928 45.708 35.928ZM53.7478 37.16C53.1238 37.16 52.6224 37.0667 52.2438 36.88C51.8651 36.688 51.5904 36.4027 51.4198 36.024C51.2491 35.64 51.1638 35.1627 51.1638 34.592V29.808H52.7158V34.408C52.7158 34.888 52.8251 35.24 53.0438 35.464C53.2624 35.688 53.6304 35.8 54.1478 35.8C54.4571 35.8 54.7531 35.768 55.0358 35.704C55.3184 35.64 55.5798 35.5493 55.8198 35.432L55.6838 36.76C55.4278 36.888 55.1318 36.9867 54.7958 37.056C54.4598 37.1253 54.1104 37.16 53.7478 37.16ZM49.9398 30.52V29.272H55.7478L55.6118 30.52H49.9398ZM51.1798 29.408L51.1718 27.256L52.7398 27.072L52.6758 29.408H51.1798ZM61.7795 37L61.8435 35.144L61.7875 34.904V32.44L61.7955 32.048C61.7955 31.4453 61.6408 31.0027 61.3315 30.72C61.0275 30.4373 60.5368 30.296 59.8595 30.296C59.3102 30.296 58.8008 30.3733 58.3315 30.528C57.8622 30.6827 57.4382 30.8613 57.0595 31.064L57.2035 29.752C57.4168 29.6293 57.6675 29.5093 57.9555 29.392C58.2435 29.2747 58.5688 29.1787 58.9315 29.104C59.2942 29.0293 59.6915 28.992 60.1235 28.992C60.7155 28.992 61.2168 29.064 61.6275 29.208C62.0382 29.3467 62.3688 29.5493 62.6195 29.816C62.8702 30.0827 63.0515 30.4027 63.1635 30.776C63.2808 31.1493 63.3395 31.5653 63.3395 32.024V37H61.7795ZM59.1315 37.176C58.3582 37.176 57.7662 36.9867 57.3555 36.608C56.9448 36.224 56.7395 35.68 56.7395 34.976V34.736C56.7395 33.9893 56.9688 33.4373 57.4275 33.08C57.8915 32.7173 58.6195 32.4667 59.6115 32.328L61.9635 31.992L62.0515 33.128L59.7955 33.448C59.2568 33.5227 58.8728 33.6533 58.6435 33.84C58.4142 34.0213 58.2995 34.2907 58.2995 34.648V34.76C58.2995 35.1173 58.4088 35.392 58.6275 35.584C58.8515 35.776 59.1902 35.872 59.6435 35.872C60.0595 35.872 60.4168 35.8027 60.7155 35.664C61.0142 35.5253 61.2568 35.3413 61.4435 35.112C61.6302 34.8773 61.7582 34.6187 61.8275 34.336L62.0435 35.384H61.7555C61.6702 35.704 61.5288 36 61.3315 36.272C61.1342 36.544 60.8568 36.7627 60.4995 36.928C60.1475 37.0933 59.6915 37.176 59.1315 37.176ZM65.2271 37V26.408H66.7951V37H65.2271ZM75.5646 37.184C74.3166 37.184 73.3806 36.888 72.7566 36.296C72.138 35.6987 71.8286 34.84 71.8286 33.72V32.44C71.8286 31.336 72.1166 30.4827 72.6926 29.88C73.274 29.272 74.1193 28.968 75.2286 28.968C75.9806 28.968 76.6073 29.1067 77.1086 29.384C77.61 29.656 77.986 30.0427 78.2366 30.544C78.4873 31.0453 78.6126 31.64 78.6126 32.328V32.624C78.6126 32.8053 78.6046 32.9893 78.5886 33.176C78.5726 33.3627 78.5513 33.5413 78.5246 33.712H77.0846C77.0953 33.4347 77.1006 33.1733 77.1006 32.928C77.106 32.6827 77.1086 32.4587 77.1086 32.256C77.1086 31.824 77.0393 31.4587 76.9006 31.16C76.762 30.8613 76.554 30.6347 76.2766 30.48C75.9993 30.32 75.65 30.24 75.2286 30.24C74.6046 30.24 74.1406 30.4187 73.8366 30.776C73.5326 31.128 73.3806 31.632 73.3806 32.288V33.024L73.3886 33.208V33.904C73.3886 34.1973 73.4313 34.464 73.5166 34.704C73.6073 34.944 73.7486 35.152 73.9406 35.328C74.138 35.4987 74.3913 35.632 74.7006 35.728C75.01 35.8187 75.386 35.864 75.8286 35.864C76.33 35.864 76.7993 35.8 77.2366 35.672C77.6793 35.544 78.0953 35.3733 78.4846 35.16L78.3406 36.496C77.9886 36.704 77.578 36.872 77.1086 37C76.6446 37.1227 76.13 37.184 75.5646 37.184ZM72.6606 33.712V32.536H78.2046V33.712H72.6606ZM89.9464 37V32.128C89.9464 31.76 89.8984 31.44 89.8024 31.168C89.7117 30.8907 89.557 30.6773 89.3384 30.528C89.125 30.3787 88.8344 30.304 88.4664 30.304C88.1144 30.304 87.8104 30.3733 87.5544 30.512C87.2984 30.6507 87.0904 30.8373 86.9304 31.072C86.7757 31.3067 86.6637 31.5733 86.5944 31.872L86.3864 30.784H86.5704C86.6664 30.4693 86.813 30.176 87.0104 29.904C87.2077 29.632 87.4744 29.4133 87.8104 29.248C88.1464 29.0827 88.5704 29 89.0824 29C89.6584 29 90.125 29.1147 90.4824 29.344C90.8397 29.568 91.101 29.9013 91.2664 30.344C91.4317 30.7813 91.5144 31.3173 91.5144 31.952V37H89.9464ZM80.2264 37V29.176H81.7944L81.7304 31.008L81.7944 31.104V37H80.2264ZM85.0904 37V32.128C85.0904 31.76 85.0424 31.44 84.9464 31.168C84.8557 30.8907 84.701 30.6773 84.4824 30.528C84.269 30.3787 83.9784 30.304 83.6104 30.304C83.2584 30.304 82.9544 30.3733 82.6984 30.512C82.4424 30.6507 82.2344 30.8373 82.0744 31.072C81.9197 31.3067 81.8077 31.5733 81.7384 31.872L81.4824 30.784H81.8184C81.9037 30.4533 82.0424 30.1547 82.2344 29.888C82.4317 29.616 82.693 29.4 83.0184 29.24C83.3437 29.08 83.7437 29 84.2184 29C84.9437 29 85.493 29.1867 85.8664 29.56C86.2397 29.9333 86.4744 30.4773 86.5704 31.192C86.597 31.2933 86.6157 31.408 86.6264 31.536C86.6424 31.664 86.6504 31.7893 86.6504 31.912V37H85.0904ZM97.4703 37.176C97.0063 37.176 96.6063 37.104 96.2703 36.96C95.9396 36.8107 95.6703 36.6027 95.4623 36.336C95.2543 36.064 95.1023 35.7493 95.0063 35.392H94.4863L94.9263 33.912C94.9423 34.3493 95.0356 34.7147 95.2063 35.008C95.3769 35.296 95.6116 35.512 95.9103 35.656C96.2143 35.8 96.5636 35.872 96.9583 35.872C97.5609 35.872 98.0223 35.6987 98.3423 35.352C98.6623 35 98.8223 34.4853 98.8223 33.808V32.312C98.8223 31.6453 98.6623 31.1387 98.3423 30.792C98.0276 30.4453 97.5663 30.272 96.9583 30.272C96.5956 30.272 96.2729 30.3413 95.9903 30.48C95.7076 30.6187 95.4729 30.808 95.2863 31.048C95.1049 31.2827 94.9769 31.552 94.9023 31.856L94.5343 30.784H94.9903C95.0809 30.4533 95.2249 30.1547 95.4223 29.888C95.6196 29.616 95.8889 29.4 96.2303 29.24C96.5769 29.08 97.0116 29 97.5343 29C98.4676 29 99.1769 29.2933 99.6623 29.88C100.153 30.4667 100.398 31.3227 100.398 32.448V33.688C100.398 34.824 100.153 35.6907 99.6623 36.288C99.1716 36.88 98.4409 37.176 97.4703 37.176ZM93.3983 39.752V29.176H94.9663L94.9023 31.008L94.9263 31.472V34.752L94.9183 35.056L94.9583 37.272V39.752H93.3983ZM102.118 37V26.408H103.686V37H102.118ZM108.911 37.2C107.759 37.2 106.884 36.8933 106.287 36.28C105.69 35.6667 105.391 34.784 105.391 33.632V32.52C105.391 31.3733 105.69 30.496 106.287 29.888C106.884 29.2747 107.759 28.968 108.911 28.968C110.063 28.968 110.935 29.2747 111.527 29.888C112.124 30.496 112.423 31.3733 112.423 32.52V33.632C112.423 34.784 112.124 35.6667 111.527 36.28C110.935 36.8933 110.063 37.2 108.911 37.2ZM108.911 35.928C109.546 35.928 110.028 35.7387 110.359 35.36C110.69 34.9813 110.855 34.4373 110.855 33.728V32.424C110.855 31.72 110.69 31.1813 110.359 30.808C110.028 30.4293 109.546 30.24 108.911 30.24C108.276 30.24 107.794 30.4293 107.463 30.808C107.132 31.1813 106.967 31.72 106.967 32.424V33.728C106.967 34.4373 107.132 34.9813 107.463 35.36C107.794 35.7387 108.276 35.928 108.911 35.928ZM117.588 35.616L116.756 35.976L118.956 29.176H120.564L117.004 39.752H115.42L116.66 36.08L117.364 36.672H115.596L113.14 29.176H114.764L116.716 35.616H117.588ZM125.018 37.184C123.77 37.184 122.834 36.888 122.21 36.296C121.591 35.6987 121.282 34.84 121.282 33.72V32.44C121.282 31.336 121.57 30.4827 122.146 29.88C122.727 29.272 123.572 28.968 124.682 28.968C125.434 28.968 126.06 29.1067 126.562 29.384C127.063 29.656 127.439 30.0427 127.69 30.544C127.94 31.0453 128.066 31.64 128.066 32.328V32.624C128.066 32.8053 128.058 32.9893 128.042 33.176C128.026 33.3627 128.004 33.5413 127.978 33.712H126.538C126.548 33.4347 126.554 33.1733 126.554 32.928C126.559 32.6827 126.562 32.4587 126.562 32.256C126.562 31.824 126.492 31.4587 126.354 31.16C126.215 30.8613 126.007 30.6347 125.73 30.48C125.452 30.32 125.103 30.24 124.682 30.24C124.058 30.24 123.594 30.4187 123.29 30.776C122.986 31.128 122.834 31.632 122.834 32.288V33.024L122.842 33.208V33.904C122.842 34.1973 122.884 34.464 122.97 34.704C123.06 34.944 123.202 35.152 123.394 35.328C123.591 35.4987 123.844 35.632 124.154 35.728C124.463 35.8187 124.839 35.864 125.282 35.864C125.783 35.864 126.252 35.8 126.69 35.672C127.132 35.544 127.548 35.3733 127.938 35.16L127.794 36.496C127.442 36.704 127.031 36.872 126.562 37C126.098 37.1227 125.583 37.184 125.018 37.184ZM122.114 33.712V32.536H127.658V33.712H122.114ZM133.096 37.184C131.848 37.184 130.912 36.888 130.288 36.296C129.669 35.6987 129.36 34.84 129.36 33.72V32.44C129.36 31.336 129.648 30.4827 130.224 29.88C130.805 29.272 131.651 28.968 132.76 28.968C133.512 28.968 134.139 29.1067 134.64 29.384C135.141 29.656 135.517 30.0427 135.768 30.544C136.019 31.0453 136.144 31.64 136.144 32.328V32.624C136.144 32.8053 136.136 32.9893 136.12 33.176C136.104 33.3627 136.083 33.5413 136.056 33.712H134.616C134.627 33.4347 134.632 33.1733 134.632 32.928C134.637 32.6827 134.64 32.4587 134.64 32.256C134.64 31.824 134.571 31.4587 134.432 31.16C134.293 30.8613 134.085 30.6347 133.808 30.48C133.531 30.32 133.181 30.24 132.76 30.24C132.136 30.24 131.672 30.4187 131.368 30.776C131.064 31.128 130.912 31.632 130.912 32.288V33.024L130.92 33.208V33.904C130.92 34.1973 130.963 34.464 131.048 34.704C131.139 34.944 131.28 35.152 131.472 35.328C131.669 35.4987 131.923 35.632 132.232 35.728C132.541 35.8187 132.917 35.864 133.36 35.864C133.861 35.864 134.331 35.8 134.768 35.672C135.211 35.544 135.627 35.3733 136.016 35.16L135.872 36.496C135.52 36.704 135.109 36.872 134.64 37C134.176 37.1227 133.661 37.184 133.096 37.184ZM130.192 33.712V32.536H135.736V33.712H130.192Z" fill="#1255D0"/>
<rect x="34" y="59" width="56" height="56" rx="4" fill="#EAE4FF"/>
<path d="M72.466 93.656C72.1336 91.397 71.0024 89.332 69.2778 87.8356C67.5532 86.3392 65.3493 85.5106 63.066 85.5H60.938C58.6547 85.5106 56.4509 86.3392 54.7262 87.8356C53.0016 89.332 51.8705 91.397 51.538 93.656L50.518 100.788C50.4854 101.019 50.507 101.254 50.5809 101.474C50.6548 101.695 50.7792 101.896 50.944 102.06C51.344 102.46 53.798 104.5 62.004 104.5C70.21 104.5 72.658 102.468 73.064 102.06C73.2289 101.896 73.3532 101.695 73.4271 101.474C73.5011 101.254 73.5226 101.019 73.49 100.788L72.466 93.656ZM53.12 86.6C51.1871 88.3819 49.9294 90.7771 49.56 93.38L48.82 98.5C42.88 98.46 41.08 96.3 40.78 95.86C40.664 95.7002 40.5813 95.5187 40.5366 95.3263C40.492 95.134 40.4863 94.9346 40.52 94.74L40.96 92.26C41.1893 90.9639 41.7277 89.7422 42.5296 88.6985C43.3315 87.6547 44.3732 86.8197 45.5665 86.2643C46.7598 85.7089 48.0694 85.4494 49.3843 85.5078C50.6993 85.5663 51.9807 85.9409 53.12 86.6ZM83.48 94.74C83.5137 94.9346 83.508 95.134 83.4634 95.3263C83.4187 95.5187 83.336 95.7002 83.22 95.86C82.92 96.3 81.12 98.46 75.18 98.5L74.44 93.38C74.0706 90.7771 72.813 88.3819 70.88 86.6C72.0193 85.9409 73.3008 85.5663 74.6157 85.5078C75.9306 85.4494 77.2402 85.7089 78.4335 86.2643C79.6268 86.8197 80.6686 87.6547 81.4705 88.6985C82.2724 89.7422 82.8108 90.9639 83.04 92.26L83.48 94.74ZM53.46 82.2C52.9566 82.914 52.2882 83.4959 51.5118 83.8963C50.7353 84.2968 49.8736 84.5038 49 84.5C48.1285 84.5 47.2695 84.2929 46.4938 83.8958C45.718 83.4987 45.0477 82.9229 44.5382 82.2159C44.0286 81.5089 43.6943 80.691 43.5629 79.8295C43.4315 78.9679 43.5067 78.0875 43.7823 77.2608C44.0578 76.434 44.5259 75.6845 45.148 75.0742C45.7701 74.4638 46.5282 74.01 47.3601 73.7502C48.1919 73.4903 49.0736 73.4319 49.9325 73.5796C50.7914 73.7274 51.6028 74.0771 52.3 74.6C52.0995 75.3842 51.9987 76.1906 52 77C52.0015 78.8343 52.5066 80.633 53.46 82.2ZM80.5 79C80.5005 79.7224 80.3586 80.4379 80.0824 81.1054C79.8062 81.7729 79.4011 82.3794 78.8903 82.8903C78.3794 83.4011 77.7729 83.8062 77.1054 84.0824C76.4379 84.3586 75.7224 84.5005 75 84.5C74.1264 84.5038 73.2647 84.2968 72.4883 83.8963C71.7118 83.4959 71.0435 82.914 70.54 82.2C71.4935 80.633 71.9985 78.8343 72 77C72.0013 76.1906 71.9005 75.3842 71.7 74.6C72.5171 73.9872 73.4888 73.614 74.5061 73.5222C75.5234 73.4305 76.5461 73.6239 77.4597 74.0807C78.3733 74.5374 79.1416 75.2396 79.6786 76.1085C80.2156 76.9773 80.5 77.9786 80.5 79Z" fill="#896AE2"/>
<path d="M62 84.5C66.1421 84.5 69.5 81.1421 69.5 77C69.5 72.8579 66.1421 69.5 62 69.5C57.8579 69.5 54.5 72.8579 54.5 77C54.5 81.1421 57.8579 84.5 62 84.5Z" fill="#896AE2"/>
<path d="M113.136 100.368C112.261 100.368 111.456 100.304 110.72 100.176C109.995 100.048 109.355 99.8933 108.8 99.712C108.245 99.52 107.781 99.3387 107.408 99.168L107.104 96.064C107.829 96.4587 108.677 96.8053 109.648 97.104C110.629 97.4027 111.701 97.552 112.864 97.552C113.931 97.552 114.784 97.424 115.424 97.168C116.064 96.912 116.528 96.544 116.816 96.064C117.104 95.5733 117.248 94.9813 117.248 94.288V93.984C117.248 93.2693 117.109 92.688 116.832 92.24C116.565 91.7813 116.123 91.44 115.504 91.216C114.896 90.992 114.075 90.8693 113.04 90.848L109.696 90.784V88.24L113.056 88.16C114.059 88.1387 114.859 88.0107 115.456 87.776C116.053 87.5307 116.48 87.1893 116.736 86.752C117.003 86.304 117.136 85.7707 117.136 85.152V84.928C117.136 83.936 116.827 83.184 116.208 82.672C115.589 82.16 114.533 81.904 113.04 81.904C111.909 81.904 110.843 82.0587 109.84 82.368C108.848 82.6667 107.979 83.0133 107.232 83.408L107.504 80.624C108.165 80.2507 108.997 79.92 110 79.632C111.013 79.3333 112.208 79.184 113.584 79.184C115.909 79.184 117.621 79.6427 118.72 80.56C119.829 81.4773 120.384 82.768 120.384 84.432V84.752C120.384 85.552 120.251 86.2613 119.984 86.88C119.728 87.488 119.328 87.9893 118.784 88.384C118.24 88.768 117.536 89.0347 116.672 89.184V89.664L116.576 89.328C117.973 89.5947 118.981 90.096 119.6 90.832C120.229 91.5573 120.544 92.5973 120.544 93.952V94.496C120.544 96.3307 119.941 97.7707 118.736 98.816C117.541 99.8507 115.675 100.368 113.136 100.368ZM122.946 100V97.008L128.034 92.144C128.973 91.248 129.762 90.448 130.402 89.744C131.053 89.0293 131.549 88.336 131.89 87.664C132.232 86.992 132.402 86.2773 132.402 85.52V85.36C132.402 84.6453 132.264 84.0373 131.986 83.536C131.709 83.024 131.277 82.6347 130.69 82.368C130.114 82.0907 129.362 81.952 128.434 81.952C127.389 81.952 126.408 82.1173 125.49 82.448C124.573 82.7787 123.762 83.1573 123.058 83.584L123.346 80.72C123.762 80.464 124.253 80.2187 124.818 79.984C125.384 79.7493 126.018 79.5573 126.722 79.408C127.437 79.2587 128.226 79.184 129.09 79.184C131.288 79.184 132.93 79.6853 134.018 80.688C135.117 81.6907 135.666 83.1147 135.666 84.96V85.184C135.666 86.24 135.48 87.2 135.106 88.064C134.744 88.9173 134.205 89.7653 133.49 90.608C132.786 91.4507 131.917 92.368 130.882 93.36L126.962 97.136V97.824L125.65 97.28H135.954V100H122.946Z" fill="black"/>
</svg>
