<svg width="22" height="22" viewBox="0 0 22 22" fill="none" xmlns="http://www.w3.org/2000/svg">
<path fill-rule="evenodd" clip-rule="evenodd" d="M21 8H1C0.801088 8 0.610322 8.07902 0.46967 8.21967C0.329018 8.36032 0.25 8.55109 0.25 8.75C0.25 8.94891 0.329018 9.13968 0.46967 9.28033C0.610322 9.42098 0.801088 9.5 1 9.5H21C21.1989 9.5 21.3897 9.42098 21.5303 9.28033C21.671 9.13968 21.75 8.94891 21.75 8.75C21.75 8.55109 21.671 8.36032 21.5303 8.21967C21.3897 8.07902 21.1989 8 21 8ZM5.75 1V4.5C5.75 4.69891 5.82902 4.88968 5.96967 5.03033C6.11032 5.17098 6.30109 5.25 6.5 5.25C6.69891 5.25 6.88968 5.17098 7.03033 5.03033C7.17098 4.88968 7.25 4.69891 7.25 4.5V1C7.25 0.801088 7.17098 0.610322 7.03033 0.46967C6.88968 0.329018 6.69891 0.25 6.5 0.25C6.30109 0.25 6.11032 0.329018 5.96967 0.46967C5.82902 0.610322 5.75 0.801088 5.75 1ZM14.75 1V4.5C14.75 4.69891 14.829 4.88968 14.9697 5.03033C15.1103 5.17098 15.3011 5.25 15.5 5.25C15.6989 5.25 15.8897 5.17098 16.0303 5.03033C16.171 4.88968 16.25 4.69891 16.25 4.5V1C16.25 0.801088 16.171 0.610322 16.0303 0.46967C15.8897 0.329018 15.6989 0.25 15.5 0.25C15.3011 0.25 15.1103 0.329018 14.9697 0.46967C14.829 0.610322 14.75 0.801088 14.75 1ZM16.5 11.25C13.602 11.25 11.25 13.602 11.25 16.5C11.25 19.398 13.602 21.75 16.5 21.75C19.398 21.75 21.75 19.398 21.75 16.5C21.75 13.602 19.398 11.25 16.5 11.25ZM16.5 12.75C18.57 12.75 20.25 14.43 20.25 16.5C20.25 18.57 18.57 20.25 16.5 20.25C14.43 20.25 12.75 18.57 12.75 16.5C12.75 14.43 14.43 12.75 16.5 12.75Z" fill="white"/>
</svg>
