<svg width="48" height="48" viewBox="0 0 48 48" fill="none" xmlns="http://www.w3.org/2000/svg">
<rect width="48" height="48" rx="24" fill="#FEDCDC"/>
<mask id="mask0_2977_669" style="mask-type:alpha" maskUnits="userSpaceOnUse" x="12" y="12" width="24" height="24">
<rect x="12" y="12" width="24" height="24" fill="#D9D9D9"/>
</mask>
<g mask="url(#mask0_2977_669)">
<path d="M20.1076 31.9C19.6639 31.9 19.285 31.743 18.9708 31.429C18.6568 31.1148 18.4998 30.7359 18.4998 30.2922V18.6H17.2998V17.3H21.5998V16.2155H26.3998V17.3H30.6998V18.6H29.4998V30.2815C29.4998 30.7438 29.3444 31.1291 29.0336 31.4375C28.7227 31.7458 28.3422 31.9 27.8921 31.9H20.1076ZM28.1998 18.6H19.7998V30.2922C19.7998 30.382 19.8286 30.4558 19.8863 30.5135C19.944 30.5711 20.0177 30.6 20.1076 30.6H27.8921C27.9691 30.6 28.0396 30.5679 28.1036 30.5037C28.1677 30.4397 28.1998 30.3692 28.1998 30.2922V18.6ZM22.0038 28.8H23.3036V20.4H22.0038V28.8ZM24.6961 28.8H25.9958V20.4H24.6961V28.8Z" fill="#E15E5E"/>
</g>
</svg>
