<svg width="24" height="24" viewBox="0 0 24 24" fill="none" xmlns="http://www.w3.org/2000/svg">
<g clip-path="url(#clip0_114_363)">
<path d="M12.0002 4.89795C14.2995 4.89795 16.1634 6.81671 16.1634 9.18366C16.1634 11.5506 14.2995 13.4694 12.0002 13.4694C9.70088 13.4694 7.83691 11.5506 7.83691 9.18366C7.83691 6.81675 9.70088 4.89795 12.0002 4.89795ZM12.0002 6.61224C10.6589 6.61224 9.5512 7.75255 9.5512 9.18366C9.5512 10.6148 10.6589 11.7551 12.0002 11.7551C13.3414 11.7551 14.4491 10.6148 14.4491 9.18366C14.4491 7.75255 13.3414 6.61224 12.0002 6.61224Z" fill="#2B2342"/>
<path d="M12 0C18.6274 0 24 5.37257 24 12C24 16.4647 21.5617 20.3599 17.9442 22.4267C16.2523 23.401 14.2963 23.9696 12.2095 23.9988L12 24C5.37257 24 0 18.6274 0 12C0 5.37257 5.37257 0 12 0ZM10.8789 16.4082C8.68493 16.4082 6.73644 17.7993 6.02008 19.8653L5.90932 20.2239C7.6102 21.5134 9.7054 22.255 11.8997 22.2848L12.17 22.2843C13.9808 22.255 15.6779 21.7577 17.1456 20.9081L18.0915 20.281L17.9856 19.9558C17.3051 17.8701 15.3782 16.4492 13.1916 16.409L10.8789 16.4082ZM12 1.71429C6.31935 1.71429 1.71429 6.31935 1.71429 12C1.71429 14.7225 2.77202 17.198 4.49899 19.0378C5.52505 16.43 8.04884 14.6939 10.8789 14.6939H13.0965C15.9332 14.6939 18.4622 16.4381 19.4838 19.0561C21.221 17.2145 22.2858 14.7316 22.2858 12C22.2857 6.31935 17.6806 1.71429 12 1.71429Z" fill="#2B2342"/>
</g>
<defs>
<clipPath id="clip0_114_363">
<rect width="24" height="24" fill="white"/>
</clipPath>
</defs>
</svg>
