<svg width="32" height="32" viewBox="0 0 32 32" fill="none" xmlns="http://www.w3.org/2000/svg">
<circle cx="16" cy="16" r="16" fill="#F7F7F7"/>
<mask id="mask0_109_2864" style="mask-type:alpha" maskUnits="userSpaceOnUse" x="6" y="6" width="20" height="20">
<rect x="6" y="6" width="20" height="20" fill="#D9D9D9"/>
</mask>
<g mask="url(#mask0_109_2864)">
<path d="M20.9678 16.625V15.375H23.9807V16.625H20.9678ZM21.9197 22.2339L19.5095 20.4262L20.269 19.4296L22.6793 21.2371L21.9197 22.2339ZM20.237 12.5385L19.4774 11.5417L21.8876 9.73395L22.6474 10.7308L20.237 12.5385ZM10.3749 21.4006V18.1475H9.5255C9.10995 18.1475 8.75502 18.0003 8.46071 17.7058C8.16627 17.4115 8.01904 17.0566 8.01904 16.641V15.3589C8.01904 14.9434 8.16627 14.5885 8.46071 14.2942C8.75502 13.9997 9.10995 13.8525 9.5255 13.8525H12.7468L16.4807 11.625V20.375L12.7468 18.1475H11.6249V21.4006H10.3749ZM15.2307 18.1539V13.846L13.0928 15.1025H9.5255C9.46147 15.1025 9.40272 15.1292 9.34925 15.1827C9.29578 15.2362 9.26904 15.2949 9.26904 15.3589V16.641C9.26904 16.7051 9.29578 16.7638 9.34925 16.8173C9.40272 16.8708 9.46147 16.8975 9.5255 16.8975H13.0928L15.2307 18.1539ZM17.6345 18.5994V13.4006C17.9614 13.6966 18.2247 14.0694 18.4245 14.5192C18.6243 14.969 18.7243 15.4626 18.7243 16C18.7243 16.5374 18.6243 17.031 18.4245 17.4808C18.2247 17.9305 17.9614 18.3034 17.6345 18.5994Z" fill="#2B2342"/>
</g>
</svg>
