<svg width="150" height="51" viewBox="0 0 150 51" fill="none" xmlns="http://www.w3.org/2000/svg">
<g clip-path="url(#clip0_1632_316)">
<path d="M38.7728 19.5408C35.9553 19.4482 32.411 16.67 27.9576 18.522V10.6507C34.5013 3.89034 39.6815 15.7441 47.6793 14.5403C47.134 15.6516 46.3162 17.1832 42.59 16.2574L44.2259 18.3451C42.59 18.9008 41.045 17.9672 39.4091 17.0409C38.8638 17.9672 39.8634 18.8004 39.8634 19.4486C39.5906 19.4482 39.1362 19.5408 38.7728 19.5408ZM9.8189 19.3557C9.8189 18.7075 10.8186 17.8738 10.2733 16.948C8.63733 17.9668 7.09235 18.9004 5.45642 18.2522L7.09235 16.1645C3.36613 17.0907 2.54836 15.5586 2.00305 14.4473C9.90985 15.6512 15.0901 3.7978 21.7248 10.5578V18.4295C16.726 16.2998 12.8183 20.3744 9.8189 19.3557Z" fill="#1255D0"/>
<path d="M24.8661 8.41171C27.1185 8.41171 28.9445 6.52868 28.9445 4.20585C28.9445 1.88302 27.1185 0 24.8661 0C22.6136 0 20.7877 1.88302 20.7877 4.20585C20.7877 6.52868 22.6136 8.41171 24.8661 8.41171Z" fill="#1255D0"/>
<path d="M24.866 51.0001C24.6535 51.0001 24.4497 50.9134 24.2994 50.7592C24.1491 50.6049 24.0647 50.3957 24.0647 50.1775V8.13459C24.0647 7.91643 24.1491 7.7072 24.2994 7.55294C24.4497 7.39868 24.6535 7.31201 24.866 7.31201C25.0786 7.31201 25.2824 7.39868 25.4327 7.55294C25.5829 7.7072 25.6674 7.91643 25.6674 8.13459V50.1775C25.6674 50.3957 25.5829 50.6049 25.4327 50.7592C25.2824 50.9134 25.0786 51.0001 24.866 51.0001Z" fill="#1255D0"/>
<path d="M31.9266 38.1669C31.2979 38.1669 30.9137 37.4241 31.2598 36.889C31.828 36.0109 32.4338 34.7092 32.0916 33.4918C31.5784 31.6665 29.0273 30.8455 27.5032 30.3548L27.1442 30.2385C25.2566 29.6178 23.6552 29.7194 22.1058 29.8165C20.1545 29.9394 18.3122 30.0554 16.4876 28.6102C15.6153 27.9196 14.1469 26.4315 14.1072 24.227C14.0623 21.763 15.8557 20.1289 16.4063 19.6864C16.5742 19.5587 16.7841 19.5033 16.9912 19.5321C17.1983 19.5609 17.3862 19.6716 17.515 19.8406C17.6438 20.0095 17.7032 20.2235 17.6806 20.4367C17.6579 20.65 17.5551 20.8458 17.3939 20.9824C17.107 21.2127 15.6778 22.4498 15.7095 24.1966C15.7367 25.7143 16.8221 26.7972 17.4668 27.3076C18.8151 28.3757 20.2238 28.2865 22.008 28.1742C23.6263 28.0722 25.4598 27.9566 27.6338 28.6714L27.9836 28.7845C29.815 29.3739 32.8802 30.3606 33.6322 33.0348C34.0381 34.4772 33.6795 36.1248 32.5953 37.7988C32.5222 37.9122 32.4228 38.0051 32.3061 38.0694C32.1894 38.1336 32.059 38.1671 31.9266 38.1669ZM29.5778 44.2877C28.9488 44.2877 28.5645 43.5449 28.9111 43.0098C29.2845 42.4332 29.6844 41.5843 29.4681 40.8144C29.1411 39.6512 27.4166 39.0964 26.3865 38.7649L26.1321 38.6827C24.8423 38.2582 23.7341 38.3281 22.6631 38.396C21.304 38.4824 19.8985 38.5704 18.5402 37.4948C17.8915 36.9811 16.7985 35.8719 16.7689 34.2148C16.7352 32.3661 18.071 31.1462 18.4809 30.8163C18.5638 30.7497 18.6586 30.7005 18.76 30.6715C18.8613 30.6425 18.9673 30.6342 19.0717 30.6473C19.1762 30.6603 19.2772 30.6943 19.3688 30.7474C19.4605 30.8004 19.5411 30.8715 19.606 30.9566C19.6709 31.0416 19.7188 31.1389 19.7471 31.243C19.7754 31.3471 19.7834 31.4558 19.7707 31.5631C19.758 31.6703 19.7249 31.7739 19.6732 31.868C19.6215 31.9621 19.5522 32.0448 19.4694 32.1115C19.2823 32.262 18.3507 33.0685 18.3711 34.1848C18.3888 35.1546 19.0979 35.8591 19.5194 36.1927C20.4005 36.8907 21.3084 36.8335 22.5649 36.7541C23.7273 36.6809 25.0447 36.5982 26.6209 37.116L26.8657 37.1954C28.2035 37.626 30.4421 38.3462 31.0078 40.3587C31.3139 41.4469 31.0507 42.6792 30.2462 43.9213C30.1728 44.0341 30.0734 44.1267 29.9568 44.1906C29.8402 44.2545 29.71 44.2879 29.5778 44.2877ZM27.6943 49.8895C27.0656 49.8895 26.6814 49.1467 27.0276 48.6116C27.2051 48.3373 27.4851 47.8121 27.3637 47.3794C27.1862 46.7476 26.1253 46.4063 25.491 46.2023L25.3199 46.1467C24.5102 45.8802 23.7982 45.9255 23.1102 45.9687C22.1562 46.0291 21.1702 46.0908 20.187 45.3122C19.3756 44.6686 18.92 43.818 18.904 42.9169C18.8796 41.5596 19.848 40.6733 20.1457 40.4339C20.313 40.2993 20.5255 40.2384 20.7364 40.2647C20.9474 40.2909 21.1396 40.4021 21.2708 40.5738C21.4019 40.7455 21.4612 40.9636 21.4357 41.1802C21.4101 41.3968 21.3018 41.5941 21.1345 41.7287C21.0276 41.8146 20.4955 42.2745 20.5063 42.886C20.5159 43.4158 20.9238 43.8172 21.1658 44.0093C21.6498 44.3926 22.1322 44.3823 23.0121 44.326C23.7697 44.2787 24.7121 44.219 25.8087 44.5793L25.9706 44.632C26.8501 44.9149 28.4872 45.4422 28.9031 46.9224C29.1291 47.7265 28.9424 48.6252 28.3618 49.5214C28.289 49.6348 28.1899 49.7278 28.0734 49.792C27.9568 49.8563 27.8266 49.8898 27.6943 49.8895ZM32.3637 28.5102C31.4914 28.5102 31.2707 27.2196 32.09 26.9144C33.3493 26.4451 34.1759 25.3548 34.1963 24.1374C34.2156 22.9821 33.4828 21.8942 32.3296 21.3661C32.14 21.2742 31.9931 21.1098 31.9202 20.908C31.8473 20.7062 31.8543 20.4831 31.9397 20.2866C32.0251 20.0901 32.1821 19.9357 32.3771 19.8565C32.5721 19.7774 32.7895 19.7798 32.9827 19.8632C34.7236 20.6607 35.8291 22.3491 35.7986 24.1649C35.7666 26.0704 34.5257 27.7563 32.6369 28.4604C32.5494 28.4934 32.4569 28.5102 32.3637 28.5102Z" fill="#1255D0"/>
<path d="M22.2589 50.3567C21.7913 50.3565 21.3385 50.189 20.9783 49.8829C20.5624 49.5288 20.3076 49.0176 20.2788 48.4804C20.2235 47.4333 21.0268 46.4968 22.0693 46.3927C22.2796 46.3741 22.4885 46.4413 22.6507 46.5799C22.813 46.7184 22.9154 46.917 22.9358 47.1326C22.9562 47.3482 22.893 47.5634 22.7598 47.7314C22.6266 47.8995 22.4342 48.0068 22.2244 48.03C21.7348 48.079 21.8317 48.7741 22.3089 48.7079C22.7837 48.6416 23.2177 49.0365 23.2153 49.5276C23.2129 50.082 22.7457 50.3567 22.2589 50.3567Z" fill="#1255D0"/>
</g>
<path d="M46.9701 33.7659C46.9198 33.8462 46.8294 33.8864 46.6988 33.8864C46.5683 33.8864 46.4829 33.8462 46.4427 33.7659C46.3523 33.6252 46.2267 33.3791 46.066 33.0275C45.9053 32.6759 45.7194 32.259 45.5085 31.7769C45.3076 31.2846 45.0916 30.7623 44.8605 30.2098C44.6395 29.6573 44.4236 29.1098 44.2126 28.5673C44.0016 28.0249 43.8058 27.5176 43.6249 27.0454C43.4441 26.5633 43.2985 26.1614 43.188 25.84H43.1277C43.0172 27.4372 42.9268 28.7532 42.8565 29.7879C42.7962 30.8125 42.761 31.591 42.751 32.1234C42.7409 32.6458 42.7711 33.0024 42.8414 33.1933C42.9117 33.3841 43.0071 33.4796 43.1277 33.4796H43.7907C43.861 33.4796 43.9112 33.5047 43.9414 33.5549C43.9715 33.6051 43.9866 33.6604 43.9866 33.7206C43.9866 33.7809 43.9715 33.8412 43.9414 33.9015C43.9112 33.9517 43.861 33.9768 43.7907 33.9768C43.419 33.9768 43.1227 33.9768 42.9017 33.9768C42.6907 33.9668 42.4597 33.9617 42.2085 33.9617C41.8168 33.9617 41.4401 33.9668 41.0784 33.9768C40.7268 33.9969 40.4707 34.0069 40.3099 34.0069C40.2698 34.0069 40.2346 33.9818 40.2045 33.9316C40.1844 33.8713 40.1743 33.8111 40.1743 33.7508C40.1743 33.6905 40.1844 33.6353 40.2045 33.585C40.2346 33.5248 40.2698 33.4946 40.3099 33.4946H40.8072C41.0483 33.4946 41.2241 33.4745 41.3346 33.4344C41.4551 33.3942 41.5355 33.2786 41.5757 33.0878C41.6058 32.8869 41.646 32.5905 41.6962 32.1988C41.7464 31.7969 41.8017 31.3399 41.862 30.8276C41.9222 30.3052 41.9825 29.7728 42.0428 29.2303C42.1031 28.6879 42.1583 28.1705 42.2085 27.6783C42.2588 27.1861 42.2989 26.7642 42.3291 26.4126C42.3592 26.061 42.3743 25.8249 42.3743 25.7044C42.3843 25.172 42.3542 24.8103 42.2839 24.6195C42.2236 24.4186 42.1231 24.3181 41.9825 24.3181H41.2291C41.1889 24.3181 41.1588 24.298 41.1387 24.2578C41.1186 24.2076 41.1086 24.1574 41.1086 24.1071C41.1086 24.0469 41.1186 23.9866 41.1387 23.9263C41.1588 23.8661 41.1889 23.8359 41.2291 23.8359C41.4501 23.8359 41.7213 23.8409 42.0428 23.851C42.3642 23.851 42.7008 23.856 43.0523 23.8661C43.414 23.8661 43.7555 23.8661 44.077 23.8661C44.1272 24.0368 44.2277 24.3382 44.3783 24.7701C44.529 25.2021 44.7098 25.7194 44.9208 26.3222C45.1418 26.9149 45.3779 27.5527 45.629 28.2358C45.8801 28.9089 46.1263 29.5769 46.3673 30.2399C46.6084 30.9029 46.8244 31.5157 47.0153 32.0782H47.0756C47.4975 31.0134 47.9194 29.9687 48.3413 28.944C48.7632 27.9194 49.1449 26.9701 49.4865 26.0961C49.8381 25.2222 50.1043 24.4788 50.2851 23.8661C50.7572 23.8661 51.2293 23.861 51.7015 23.851C52.1736 23.8309 52.5453 23.8209 52.8165 23.8209C52.8567 23.8209 52.8868 23.856 52.9069 23.9263C52.9371 23.9966 52.9521 24.0619 52.9521 24.1222C52.9521 24.2528 52.9069 24.3181 52.8165 24.3181H52.2439C52.0531 24.3181 51.9225 24.3784 51.8522 24.4989C51.7919 24.6195 51.7668 24.8053 51.7768 25.0564C51.7768 25.1368 51.7919 25.3829 51.822 25.7948C51.8622 26.1966 51.9124 26.6939 51.9727 27.2865C52.033 27.8692 52.0933 28.492 52.1535 29.155C52.2238 29.8079 52.2891 30.4408 52.3494 31.0536C52.4197 31.6563 52.48 32.1736 52.5302 32.6056C52.5503 32.8166 52.5855 33.0175 52.6357 33.2083C52.696 33.3891 52.7763 33.4796 52.8768 33.4796H53.8261C53.8763 33.4796 53.9165 33.5047 53.9466 33.5549C53.9768 33.6051 53.9918 33.6604 53.9918 33.7206C53.9918 33.791 53.9768 33.8512 53.9466 33.9015C53.9165 33.9517 53.8763 33.9768 53.8261 33.9768C53.6654 33.9768 53.4544 33.9768 53.1932 33.9768C52.9321 33.9668 52.6759 33.9617 52.4248 33.9617C52.1736 33.9617 51.9828 33.9617 51.8522 33.9617C51.6814 33.9617 51.4604 33.9668 51.1892 33.9768C50.9179 33.9768 50.6568 33.9818 50.4056 33.9919C50.1545 34.0019 49.9787 34.0069 49.8782 34.0069C49.8381 34.0069 49.8079 33.9768 49.7878 33.9165C49.7677 33.8563 49.7577 33.796 49.7577 33.7357C49.7577 33.6754 49.7677 33.6202 49.7878 33.57C49.8079 33.5197 49.8381 33.4946 49.8782 33.4946H50.4508C50.8225 33.4946 50.9933 33.3339 50.9631 33.0124C50.9531 32.8517 50.933 32.5956 50.9029 32.244C50.8828 31.8924 50.8526 31.4855 50.8125 31.0234C50.7723 30.5513 50.7321 30.0591 50.6919 29.5468C50.6517 29.0344 50.6166 28.5422 50.5864 28.0701C50.5563 27.5879 50.5262 27.166 50.496 26.8044C50.4759 26.4327 50.4659 26.1564 50.4659 25.9756H50.4056C50.2549 26.2971 50.0591 26.734 49.818 27.2865C49.5869 27.829 49.3308 28.4217 49.0495 29.0646C48.7783 29.6974 48.507 30.3253 48.2358 30.9481C47.9646 31.5709 47.7134 32.1335 47.4824 32.6357C47.2614 33.138 47.0906 33.5147 46.9701 33.7659ZM57.6668 30.1495C57.9883 30.1394 58.2947 30.1244 58.586 30.1043C58.8874 30.0842 59.1385 30.0641 59.3394 30.044C59.5403 30.0139 59.6508 29.9938 59.6709 29.9837L59.7764 29.3509C59.7965 29.3006 59.8668 29.2755 59.9873 29.2755C60.0175 29.2755 60.0577 29.2856 60.1079 29.3057C60.1581 29.3157 60.1832 29.3408 60.1832 29.381C60.1631 29.5417 60.1481 29.6974 60.138 29.8481C60.128 29.9888 60.123 30.1445 60.123 30.3152C60.123 30.4659 60.128 30.6317 60.138 30.8125C60.1481 30.9833 60.1631 31.154 60.1832 31.3248C60.1832 31.3549 60.1531 31.3801 60.0928 31.4001C60.0426 31.4102 59.9924 31.4152 59.9421 31.4152C59.902 31.4152 59.8618 31.4102 59.8216 31.4001C59.7915 31.3901 59.7764 31.375 59.7764 31.3549L59.6558 30.707C59.6357 30.6869 59.5252 30.6668 59.3243 30.6467C59.1335 30.6266 58.8924 30.6066 58.6011 30.5865C58.3097 30.5664 57.9983 30.5513 57.6668 30.5413V32.3645C57.6668 32.7864 57.697 33.0828 57.7572 33.2535C57.8175 33.4143 57.8878 33.4946 57.9682 33.4946H58.4504C58.9225 33.4846 59.3695 33.4394 59.7915 33.359C60.2234 33.2786 60.5398 33.1681 60.7407 33.0275L60.8161 32.4399C60.8261 32.4097 60.8563 32.3896 60.9065 32.3796C60.9668 32.3595 61.017 32.3494 61.0572 32.3494C61.1074 32.3494 61.1526 32.3545 61.1928 32.3645C61.233 32.3746 61.248 32.3997 61.238 32.4399C61.1978 32.701 61.1727 32.9974 61.1627 33.3289C61.1526 33.6503 61.1476 33.9467 61.1476 34.2179C61.1476 34.248 61.1225 34.2681 61.0722 34.2782C61.0321 34.2882 60.9969 34.2932 60.9668 34.2932C60.9266 34.2932 60.8764 34.2882 60.8161 34.2782C60.7659 34.2681 60.7407 34.248 60.7407 34.2179V33.9768H58.0586C57.4458 33.9768 56.9737 33.9768 56.6422 33.9768C56.3107 33.9869 56.0646 33.9919 55.9039 33.9919C55.7431 34.0019 55.6075 34.0069 55.497 34.0069C55.4568 34.0069 55.4267 33.9768 55.4066 33.9165C55.3966 33.8563 55.3915 33.806 55.3915 33.7659C55.3915 33.7156 55.3966 33.6704 55.4066 33.6302C55.4267 33.58 55.4518 33.5549 55.482 33.5549H56.16C56.2705 33.5549 56.3358 33.5298 56.3559 33.4796C56.376 33.4293 56.386 33.3088 56.386 33.1179V28.3714C56.386 27.9495 56.3559 27.6431 56.2956 27.4523C56.2454 27.2614 56.1751 27.166 56.0847 27.166H55.5422C55.4217 27.166 55.3614 27.0906 55.3614 26.94C55.3614 26.7792 55.4167 26.6989 55.5272 26.6989C55.718 26.6989 55.9491 26.7039 56.2203 26.7139C56.5016 26.724 56.7828 26.729 57.0641 26.729H60.1832V26.4879C60.1832 26.4578 60.2033 26.4377 60.2435 26.4276C60.2837 26.4076 60.3239 26.3975 60.364 26.3975C60.4042 26.3975 60.4494 26.4076 60.4997 26.4276C60.5599 26.4377 60.5901 26.4578 60.5901 26.4879C60.5901 26.7591 60.5951 27.0555 60.6051 27.3769C60.6252 27.6984 60.6554 27.9696 60.6955 28.1906C60.7056 28.2208 60.6905 28.2459 60.6503 28.266C60.6102 28.276 60.57 28.281 60.5298 28.281C60.4896 28.281 60.4344 28.276 60.364 28.266C60.3038 28.2459 60.2736 28.2208 60.2736 28.1906C60.2335 28.05 60.1832 27.8993 60.123 27.7386C60.0727 27.5779 59.9873 27.4674 59.8668 27.4071C59.6759 27.3368 59.4399 27.2815 59.1586 27.2413C58.8773 27.2011 58.5006 27.1811 58.0285 27.1811C57.8878 27.1911 57.7924 27.2363 57.7422 27.3167C57.692 27.387 57.6668 27.5075 57.6668 27.6783V30.1495ZM66.0266 26.729C66.9307 26.729 67.7092 26.8998 68.3622 27.2413C69.0151 27.5728 69.5174 28.0148 69.869 28.5673C70.2306 29.1198 70.4115 29.7226 70.4115 30.3755C70.4115 31.1189 70.2256 31.7618 69.8539 32.3042C69.4923 32.8467 68.995 33.2636 68.3622 33.5549C67.7293 33.8362 67.0211 33.9768 66.2376 33.9768H64.5951C64.3139 33.9768 64.0878 33.9768 63.9171 33.9768C63.7563 33.9869 63.6057 33.9919 63.465 33.9919C63.3344 34.0019 63.1737 34.0069 62.9828 34.0069C62.9527 34.0069 62.9276 33.9818 62.9075 33.9316C62.8874 33.8713 62.8774 33.8211 62.8774 33.7809C62.8774 33.7307 62.8824 33.6805 62.8924 33.6302C62.9125 33.58 62.9326 33.5549 62.9527 33.5549H63.691C63.8116 33.5549 63.8719 33.4695 63.8719 33.2987V28.3564C63.8719 27.5628 63.7614 27.166 63.5404 27.166H63.013C62.9025 27.166 62.8472 27.0906 62.8472 26.94C62.8472 26.8797 62.8573 26.8244 62.8774 26.7742C62.9075 26.724 62.9427 26.6989 62.9828 26.6989C62.9828 26.6989 63.1436 26.7039 63.465 26.7139C63.7965 26.724 64.1632 26.729 64.565 26.729H66.0266ZM66.0115 33.4946C66.9659 33.4946 67.6841 33.2284 68.1663 32.696C68.6485 32.1536 68.8896 31.4705 68.8896 30.6467C68.8896 30.0038 68.774 29.4262 68.543 28.9139C68.322 28.4016 67.9654 27.9947 67.4732 27.6934C66.991 27.382 66.3531 27.2112 65.5595 27.1811C65.2883 27.161 65.1527 27.3066 65.1527 27.618V32.3193C65.1527 32.7312 65.1778 33.0325 65.228 33.2234C65.2883 33.4042 65.3686 33.4946 65.4691 33.4946H66.0115ZM76.0783 26.5331C76.6107 26.5331 77.118 26.6336 77.6002 26.8345C78.0924 27.0354 78.5243 27.3116 78.896 27.6632C79.2777 28.0148 79.5741 28.4217 79.785 28.8838C80.006 29.3358 80.1165 29.818 80.1165 30.3303C80.1165 30.8527 80.006 31.3449 79.785 31.807C79.5741 32.2691 79.2777 32.6809 78.896 33.0426C78.5243 33.3942 78.0924 33.6704 77.6002 33.8713C77.118 34.0722 76.6107 34.1727 76.0783 34.1727C75.5459 34.1727 75.0335 34.0722 74.5413 33.8713C74.0591 33.6704 73.6272 33.3942 73.2455 33.0426C72.8738 32.6809 72.5774 32.2691 72.3564 31.807C72.1455 31.3449 72.04 30.8527 72.04 30.3303C72.04 29.818 72.1455 29.3358 72.3564 28.8838C72.5774 28.4217 72.8738 28.0148 73.2455 27.6632C73.6272 27.3116 74.0591 27.0354 74.5413 26.8345C75.0335 26.6336 75.5459 26.5331 76.0783 26.5331ZM76.0783 27.0756C75.566 27.0756 75.1189 27.2263 74.7372 27.5276C74.3655 27.8189 74.0742 28.2107 73.8632 28.7029C73.6523 29.1952 73.5468 29.7376 73.5468 30.3303C73.5468 30.923 73.6523 31.4705 73.8632 31.9727C74.0742 32.475 74.3655 32.8768 74.7372 33.1782C75.1189 33.4796 75.566 33.6302 76.0783 33.6302C76.5906 33.6302 77.0326 33.4796 77.4043 33.1782C77.786 32.8768 78.0823 32.475 78.2933 31.9727C78.5042 31.4705 78.6097 30.923 78.6097 30.3303C78.6097 29.7376 78.5042 29.1952 78.2933 28.7029C78.0823 28.2107 77.786 27.8189 77.4043 27.5276C77.0326 27.2263 76.5906 27.0756 76.0783 27.0756ZM81.7485 30.6015C81.7485 29.9787 81.864 29.4212 82.0951 28.929C82.3362 28.4267 82.6626 27.9998 83.0745 27.6482C83.4864 27.2865 83.9535 27.0103 84.4758 26.8194C85.0082 26.6286 85.5607 26.5331 86.1333 26.5331C86.4749 26.5331 86.7863 26.5783 87.0676 26.6687C87.3589 26.7491 87.6201 26.8496 87.8511 26.9701V26.7139C87.8511 26.6436 87.9114 26.6085 88.0319 26.6085C88.0721 26.6085 88.1123 26.6185 88.1525 26.6386C88.2027 26.6486 88.2278 26.6738 88.2278 26.7139C88.2278 26.9852 88.2429 27.3167 88.273 27.7084C88.3032 28.1002 88.3383 28.4267 88.3785 28.6879C88.3885 28.7281 88.3685 28.7582 88.3182 28.7783C88.278 28.7984 88.2328 28.8084 88.1826 28.8084C88.1424 28.8084 88.0972 28.7984 88.047 28.7783C87.9968 28.7582 87.9666 28.7281 87.9566 28.6879L87.836 27.8893C87.5347 27.5979 87.2283 27.392 86.9169 27.2715C86.6055 27.1509 86.2639 27.0906 85.8922 27.0906C85.4201 27.0906 84.9831 27.2313 84.5813 27.5126C84.1795 27.7938 83.858 28.1806 83.617 28.6728C83.3759 29.155 83.2553 29.7125 83.2553 30.3454C83.2553 30.9782 83.3809 31.5408 83.632 32.033C83.8932 32.5252 84.2347 32.912 84.6567 33.1933C85.0786 33.4745 85.5457 33.6152 86.058 33.6152C86.4297 33.6152 86.7712 33.5649 87.0826 33.4645C87.4041 33.354 87.7306 33.1882 88.0621 32.9672L88.1374 32.1084C88.1374 32.028 88.2027 31.9878 88.3333 31.9878C88.3735 31.9878 88.4237 31.9979 88.484 32.0179C88.5442 32.028 88.5694 32.0581 88.5593 32.1084C88.5292 32.259 88.5091 32.4499 88.499 32.6809C88.489 32.912 88.479 33.1481 88.4689 33.3891C88.4689 33.6202 88.4689 33.8261 88.4689 34.0069C88.4689 34.0371 88.4388 34.0572 88.3785 34.0672C88.3283 34.0873 88.2831 34.0974 88.2429 34.0974C88.1223 34.0974 88.0621 34.0672 88.0621 34.0069V33.7508C87.3689 34.0321 86.6808 34.1727 85.9977 34.1727C85.1941 34.1727 84.4708 34.027 83.8279 33.7357C83.185 33.4444 82.6777 33.0325 82.306 32.5001C81.9343 31.9677 81.7485 31.3349 81.7485 30.6015ZM97.5875 32.1536C97.5875 32.5353 97.6026 32.8216 97.6327 33.0124C97.6729 33.2033 97.7181 33.3289 97.7683 33.3891C97.8186 33.4494 97.8638 33.4796 97.9039 33.4796H98.7779C98.8281 33.4796 98.8633 33.5097 98.8834 33.57C98.9135 33.6302 98.9286 33.6955 98.9286 33.7659C98.9286 33.9065 98.8784 33.9768 98.7779 33.9768H98.13C98.0295 33.9768 97.924 33.9768 97.8135 33.9768C97.703 33.9668 97.5925 33.9617 97.482 33.9617H96.8793C96.4574 33.9617 96.1209 33.9668 95.8697 33.9768C95.6186 33.9768 95.4127 33.9818 95.2519 33.9919C95.0912 34.0019 94.9305 34.0069 94.7698 34.0069C94.7296 34.0069 94.6994 33.9818 94.6794 33.9316C94.6593 33.8814 94.6492 33.8261 94.6492 33.7659C94.6492 33.6955 94.6593 33.6353 94.6794 33.585C94.6994 33.5248 94.7296 33.4946 94.7698 33.4946H95.4177C95.6789 33.4946 95.8446 33.4444 95.9149 33.3439C95.9953 33.2435 96.0355 33.0627 96.0355 32.8015V25.6592C96.0355 25.2674 96.0154 24.9811 95.9752 24.8003C95.9451 24.6094 95.9049 24.4839 95.8547 24.4236C95.8145 24.3633 95.7693 24.3332 95.7191 24.3332H94.8451C94.7647 24.3332 94.7246 24.2377 94.7246 24.0469C94.7246 23.9966 94.7296 23.9514 94.7396 23.9113C94.7597 23.861 94.7949 23.8359 94.8451 23.8359C95.257 23.8359 95.6186 23.8409 95.93 23.851C96.2515 23.861 96.5227 23.8661 96.7437 23.8661H98.4765C99.4208 23.8661 100.184 23.9916 100.767 24.2428C101.35 24.4939 101.776 24.8254 102.048 25.2373C102.329 25.6391 102.47 26.066 102.47 26.5181C102.47 26.9801 102.334 27.4272 102.063 27.8591C101.802 28.2911 101.425 28.6477 100.933 28.929C100.45 29.2102 99.8729 29.3509 99.1998 29.3509C98.9587 29.3509 98.7026 29.3258 98.4313 29.2755C98.1601 29.2153 97.8788 29.1198 97.5875 28.9892V32.1536ZM100.842 26.6386C100.842 26.277 100.747 25.9304 100.556 25.5989C100.365 25.2674 100.069 24.9962 99.6669 24.7852C99.2651 24.5743 98.7528 24.4688 98.13 24.4688C97.9391 24.4688 97.7985 24.519 97.7081 24.6195C97.6277 24.7099 97.5875 24.8907 97.5875 25.1619V28.5071C97.8587 28.5673 98.1249 28.5975 98.3861 28.5975C98.9286 28.5975 99.3806 28.5071 99.7423 28.3262C100.104 28.1354 100.375 27.8943 100.556 27.603C100.747 27.3016 100.842 26.9801 100.842 26.6386ZM111.129 32.3645C111.129 32.7864 111.159 33.0828 111.219 33.2535C111.28 33.4243 111.35 33.5097 111.43 33.5097H112.184C112.214 33.5097 112.239 33.5348 112.259 33.585C112.289 33.6353 112.304 33.6955 112.304 33.7659C112.304 33.8161 112.294 33.8663 112.274 33.9165C112.264 33.9567 112.244 33.9768 112.214 33.9768C112.033 33.9768 111.797 33.9768 111.506 33.9768C111.214 33.9668 110.868 33.9617 110.466 33.9617C109.984 33.9617 109.642 33.9668 109.441 33.9768C109.24 33.9969 109.08 34.0069 108.959 34.0069C108.919 34.0069 108.889 33.9768 108.869 33.9165C108.859 33.8563 108.854 33.806 108.854 33.7659C108.854 33.7156 108.859 33.6704 108.869 33.6302C108.889 33.58 108.914 33.5549 108.944 33.5549H109.622C109.733 33.5549 109.798 33.5298 109.818 33.4796C109.838 33.4293 109.848 33.3088 109.848 33.1179V30.6618H106.202V32.3645C106.202 32.7864 106.232 33.0828 106.292 33.2535C106.352 33.4243 106.423 33.5097 106.503 33.5097H107.256C107.287 33.5097 107.312 33.5348 107.332 33.585C107.362 33.6353 107.377 33.6955 107.377 33.7659C107.377 33.8161 107.367 33.8663 107.347 33.9165C107.337 33.9567 107.317 33.9768 107.287 33.9768C107.106 33.9768 106.87 33.9768 106.578 33.9768C106.287 33.9668 105.941 33.9617 105.539 33.9617C105.057 33.9617 104.715 33.9668 104.514 33.9768C104.313 33.9969 104.152 34.0069 104.032 34.0069C103.992 34.0069 103.962 33.9768 103.941 33.9165C103.931 33.8563 103.926 33.806 103.926 33.7659C103.926 33.7156 103.931 33.6704 103.941 33.6302C103.962 33.58 103.987 33.5549 104.017 33.5549H104.695C104.805 33.5549 104.871 33.5298 104.891 33.4796C104.911 33.4293 104.921 33.3088 104.921 33.1179V28.3714C104.921 27.9495 104.891 27.6431 104.83 27.4523C104.78 27.2614 104.71 27.166 104.62 27.166H104.077C103.957 27.166 103.896 27.0906 103.896 26.94C103.896 26.7792 103.952 26.6989 104.062 26.6989C104.253 26.6989 104.479 26.7089 104.74 26.729C105.001 26.7391 105.267 26.7391 105.539 26.729C105.72 26.729 105.93 26.729 106.172 26.729C106.423 26.719 106.639 26.7139 106.819 26.7139C107.01 26.7039 107.106 26.6989 107.106 26.6989C107.136 26.6989 107.161 26.724 107.181 26.7742C107.201 26.8244 107.211 26.8747 107.211 26.9249C107.211 27.0655 107.171 27.1359 107.091 27.1359H106.398C106.327 27.1359 106.277 27.1509 106.247 27.1811C106.217 27.2112 106.202 27.2765 106.202 27.3769V30.0892H109.848V28.3714C109.848 27.9495 109.818 27.6431 109.758 27.4523C109.708 27.2614 109.637 27.166 109.547 27.166H109.004C108.884 27.166 108.824 27.0906 108.824 26.94C108.824 26.7792 108.879 26.6989 108.989 26.6989C109.18 26.6989 109.406 26.7089 109.667 26.729C109.929 26.7391 110.195 26.7391 110.466 26.729C110.647 26.729 110.858 26.729 111.099 26.729C111.35 26.719 111.566 26.7139 111.747 26.7139C111.938 26.7039 112.033 26.6989 112.033 26.6989C112.063 26.6989 112.088 26.724 112.108 26.7742C112.129 26.8244 112.139 26.8747 112.139 26.9249C112.139 27.0655 112.098 27.1359 112.018 27.1359H111.325C111.255 27.1359 111.204 27.1509 111.174 27.1811C111.144 27.2112 111.129 27.2765 111.129 27.3769V32.3645ZM117.183 26.6687C117.223 26.5783 117.324 26.5331 117.485 26.5331C117.635 26.5331 117.731 26.5834 117.771 26.6838C117.821 26.9048 117.917 27.2112 118.057 27.603C118.208 27.9947 118.384 28.4367 118.585 28.929C118.785 29.4111 118.991 29.9084 119.202 30.4207C119.423 30.923 119.634 31.4052 119.835 31.8673C120.046 32.3193 120.227 32.7061 120.378 33.0275C120.498 33.2786 120.609 33.4394 120.709 33.5097C120.81 33.57 120.965 33.6001 121.176 33.6001C121.237 33.6001 121.267 33.6604 121.267 33.7809C121.267 33.8311 121.262 33.8814 121.252 33.9316C121.242 33.9818 121.221 34.0069 121.191 34.0069C120.88 34.0069 120.619 34.0019 120.408 33.9919C120.197 33.9818 119.976 33.9768 119.745 33.9768C119.554 33.9768 119.323 33.9818 119.052 33.9919C118.78 34.0019 118.469 34.0069 118.117 34.0069C118.077 34.0069 118.052 33.9869 118.042 33.9467C118.032 33.8964 118.027 33.8512 118.027 33.8111C118.027 33.6805 118.057 33.6152 118.117 33.6152H118.841C118.951 33.6152 119.006 33.57 119.006 33.4796C119.006 33.4494 118.966 33.3239 118.886 33.1029C118.806 32.8819 118.7 32.6006 118.569 32.259C118.449 31.9175 118.313 31.5508 118.163 31.1591H116.068C115.857 31.6814 115.681 32.1335 115.541 32.5152C115.4 32.8969 115.33 33.1581 115.33 33.2987C115.33 33.4193 115.35 33.4996 115.39 33.5398C115.43 33.58 115.47 33.6001 115.511 33.6001H116.128C116.209 33.6001 116.249 33.6604 116.249 33.7809C116.249 33.8311 116.239 33.8814 116.219 33.9316C116.209 33.9818 116.189 34.0069 116.159 34.0069C115.907 34.0069 115.707 34.0019 115.556 33.9919C115.415 33.9919 115.285 33.9869 115.164 33.9768C115.054 33.9768 114.923 33.9768 114.772 33.9768C114.591 33.9768 114.411 33.9818 114.23 33.9919C114.059 34.0019 113.843 34.0069 113.582 34.0069C113.542 34.0069 113.512 33.9869 113.492 33.9467C113.481 33.8964 113.476 33.8512 113.476 33.8111C113.476 33.6805 113.512 33.6152 113.582 33.6152H114.064C114.175 33.6152 114.255 33.57 114.305 33.4796C114.406 33.3188 114.546 33.0376 114.727 32.6357C114.918 32.2239 115.129 31.7467 115.36 31.2043C115.591 30.6618 115.822 30.1043 116.053 29.5317C116.294 28.9591 116.515 28.4217 116.716 27.9194C116.917 27.4071 117.073 26.9902 117.183 26.6687ZM117.967 30.6467C117.826 30.2349 117.685 29.828 117.545 29.4262C117.414 29.0244 117.294 28.6678 117.183 28.3564H117.138C117.007 28.7281 116.867 29.1148 116.716 29.5166C116.565 29.9184 116.42 30.2951 116.279 30.6467H117.967ZM124.749 32.5152C124.749 32.8467 124.779 33.0978 124.839 33.2686C124.9 33.4293 124.97 33.5097 125.05 33.5097H125.683C125.723 33.5097 125.754 33.5398 125.774 33.6001C125.794 33.6604 125.804 33.7156 125.804 33.7659C125.804 33.8161 125.794 33.8663 125.774 33.9165C125.764 33.9567 125.749 33.9768 125.729 33.9768H124.192C123.91 33.9768 123.684 33.9768 123.513 33.9768C123.353 33.9869 123.202 33.9919 123.061 33.9919C122.931 34.0019 122.77 34.0069 122.579 34.0069C122.549 34.0069 122.524 33.9818 122.504 33.9316C122.484 33.8713 122.474 33.8211 122.474 33.7809C122.474 33.7307 122.479 33.6805 122.489 33.6302C122.509 33.58 122.529 33.5549 122.549 33.5549H123.287C123.408 33.5549 123.468 33.4695 123.468 33.2987V28.3564C123.468 27.5628 123.358 27.166 123.137 27.166H122.609C122.499 27.166 122.444 27.0906 122.444 26.94C122.444 26.8797 122.454 26.8244 122.474 26.7742C122.504 26.724 122.539 26.6989 122.579 26.6989C122.579 26.6989 122.71 26.7039 122.971 26.7139C123.232 26.7139 123.569 26.719 123.981 26.729C124.403 26.729 124.845 26.729 125.307 26.729C126.291 26.729 127.029 26.9349 127.522 27.3468C128.024 27.7587 128.275 28.2559 128.275 28.8386C128.275 29.2102 128.175 29.5367 127.974 29.818C127.783 30.0993 127.527 30.3253 127.205 30.4961C126.884 30.6568 126.537 30.7522 126.165 30.7824C126.366 30.9129 126.547 31.0837 126.708 31.2947C126.879 31.4956 127.07 31.7266 127.281 31.9878C127.502 32.2389 127.768 32.5001 128.079 32.7714C128.401 33.0426 128.812 33.3088 129.315 33.57C129.234 33.7307 129.114 33.8713 128.953 33.9919C128.792 34.1124 128.596 34.1727 128.365 34.1727C128.024 34.1727 127.728 34.0773 127.476 33.8864C127.235 33.6955 127.024 33.4544 126.844 33.1631C126.663 32.8718 126.497 32.5704 126.346 32.259C126.206 31.9376 126.06 31.6463 125.909 31.3851C125.769 31.1239 125.613 30.933 125.442 30.8125L124.749 30.7673V32.5152ZM125.05 27.1811C124.85 27.1811 124.749 27.3468 124.749 27.6783V30.1796C124.89 30.2098 125.03 30.2248 125.171 30.2248C125.452 30.2248 125.718 30.1746 125.97 30.0741C126.231 29.9636 126.442 29.8029 126.602 29.592C126.763 29.371 126.844 29.1048 126.844 28.7934C126.844 28.5623 126.783 28.3212 126.663 28.0701C126.552 27.8189 126.366 27.608 126.105 27.4372C125.844 27.2664 125.492 27.1811 125.05 27.1811ZM139.199 27.1359C139.009 27.1359 138.903 27.2313 138.883 27.4221C138.863 27.603 138.873 27.8893 138.913 28.281C138.963 28.7934 139.014 29.3459 139.064 29.9385C139.124 30.5212 139.179 31.0737 139.23 31.596C139.29 32.1184 139.34 32.5453 139.38 32.8768C139.4 33.0275 139.431 33.1732 139.471 33.3138C139.511 33.4444 139.566 33.5097 139.636 33.5097H140.299C140.34 33.5097 140.37 33.5398 140.39 33.6001C140.42 33.6503 140.435 33.7056 140.435 33.7659C140.435 33.9065 140.395 33.9768 140.315 33.9768C140.204 33.9768 140.048 33.9768 139.847 33.9768C139.646 33.9668 139.451 33.9617 139.26 33.9617C139.079 33.9617 138.938 33.9617 138.838 33.9617C138.717 33.9617 138.547 33.9668 138.326 33.9768C138.115 33.9768 137.909 33.9818 137.708 33.9919C137.517 34.0019 137.386 34.0069 137.316 34.0069C137.276 34.0069 137.246 33.9818 137.226 33.9316C137.215 33.8713 137.21 33.8211 137.21 33.7809C137.21 33.6302 137.241 33.5549 137.301 33.5549H137.768C138.039 33.5549 138.165 33.4394 138.145 33.2083C138.135 33.0878 138.12 32.8819 138.099 32.5905C138.079 32.2992 138.054 31.9627 138.024 31.581C137.994 31.1992 137.964 30.8075 137.934 30.4056C137.904 30.0038 137.878 29.6321 137.858 29.2906C137.838 28.939 137.823 28.6527 137.813 28.4317H137.753C137.542 28.8838 137.316 29.381 137.075 29.9235C136.834 30.4659 136.598 30.9983 136.367 31.5207C136.146 32.0431 135.95 32.5051 135.779 32.907C135.618 33.3088 135.503 33.6001 135.432 33.7809C135.392 33.8713 135.292 33.9165 135.131 33.9165C134.98 33.9165 134.885 33.8663 134.845 33.7659C134.744 33.5047 134.604 33.1631 134.423 32.7412C134.252 32.3093 134.061 31.8371 133.85 31.3248C133.649 30.8125 133.443 30.2951 133.232 29.7728C133.022 29.2504 132.826 28.7632 132.645 28.3112H132.6C132.449 30.3906 132.374 31.7969 132.374 32.5303C132.364 32.912 132.384 33.1732 132.434 33.3138C132.484 33.4444 132.554 33.5097 132.645 33.5097H133.112C133.162 33.5097 133.197 33.5398 133.217 33.6001C133.248 33.6503 133.263 33.7006 133.263 33.7508C133.263 33.9015 133.212 33.9768 133.112 33.9768C132.851 33.9768 132.63 33.9768 132.449 33.9768C132.268 33.9668 132.087 33.9617 131.906 33.9617C131.625 33.9617 131.344 33.9668 131.063 33.9768C130.781 33.9969 130.58 34.0069 130.46 34.0069C130.43 34.0069 130.405 33.9818 130.385 33.9316C130.375 33.8713 130.37 33.8211 130.37 33.7809C130.37 33.7307 130.375 33.6805 130.385 33.6302C130.405 33.58 130.435 33.5549 130.475 33.5549H130.837C131.007 33.5549 131.133 33.5398 131.213 33.5097C131.304 33.4796 131.364 33.3942 131.394 33.2535C131.424 33.0828 131.459 32.8166 131.5 32.4549C131.55 32.0933 131.6 31.6864 131.65 31.2344C131.701 30.7824 131.746 30.3404 131.786 29.9084C131.836 29.4664 131.876 29.0847 131.906 28.7632C131.937 28.4317 131.952 28.2157 131.952 28.1153C131.952 27.7336 131.927 27.4824 131.876 27.3619C131.836 27.2313 131.756 27.166 131.635 27.166H131.213C131.153 27.166 131.123 27.0856 131.123 26.9249C131.123 26.7742 131.153 26.6989 131.213 26.6989C131.495 26.6989 131.736 26.7089 131.937 26.729C132.148 26.7391 132.389 26.7441 132.66 26.7441H133.368C133.509 27.1359 133.664 27.5779 133.835 28.0701C134.016 28.5523 134.197 29.0445 134.378 29.5468C134.558 30.039 134.734 30.5161 134.905 30.9782C135.076 31.4403 135.226 31.8472 135.357 32.1988H135.417C135.628 31.7367 135.844 31.2394 136.065 30.707C136.296 30.1646 136.512 29.6321 136.713 29.1098C136.914 28.5874 137.09 28.1203 137.241 27.7084C137.401 27.2865 137.522 26.9651 137.602 26.7441C137.723 26.7441 137.904 26.7391 138.145 26.729C138.396 26.719 138.652 26.7139 138.913 26.7139C139.184 26.7039 139.405 26.6989 139.576 26.6989C139.616 26.6989 139.646 26.724 139.667 26.7742C139.687 26.8144 139.697 26.8596 139.697 26.9098C139.697 26.9601 139.687 27.0103 139.667 27.0605C139.646 27.1107 139.616 27.1359 139.576 27.1359H139.199ZM145.218 26.6687C145.258 26.5783 145.358 26.5331 145.519 26.5331C145.67 26.5331 145.765 26.5834 145.805 26.6838C145.856 26.9048 145.951 27.2112 146.092 27.603C146.242 27.9947 146.418 28.4367 146.619 28.929C146.82 29.4111 147.026 29.9084 147.237 30.4207C147.458 30.923 147.669 31.4052 147.87 31.8673C148.081 32.3193 148.261 32.7061 148.412 33.0275C148.533 33.2786 148.643 33.4394 148.744 33.5097C148.844 33.57 149 33.6001 149.211 33.6001C149.271 33.6001 149.301 33.6604 149.301 33.7809C149.301 33.8311 149.296 33.8814 149.286 33.9316C149.276 33.9818 149.256 34.0069 149.226 34.0069C148.914 34.0069 148.653 34.0019 148.442 33.9919C148.231 33.9818 148.01 33.9768 147.779 33.9768C147.588 33.9768 147.357 33.9818 147.086 33.9919C146.815 34.0019 146.503 34.0069 146.152 34.0069C146.112 34.0069 146.087 33.9869 146.077 33.9467C146.067 33.8964 146.061 33.8512 146.061 33.8111C146.061 33.6805 146.092 33.6152 146.152 33.6152H146.875C146.986 33.6152 147.041 33.57 147.041 33.4796C147.041 33.4494 147.001 33.3239 146.92 33.1029C146.84 32.8819 146.735 32.6006 146.604 32.259C146.483 31.9175 146.348 31.5508 146.197 31.1591H144.103C143.892 31.6814 143.716 32.1335 143.575 32.5152C143.435 32.8969 143.364 33.1581 143.364 33.2987C143.364 33.4193 143.384 33.4996 143.425 33.5398C143.465 33.58 143.505 33.6001 143.545 33.6001H144.163C144.243 33.6001 144.283 33.6604 144.283 33.7809C144.283 33.8311 144.273 33.8814 144.253 33.9316C144.243 33.9818 144.223 34.0069 144.193 34.0069C143.942 34.0069 143.741 34.0019 143.59 33.9919C143.45 33.9919 143.319 33.9869 143.199 33.9768C143.088 33.9768 142.957 33.9768 142.807 33.9768C142.626 33.9768 142.445 33.9818 142.264 33.9919C142.094 34.0019 141.878 34.0069 141.616 34.0069C141.576 34.0069 141.546 33.9869 141.526 33.9467C141.516 33.8964 141.511 33.8512 141.511 33.8111C141.511 33.6805 141.546 33.6152 141.616 33.6152H142.099C142.209 33.6152 142.289 33.57 142.34 33.4796C142.44 33.3188 142.581 33.0376 142.762 32.6357C142.952 32.2239 143.163 31.7467 143.394 31.2043C143.625 30.6618 143.857 30.1043 144.088 29.5317C144.329 28.9591 144.55 28.4217 144.751 27.9194C144.951 27.4071 145.107 26.9902 145.218 26.6687ZM146.001 30.6467C145.861 30.2349 145.72 29.828 145.579 29.4262C145.449 29.0244 145.328 28.6678 145.218 28.3564H145.172C145.042 28.7281 144.901 29.1148 144.751 29.5166C144.6 29.9184 144.454 30.2951 144.314 30.6467H146.001Z" fill="#1255D0"/>
<defs>
<clipPath id="clip0_1632_316">
<rect width="49.6829" height="51" fill="white"/>
</clipPath>
</defs>
</svg>
