<svg width="16" height="16" viewBox="0 0 16 16" fill="none" xmlns="http://www.w3.org/2000/svg">
<mask id="mask0_1641_429" style="mask-type:alpha" maskUnits="userSpaceOnUse" x="0" y="0" width="16" height="16">
<rect width="16" height="16" fill="#D9D9D9"/>
</mask>
<g mask="url(#mask0_1641_429)">
<path d="M8 10.0121L10.6073 7.40482H5.39268L8 10.0121ZM8.00129 15C7.03308 15 6.12302 14.8163 5.2711 14.4488C4.41919 14.0814 3.67818 13.5827 3.04805 12.9529C2.41793 12.323 1.91903 11.5823 1.55134 10.7307C1.18378 9.87919 1 8.96938 1 8.00129C1 7.03308 1.18372 6.12302 1.55116 5.2711C1.9186 4.41919 2.41725 3.67818 3.04713 3.04805C3.67701 2.41793 4.41772 1.91903 5.26926 1.55134C6.12081 1.18378 7.03062 1 7.99871 1C8.96692 1 9.87698 1.18372 10.7289 1.55116C11.5808 1.9186 12.3218 2.41725 12.9519 3.04713C13.5821 3.67701 14.081 4.41772 14.4487 5.26926C14.8162 6.12081 15 7.03062 15 7.99871C15 8.96692 14.8163 9.87698 14.4488 10.7289C14.0814 11.5808 13.5827 12.3218 12.9529 12.9519C12.323 13.5821 11.5823 14.081 10.7307 14.4487C9.87919 14.8162 8.96938 15 8.00129 15ZM8 13.8947C9.64561 13.8947 11.0395 13.3237 12.1816 12.1816C13.3237 11.0395 13.8947 9.64561 13.8947 8C13.8947 6.35439 13.3237 4.96053 12.1816 3.81842C11.0395 2.67632 9.64561 2.10526 8 2.10526C6.35439 2.10526 4.96053 2.67632 3.81842 3.81842C2.67632 4.96053 2.10526 6.35439 2.10526 8C2.10526 9.64561 2.67632 11.0395 3.81842 12.1816C4.96053 13.3237 6.35439 13.8947 8 13.8947Z" fill="#9B9C9F"/>
</g>
</svg>
