<svg width="24" height="24" viewBox="0 0 24 24" fill="none" xmlns="http://www.w3.org/2000/svg">
<circle cx="12" cy="12" r="12" fill="#F5F2FF"/>
<mask id="mask0_1648_750" style="mask-type:alpha" maskUnits="userSpaceOnUse" x="4" y="4" width="16" height="16">
<rect x="4" y="4" width="16" height="16" fill="#373940"/>
</mask>
<g mask="url(#mask0_1648_750)">
<path d="M8.35469 15.6438H9.06965L13.4743 11.2328L12.7594 10.5168L8.35469 14.9278V15.6438ZM15.6575 10.4912L13.4871 8.3433L14.2021 7.62732C14.3978 7.43127 14.6383 7.33325 14.9234 7.33325C15.2085 7.33325 15.449 7.43127 15.6447 7.62732L16.3597 8.3433C16.5555 8.53934 16.6576 8.77587 16.6661 9.05289C16.6746 9.3299 16.581 9.56643 16.3852 9.76248L15.6575 10.4912ZM14.917 11.2456L9.50373 16.6666H7.33331V14.4931L12.7466 9.07206L14.917 11.2456Z" fill="#373737"/>
</g>
</svg>
