<svg width="16" height="16" viewBox="0 0 16 16" fill="none" xmlns="http://www.w3.org/2000/svg">
<path d="M8.5 5H7.5C7.10218 5 6.72064 5.15804 6.43934 5.43934C6.15804 5.72064 6 6.10218 6 6.5V12.5C6 12.8978 6.15804 13.2794 6.43934 13.5607C6.72064 13.842 7.10218 14 7.5 14H8.5C8.89782 14 9.27936 13.842 9.56066 13.5607C9.84196 13.2794 10 12.8978 10 12.5V6.5C10 6.10218 9.84196 5.72064 9.56066 5.43934C9.27936 5.15804 8.89782 5 8.5 5ZM9 12.5C9 12.6326 8.94732 12.7598 8.85355 12.8536C8.75979 12.9473 8.63261 13 8.5 13H7.5C7.36739 13 7.24021 12.9473 7.14645 12.8536C7.05268 12.7598 7 12.6326 7 12.5V6.5C7 6.36739 7.05268 6.24021 7.14645 6.14645C7.24021 6.05268 7.36739 6 7.5 6H8.5C8.63261 6 8.75979 6.05268 8.85355 6.14645C8.94732 6.24021 9 6.36739 9 6.5V12.5ZM13.5 2H12.5C12.1022 2 11.7206 2.15804 11.4393 2.43934C11.158 2.72064 11 3.10218 11 3.5V12.5C11 12.8978 11.158 13.2794 11.4393 13.5607C11.7206 13.842 12.1022 14 12.5 14H13.5C13.8978 14 14.2794 13.842 14.5607 13.5607C14.842 13.2794 15 12.8978 15 12.5V3.5C15 3.10218 14.842 2.72064 14.5607 2.43934C14.2794 2.15804 13.8978 2 13.5 2ZM14 12.5C14 12.6326 13.9473 12.7598 13.8536 12.8536C13.7598 12.9473 13.6326 13 13.5 13H12.5C12.3674 13 12.2402 12.9473 12.1464 12.8536C12.0527 12.7598 12 12.6326 12 12.5V3.5C12 3.36739 12.0527 3.24021 12.1464 3.14645C12.2402 3.05268 12.3674 3 12.5 3H13.5C13.6326 3 13.7598 3.05268 13.8536 3.14645C13.9473 3.24021 14 3.36739 14 3.5V12.5ZM3.5 7H2.5C2.10218 7 1.72064 7.15804 1.43934 7.43934C1.15804 7.72064 1 8.10218 1 8.5V12.5C1 12.8978 1.15804 13.2794 1.43934 13.5607C1.72064 13.842 2.10218 14 2.5 14H3.5C3.89782 14 4.27936 13.842 4.56066 13.5607C4.84196 13.2794 5 12.8978 5 12.5V8.5C5 8.10218 4.84196 7.72064 4.56066 7.43934C4.27936 7.15804 3.89782 7 3.5 7ZM4 12.5C4 12.6326 3.94732 12.7598 3.85355 12.8536C3.75979 12.9473 3.63261 13 3.5 13H2.5C2.36739 13 2.24021 12.9473 2.14645 12.8536C2.05268 12.7598 2 12.6326 2 12.5V8.5C2 8.36739 2.05268 8.24021 2.14645 8.14645C2.24021 8.05268 2.36739 8 2.5 8H3.5C3.63261 8 3.75979 8.05268 3.85355 8.14645C3.94732 8.24021 4 8.36739 4 8.5V12.5Z" fill="#626DAF"/>
</svg>
