<svg width="16" height="16" viewBox="0 0 16 16" fill="none" xmlns="http://www.w3.org/2000/svg">
<mask id="mask0_386_7325" style="mask-type:alpha" maskUnits="userSpaceOnUse" x="0" y="0" width="16" height="16">
<rect width="16" height="16" fill="#D9D9D9"/>
</mask>
<g mask="url(#mask0_386_7325)">
<path d="M5.60002 11.1023L8.00002 8.70234L10.4 11.1023L11.1025 10.3998L8.70252 7.99984L11.1025 5.59984L10.4 4.89734L8.00002 7.29734L5.60002 4.89734L4.89752 5.59984L7.29752 7.99984L4.89752 10.3998L5.60002 11.1023ZM8.00119 14.3332C7.12519 14.3332 6.3018 14.1669 5.53102 13.8345C4.76024 13.5021 4.0898 13.0509 3.51969 12.481C2.94958 11.9111 2.49819 11.2409 2.16552 10.4705C1.83296 9.70006 1.66669 8.87689 1.66669 8.001C1.66669 7.125 1.83291 6.30161 2.16535 5.53084C2.4978 4.76006 2.94896 4.08961 3.51885 3.5195C4.08874 2.94939 4.75891 2.498 5.52935 2.16534C6.2998 1.83278 7.12296 1.6665 7.99885 1.6665C8.87485 1.6665 9.69824 1.83273 10.469 2.16517C11.2398 2.49761 11.9102 2.94878 12.4804 3.51867C13.0505 4.08856 13.5019 4.75873 13.8345 5.52917C14.1671 6.29962 14.3334 7.12278 14.3334 7.99867C14.3334 8.87467 14.1671 9.69806 13.8347 10.4688C13.5022 11.2396 13.0511 11.9101 12.4812 12.4802C11.9113 13.0503 11.2411 13.5017 10.4707 13.8343C9.70024 14.1669 8.87708 14.3332 8.00119 14.3332Z" fill="#FF0000"/>
</g>
</svg>
