<svg width="16" height="16" viewBox="0 0 16 16" fill="none" xmlns="http://www.w3.org/2000/svg">
<mask id="mask0_386_7202" style="mask-type:alpha" maskUnits="userSpaceOnUse" x="0" y="0" width="16" height="16">
<rect width="16" height="16" fill="#D9D9D9"/>
</mask>
<g mask="url(#mask0_386_7202)">
<path d="M7.05382 10.8357L11.5358 6.35367L10.8333 5.65117L7.05382 9.43067L5.15382 7.53067L4.45132 8.23317L7.05382 10.8357ZM8.00116 14.3332C7.12516 14.3332 6.30177 14.1669 5.53099 13.8345C4.76021 13.5021 4.08977 13.0509 3.51966 12.481C2.94955 11.9111 2.49816 11.2409 2.16549 10.4705C1.83293 9.70006 1.66666 8.87689 1.66666 8.001C1.66666 7.125 1.83288 6.30161 2.16532 5.53084C2.49777 4.76006 2.94893 4.08961 3.51882 3.5195C4.08871 2.94939 4.75888 2.498 5.52932 2.16534C6.29977 1.83278 7.12293 1.6665 7.99882 1.6665C8.87482 1.6665 9.69821 1.83273 10.469 2.16517C11.2398 2.49761 11.9102 2.94878 12.4803 3.51867C13.0504 4.08856 13.5018 4.75873 13.8345 5.52917C14.167 6.29962 14.3333 7.12278 14.3333 7.99867C14.3333 8.87467 14.1671 9.69806 13.8347 10.4688C13.5022 11.2396 13.051 11.9101 12.4812 12.4802C11.9113 13.0503 11.2411 13.5017 10.4707 13.8343C9.70021 14.1669 8.87705 14.3332 8.00116 14.3332Z" fill="#B9B9B9"/>
</g>
</svg>
