<svg width="26" height="26" viewBox="0 0 26 26" fill="none" xmlns="http://www.w3.org/2000/svg">
<circle cx="13" cy="13" r="13" fill="#D6E5FF"/>
<mask id="mask0_2974_632" style="mask-type:alpha" maskUnits="userSpaceOnUse" x="3" y="3" width="20" height="20">
<rect x="3" y="3" width="20" height="20" fill="#D9D9D9"/>
</mask>
<g mask="url(#mask0_2974_632)">
<path d="M13 16.1571L9.44229 12.5994L10.3206 11.6956L12.375 13.75V6.75H13.625V13.75L15.6794 11.6956L16.5577 12.5994L13 16.1571ZM8.25646 19.25C7.83549 19.25 7.47917 19.1042 7.1875 18.8125C6.89583 18.5208 6.75 18.1645 6.75 17.7435V15.484H8V17.7435C8 17.8077 8.02674 17.8665 8.08021 17.9198C8.13354 17.9733 8.19229 18 8.25646 18H17.7435C17.8077 18 17.8665 17.9733 17.9198 17.9198C17.9733 17.8665 18 17.8077 18 17.7435V15.484H19.25V17.7435C19.25 18.1645 19.1042 18.5208 18.8125 18.8125C18.5208 19.1042 18.1645 19.25 17.7435 19.25H8.25646Z" fill="#33425D"/>
</g>
</svg>
