<svg width="26" height="26" viewBox="0 0 26 26" fill="none" xmlns="http://www.w3.org/2000/svg">
<circle cx="13" cy="13" r="13" fill="#DC4200"/>
<mask id="mask0_423_921" style="mask-type:alpha" maskUnits="userSpaceOnUse" x="3" y="3" width="20" height="20">
<rect x="3" y="3" width="20" height="20" fill="#D9D9D9"/>
</mask>
<g mask="url(#mask0_423_921)">
<path d="M8.83331 20.5C8.37498 20.5 7.98262 20.3368 7.65623 20.0104C7.32984 19.684 7.16665 19.2917 7.16665 18.8333V8H6.33331V6.33333H10.5V5.5H15.5V6.33333H19.6666V8H18.8333V18.8333C18.8333 19.2917 18.6701 19.684 18.3437 20.0104C18.0173 20.3368 17.625 20.5 17.1666 20.5H8.83331ZM17.1666 8H8.83331V18.8333H17.1666V8ZM10.5 17.1667H12.1666V9.66667H10.5V17.1667ZM13.8333 17.1667H15.5V9.66667H13.8333V17.1667Z" fill="white"/>
</g>
</svg>
